<?xml version="1.0" encoding="utf-8"?>
<!-- Generator: Adobe Illustrator 27.5.0, SVG Export Plug-In . SVG Version: 6.00 Build 0)  -->
<svg version="1.1" xmlns="http://www.w3.org/2000/svg" xmlns:xlink="http://www.w3.org/1999/xlink" x="0px" y="0px"
	 viewBox="0 0 3710 3710" style="enable-background:new 0 0 3710 3710;" xml:space="preserve">
<g id="Background">
	<g>
		<g>
			<rect style="fill:#FFFFFF;" width="3710" height="3710"/>
		</g>
	</g>
</g>
<g id="Illustration">
	<g>
		<linearGradient id="SVGID_1_" gradientUnits="userSpaceOnUse" x1="3513.2197" y1="3695.5422" x2="1531.8478" y2="1586.3403">
			<stop  offset="0" style="stop-color:#DAE3FE"/>
			<stop  offset="1" style="stop-color:#E9EFFD"/>
		</linearGradient>
		<path style="fill:url(#SVGID_1_);" d="M2918.314,2849.339c-73.144,75.395-138.591,119.714-188.699,153.172
			c-488.697,326.307-1047.331,232.258-1220.047,200.112c-278.656-51.864-513.88-88.451-715.979-271.04
			c-459.231-414.897-436.895-1280.403-85.986-1816.546c41.607-63.571,391.984-582.939,951.828-656.122
			c13.693-1.79,23.91-2.809,32.858-3.757c86.606-9.17,623.29-57.565,1060.901,309.066
			c62.642,52.481,163.451,147.144,256.934,291.521C3351.939,1583.65,3353.022,2401.26,2918.314,2849.339z"/>
		<g>
			
				<ellipse transform="matrix(0.0439 -0.999 0.999 0.0439 -141.8149 2889.0051)" style="fill:#91B3FA;" cx="1438.398" cy="1518.591" rx="893.88" ry="964.856"/>
			<ellipse style="opacity:0.19;fill:#FFFFFF;" cx="1386.178" cy="1454.099" rx="757.112" ry="715.23"/>
			<g style="opacity:0.68;">
				<g>
					<path style="fill:#FFFFFF;" d="M1685.461,1522.913c0,0,0.061,14.775-0.313,42.512c-0.397,27.724-1.266,68.394-3.967,120.091
						c-2.697,51.687-7.279,114.428-16.164,186.01c-8.939,71.536-21.623,152.101-43.432,238.28
						c-11.004,43.031-24.259,87.508-42.115,132.101c-8.991,22.256-19.128,44.556-31.378,66.23
						c-12.3,21.579-26.535,42.883-45.275,60.912c-9.377,8.937-20.012,16.991-32.187,22.594c-12.115,5.633-25.954,8.328-39.571,6.866
						c-13.65-1.33-26.654-6.731-37.99-14.176c-11.396-7.459-21.346-16.855-30.286-27.033c-17.856-20.47-31.942-44.004-44.305-68.424
						c-12.331-24.479-22.806-50.076-32.2-76.249c-18.698-52.402-33.069-107.135-45.002-162.993
						c-11.881-55.884-21.206-112.979-28.569-170.762c-14.676-115.589-21.637-233.927-22.315-352.258
						c-0.1-59.162,1.905-118.308,5.093-177.143c3.276-58.832,8.125-117.349,14.785-175.205
						c6.691-57.846,15.171-115.043,26.132-171.087c11.007-56.017,24.346-110.969,41.982-163.668
						c8.846-26.328,18.818-52.079,30.612-76.754c11.875-24.587,25.451-48.337,42.909-68.939
						c8.748-10.234,18.518-19.678,29.757-27.092c11.175-7.412,24.011-12.655,37.389-13.855c3.28-0.296,6.775-0.354,9.966-0.235
						c3.39,0.175,6.675,0.556,9.953,1.118c6.538,1.179,12.869,3.227,18.874,5.896c12.012,5.39,22.658,13.134,32.136,21.792
						c18.959,17.451,33.719,38.258,46.533,59.443c12.779,21.274,23.504,43.246,33.031,65.24
						c18.977,44.05,33.256,88.18,45.186,130.94c23.637,85.649,37.7,165.996,47.605,237.4c4.9,35.725,8.682,69.267,11.624,100.331
						c2.869,31.071,4.946,59.662,6.496,85.5c3.076,51.684,4.11,92.36,4.593,120.088
						C1685.507,1508.115,1685.461,1522.913,1685.461,1522.913z M1672.642,1522.903c0,0,0.113-14.722-0.217-42.333
						c-0.354-27.608-1.197-68.109-4.024-119.578c-1.425-25.733-3.363-54.201-6.076-85.146c-2.658-30.946-6.044-64.375-10.565-99.984
						c-4.531-35.603-10.162-73.391-17.404-112.993c-7.246-39.595-16.032-81.032-27.32-123.716
						c-11.347-42.644-25.014-86.665-43.302-130.556c-9.181-21.909-19.542-43.789-31.901-64.932
						c-12.385-21.057-26.689-41.692-44.935-58.886c-9.118-8.532-19.321-16.123-30.739-21.41c-11.423-5.262-24.016-8.055-36.73-6.641
						c-12.617,1.288-24.712,6.375-35.353,13.614c-10.694,7.237-20.071,16.498-28.483,26.586
						c-16.798,20.305-29.922,43.868-41.359,68.304c-11.364,24.527-20.944,50.172-29.409,76.401
						c-16.874,52.511-29.49,107.32-39.771,163.188c-10.238,55.894-17.997,112.947-23.968,170.63
						c-11.946,115.394-16.375,233.328-15.978,351.147c-0.332,117.792,5.611,235.683,19.243,350.843
						c6.841,57.568,15.64,114.448,26.98,170.101c11.39,55.62,25.211,110.102,43.288,162.14
						c9.079,25.988,19.223,51.373,31.151,75.561c11.95,24.122,25.594,47.281,42.647,67.157c8.528,9.883,17.968,18.916,28.579,25.984
						c10.569,7.065,22.433,12.059,34.764,13.363c12.333,1.369,24.777-1.257,35.911-6.506c11.177-5.259,21.151-12.9,30.026-21.516
						c17.757-17.368,31.516-38.259,43.375-59.52c11.825-21.357,21.638-43.435,30.327-65.506
						c17.263-44.222,30.037-88.467,40.586-131.293c10.503-42.859,18.617-84.415,25.304-124.099
						c6.676-39.691,11.854-77.539,16.012-113.185c4.156-35.649,7.249-69.108,9.702-100.073c2.496-30.962,4.282-59.443,5.602-85.186
						c2.617-51.482,3.427-91.993,3.784-119.605C1672.723,1537.648,1672.642,1522.903,1672.642,1522.903z"/>
				</g>
				<g>
					<path style="fill:#FFFFFF;" d="M2083.261,1523.049c0,0-0.1,4.733-0.293,13.902c-0.096,4.584-0.216,10.277-0.357,17.044
						c-0.148,6.764-0.201,14.58-0.862,23.55c-0.532,8.944-1.126,18.929-1.78,29.92c-0.677,10.988-2.135,22.865-3.315,35.768
						c-1.037,12.913-3.189,26.669-5.166,41.384c-1.761,14.748-4.808,30.238-7.664,46.663c-0.752,4.098-1.409,8.272-2.266,12.463
						c-0.91,4.181-1.831,8.418-2.763,12.704c-1.867,8.576-3.781,17.368-5.739,26.368c-2.294,8.92-4.641,18.046-7.041,27.377
						c-1.208,4.664-2.429,9.377-3.663,14.14c-1.415,4.713-2.844,9.479-4.289,14.292c-11.151,38.612-26.17,79.52-44.956,121.976
						c-18.851,42.419-41.888,86.311-70.378,129.934c-28.474,43.594-62.419,86.933-102.724,127.477
						c-40.061,40.769-87.462,77.658-140.79,108.534c-6.527,4.105-13.544,7.406-20.413,11.031c-3.451,1.786-6.91,3.572-10.374,5.362
						l-5.204,2.689c-1.748,0.873-3.565,1.607-5.347,2.421c-7.162,3.175-14.351,6.36-21.57,9.562
						c-1.812,0.784-3.594,1.64-5.436,2.362l-5.567,2.071c-3.715,1.383-7.438,2.768-11.167,4.154
						c-14.771,5.977-30.333,10.006-45.749,14.812c-7.836,1.948-15.752,3.711-23.668,5.583c-3.972,0.87-7.905,1.965-11.927,2.656
						c-4.027,0.665-8.061,1.333-12.101,2.004c-4.041,0.668-8.088,1.336-12.142,2.008c-4.052,0.688-8.108,1.399-12.226,1.694
						c-8.206,0.807-16.439,1.617-24.699,2.431c-4.121,0.526-8.285,0.529-12.444,0.681c-4.16,0.132-8.328,0.261-12.502,0.394
						c-4.173,0.132-8.353,0.264-12.54,0.397c-4.399,0.01-8.391-0.218-12.617-0.314c-8.35-0.324-16.699-0.354-25.121-0.923
						c-8.444-0.82-16.914-1.644-25.408-2.467l-6.375-0.632l-6.308-1.035c-4.209-0.691-8.424-1.386-12.644-2.081
						c-4.221-0.695-8.448-1.389-12.68-2.087c-4.222-0.751-8.374-1.879-12.574-2.805c-33.705-7.025-66.792-18.367-98.984-32.312
						l-12.059-5.332l-6.04-2.673l-5.877-3.026c-7.84-4.042-15.698-8.094-23.574-12.155c-15.253-9-30.825-17.676-45.444-27.975
						c-7.425-4.971-14.976-9.8-22.041-15.34c-7.158-5.405-14.456-10.67-21.541-16.23c-6.92-5.765-13.854-11.543-20.8-17.332
						l-5.199-4.363l-4.986-4.607l-9.987-9.235l-10.006-9.251c-3.279-3.149-6.389-6.473-9.597-9.704
						c-6.318-6.556-12.871-12.923-19.028-19.674c-6.069-6.833-12.147-13.677-18.235-20.533c-3.108-3.377-6.001-6.936-8.859-10.531
						l-8.658-10.726l-8.671-10.746c-2.855-3.615-5.487-7.399-8.245-11.097c-5.424-7.459-10.998-14.834-16.32-22.399
						c-10.223-15.417-20.818-30.671-30.151-46.769c-9.933-15.744-18.55-32.288-27.59-48.651
						c-4.316-8.286-8.337-16.733-12.526-25.111l-6.225-12.605l-5.709-12.857c-3.771-8.593-7.702-17.133-11.351-25.796
						c-3.462-8.745-6.927-17.497-10.395-26.255c-3.618-8.706-6.601-17.649-9.732-26.553l-4.679-13.366
						c-1.558-4.459-3.176-8.901-4.484-13.442c-5.524-18.076-11.252-36.132-15.742-54.552l-3.586-13.763l-1.794-6.883l-1.542-6.946
						l-6.1-27.82l-1.526-6.962l-1.271-7.009l-2.51-14.034l-2.51-14.044c-0.868-4.677-1.684-9.36-2.267-14.084
						c-2.521-18.86-5.443-37.69-6.976-56.688c-4.187-37.888-5.311-76.051-5.901-114.17l0.594-28.554l0.296-14.196
						c0.102-4.73,0.513-9.536,0.756-14.302l1.7-28.643c0.615-9.536,1.773-18.979,2.634-28.471
						c1.545-18.995,4.48-37.819,7.014-56.675c0.587-4.723,1.407-9.407,2.279-14.084l2.521-14.037l2.521-14.031l1.277-7.009
						l1.531-6.959l6.121-27.81l1.547-6.943l1.799-6.883l3.597-13.753c4.504-18.417,10.244-36.466,15.783-54.532
						c1.311-4.538,2.934-8.977,4.495-13.432l4.689-13.359c3.138-8.897,6.126-17.838,9.752-26.54
						c3.474-8.752,6.947-17.497,10.415-26.236c3.655-8.659,7.593-17.189,11.369-25.776l5.718-12.85l6.233-12.595
						c4.196-8.368,8.221-16.812,12.543-25.091c9.05-16.346,17.677-32.874,27.619-48.601c9.341-16.085,19.947-31.319,30.172-46.719
						c5.324-7.558,10.901-14.924,16.326-22.376c2.758-3.691,5.391-7.475,8.247-11.084l8.672-10.733l8.658-10.716
						c2.858-3.589,5.752-7.144,8.859-10.515c6.088-6.847,12.167-13.683,18.235-20.507c6.157-6.744,12.709-13.101,19.027-19.647
						c3.207-3.228,6.317-6.546,9.595-9.688l10.004-9.238l9.985-9.22l4.985-4.601l5.197-4.354
						c6.944-5.778,13.875-11.547,20.793-17.304c7.083-5.548,14.377-10.802,21.531-16.199c7.062-5.527,14.606-10.349,22.03-15.306
						c14.62-10.265,30.187-18.909,45.433-27.873c7.872-4.043,15.726-8.077,23.561-12.102l5.873-3.013l6.035-2.659l12.05-5.305
						c32.176-13.839,65.192-25.189,98.831-32.247c33.543-7.194,67.391-11.917,100.978-12.109c4.23-0.098,8.298-0.339,12.642-0.319
						c4.158,0.134,8.311,0.27,12.457,0.404c4.146,0.136,8.285,0.27,12.418,0.404c4.134,0.155,8.253,0.16,12.393,0.688
						c8.268,0.82,16.51,1.637,24.723,2.451c4.126,0.303,8.174,1.014,12.217,1.705c4.048,0.673,8.088,1.345,12.121,2.016
						c4.034,0.672,8.061,1.343,12.08,2.013c4.015,0.69,7.941,1.789,11.906,2.661c7.901,1.877,15.803,3.643,23.624,5.595
						c15.391,4.803,30.909,8.873,45.671,14.8c3.725,1.379,7.444,2.755,11.156,4.13l5.562,2.061c1.84,0.718,3.621,1.571,5.431,2.35
						c7.212,3.185,14.397,6.357,21.553,9.518c1.78,0.807,3.595,1.54,5.343,2.408l5.199,2.677c3.464,1.783,6.919,3.562,10.368,5.338
						c6.865,3.612,13.879,6.896,20.404,10.986c53.321,30.742,100.68,67.603,140.743,108.299
						c40.299,40.484,74.25,83.777,102.742,127.324c28.511,43.574,51.577,87.429,70.458,129.818
						c18.817,42.423,33.868,83.307,45.049,121.903c1.448,4.809,2.88,9.569,4.298,14.282c1.238,4.763,2.462,9.473,3.673,14.133
						c2.406,9.327,4.76,18.453,7.06,27.37c1.965,8.993,3.884,17.781,5.757,26.355c0.936,4.29,1.86,8.524,2.772,12.704
						c0.861,4.187,1.521,8.361,2.276,12.459c2.867,16.419,5.925,31.905,7.697,46.65c1.986,14.712,4.149,28.468,5.196,41.378
						c1.188,12.893,2.657,24.793,3.34,35.748c0.661,10.955,1.261,20.91,1.799,29.821c0.667,8.911,0.729,16.799,0.882,23.609
						c0.148,6.807,0.273,12.536,0.373,17.146c0.2,9.228,0.303,13.988,0.303,13.988L2083.261,1523.049z M2068.567,1522.906
						c0,0-0.079-4.7-0.231-13.812c-0.076-4.555-0.17-10.214-0.282-16.938c-0.117-6.724-0.135-14.517-0.752-23.318
						c-0.486-8.805-1.029-18.638-1.626-29.464c-0.618-10.822-2.013-22.581-3.12-35.318c-0.966-12.761-3.038-26.355-4.924-40.895
						c-1.673-14.577-4.621-29.88-7.368-46.114c-0.724-4.052-1.354-8.176-2.184-12.321c-0.881-4.131-1.773-8.318-2.676-12.555
						c-1.806-8.477-3.657-17.166-5.552-26.064c-2.228-8.818-4.507-17.841-6.837-27.062c-1.172-4.611-2.357-9.271-3.555-13.981
						c-1.377-4.657-2.768-9.367-4.175-14.123c-10.686-38.222-25.005-78.793-43.122-120.924
						c-18.159-42.105-40.441-85.715-68.116-129.124c-27.667-43.379-60.753-86.559-100.151-127.053
						c-39.211-40.628-85.488-77.871-138.147-108.518c-6.433-4.093-13.349-7.379-20.119-10.998c-3.402-1.779-6.811-3.562-10.227-5.35
						l-5.128-2.682c-1.724-0.872-3.514-1.606-5.271-2.416c-7.061-3.172-14.15-6.355-21.267-9.554
						c-1.787-0.781-3.544-1.639-5.36-2.362l-5.49-2.07c-3.664-1.383-7.335-2.768-11.013-4.156c-14.562-6-29.938-9.972-45.153-14.778
						c-7.736-1.942-15.552-3.699-23.367-5.57c-3.922-0.87-7.805-1.966-11.777-2.656c-3.976-0.668-7.96-1.336-11.949-2.008
						c-3.99-0.67-7.987-1.341-11.991-2.016c-4.002-0.69-8.008-1.402-12.061-1.702c-8.084-0.817-16.195-1.637-24.333-2.459
						c-4.047-0.531-8.196-0.544-12.325-0.705c-4.133-0.142-8.272-0.283-12.418-0.423c-4.145-0.142-8.298-0.283-12.456-0.425
						c-3.973-0.01-8.236,0.248-12.349,0.359c-33.239,0.301-66.707,5.097-99.859,12.326c-33.253,7.065-65.878,18.425-97.552,32.442
						l-11.868,5.347l-5.944,2.677l-5.783,3.031c-7.712,4.044-15.441,8.099-23.188,12.16c-15.001,9.002-30.312,17.664-44.679,27.942
						c-7.293,4.966-14.664,9.852-21.577,15.41c-6.999,5.433-14.132,10.718-21.055,16.295c-6.757,5.782-13.527,11.575-20.31,17.38
						l-5.074,4.369l-4.864,4.616l-9.738,9.245l-9.755,9.255c-3.195,3.149-6.224,6.473-9.347,9.704
						c-6.152,6.556-12.535,12.913-18.524,19.654c-5.9,6.823-11.81,13.654-17.729,20.5c-3.021,3.367-5.831,6.919-8.605,10.505
						l-8.404,10.697l-8.416,10.71c-2.771,3.602-5.319,7.376-7.993,11.057c-5.255,7.432-10.659,14.775-15.812,22.306
						c-9.886,15.35-20.149,30.512-29.151,46.521c-9.6,15.645-17.889,32.09-26.6,48.33c-4.152,8.226-8.01,16.614-12.036,24.926
						l-5.98,12.503l-5.467,12.757c-3.609,8.524-7.379,16.988-10.868,25.577c-3.303,8.662-6.609,17.335-9.918,26.014
						c-3.459,8.623-6.284,17.487-9.259,26.302l-4.445,13.234c-1.479,4.412-3.02,8.808-4.251,13.303
						c-5.168,17.907-10.783,35.705-15.037,53.913l-3.432,13.587l-1.717,6.797l-1.467,6.856l-5.804,27.466l-1.453,6.87l-1.199,6.919
						l-2.367,13.852l-2.37,13.855c-0.824,4.614-1.587,9.238-2.135,13.898c-2.433,18.595-5.272,37.157-6.729,55.888
						c-0.816,9.347-1.934,18.698-2.504,28.045l-1.575,28.038c-0.223,4.687-0.615,9.321-0.703,14.05l-0.25,14.196l-0.497,28.233
						c0.289,75.174,7.315,150.368,21.942,223.812l5.825,27.453l1.473,6.857l1.722,6.794l3.443,13.584
						c4.268,18.198,9.895,35.99,15.078,53.887c1.235,4.492,2.779,8.884,4.263,13.297l4.455,13.227
						c2.981,8.808,5.813,17.666,9.279,26.282c3.315,8.676,6.628,17.341,9.937,26.001c3.495,8.583,7.271,17.041,10.886,25.557
						l5.477,12.747l5.988,12.493c4.032,8.305,7.895,16.687,12.053,24.906c8.722,16.227,17.021,32.652,26.63,48.284
						c9.011,15.992,19.284,31.134,29.173,46.471c5.155,7.521,10.561,14.854,15.818,22.28c2.674,3.678,5.223,7.449,7.995,11.044
						l8.418,10.7l8.405,10.683c2.774,3.582,5.584,7.128,8.605,10.491c5.92,6.837,11.83,13.66,17.73,20.471
						c5.989,6.734,12.371,13.081,18.521,19.63c3.124,3.225,6.152,6.546,9.346,9.688l9.752,9.241l9.737,9.228l4.862,4.611
						l5.072,4.359c6.781,5.795,13.548,11.576,20.302,17.351c6.92,5.563,14.05,10.839,21.045,16.263
						c6.91,5.547,14.274,10.425,21.566,15.377c14.367,10.244,29.674,18.87,44.669,27.836c7.743,4.045,15.469,8.081,23.177,12.109
						l5.778,3.016l5.94,2.663l11.858,5.322c31.659,13.915,64.213,25.28,97.4,32.378c4.134,0.936,8.223,2.074,12.381,2.838
						c4.169,0.708,8.333,1.416,12.49,2.12c4.159,0.708,8.31,1.416,12.457,2.12l6.215,1.058l6.24,0.648
						c8.316,0.857,16.608,1.71,24.876,2.563c8.324,0.609,16.741,0.688,25.068,1.058c4.118,0.113,8.457,0.384,12.374,0.364
						c4.131-0.142,8.256-0.288,12.373-0.433c4.118-0.142,8.229-0.288,12.335-0.43c4.103-0.165,8.209-0.178,12.274-0.714
						c8.146-0.83,16.265-1.654,24.358-2.481c4.06-0.301,8.059-1.019,12.053-1.71c3.997-0.678,7.987-1.353,11.97-2.024
						c3.982-0.675,7.959-1.346,11.928-2.014c3.965-0.691,7.841-1.793,11.755-2.663c7.801-1.875,15.602-3.638,23.324-5.583
						c15.19-4.802,30.521-8.815,45.074-14.765c3.674-1.379,7.341-2.759,11.002-4.135l5.485-2.057
						c1.813-0.721,3.57-1.574,5.354-2.352c7.111-3.182,14.194-6.351,21.249-9.506c1.755-0.807,3.545-1.538,5.267-2.405l5.125-2.673
						c3.413-1.779,6.82-3.555,10.22-5.328c6.766-3.602,13.678-6.873,20.109-10.951c52.652-30.512,98.886-67.729,138.099-108.286
						c39.394-40.435,72.485-83.565,100.169-126.898c27.697-43.359,50.007-86.932,68.196-129.005
						c18.146-42.102,32.498-82.649,43.213-120.851c1.409-4.756,2.804-9.46,4.185-14.12c1.201-4.707,2.389-9.364,3.564-13.974
						c2.337-9.218,4.622-18.238,6.856-27.049c1.902-8.894,3.759-17.58,5.571-26.057c0.907-4.237,1.802-8.421,2.686-12.552
						c0.832-4.141,1.464-8.266,2.193-12.317c2.758-16.227,5.718-31.528,7.401-46.101c1.898-14.54,3.98-28.128,4.955-40.885
						c1.116-12.731,2.522-24.512,3.146-35.302c0.604-10.789,1.154-20.59,1.646-29.368c0.623-8.739,0.649-16.607,0.772-23.371
						c0.118-6.767,0.217-12.46,0.297-17.044c0.16-9.169,0.242-13.902,0.242-13.902L2068.567,1522.906z"/>
				</g>
				<g>
					<path style="fill:#FFFFFF;" d="M631.585,1176.314c0,0,25.137-0.258,69.127-0.711c43.99-0.327,106.832-0.791,182.243-1.346
						c75.411-0.328,163.391-0.708,257.655-1.115c94.264-0.142,194.812-0.291,295.36-0.44c100.548,0.179,201.096,0.357,295.36,0.523
						c47.132,0.185,92.693,0.364,135.897,0.536c43.204,0.235,84.052,0.46,121.757,0.665c75.411,0.337,138.253,1.131,182.244,1.445
						c43.99,0.483,69.126,0.761,69.126,0.761c0.358,0.003,0.646,0.298,0.642,0.655c-0.004,0.354-0.29,0.638-0.642,0.642
						c0,0-25.137,0.278-69.126,0.764c-43.991,0.314-106.833,1.105-182.244,1.442c-37.705,0.208-78.553,0.43-121.757,0.668
						c-43.204,0.169-88.765,0.347-135.897,0.532c-94.264,0.169-194.812,0.347-295.36,0.523
						c-100.548-0.149-201.096-0.298-295.36-0.437c-94.264-0.41-182.243-0.791-257.655-1.115
						c-75.411-0.559-138.253-1.022-182.243-1.346c-43.99-0.453-69.127-0.714-69.127-0.714c-0.533-0.003-0.962-0.443-0.956-0.976
						C630.635,1176.744,631.062,1176.321,631.585,1176.314z"/>
				</g>
				<g>
					<path style="fill:#FFFFFF;" d="M864.88,839.496c0,0,17.847-0.258,49.078-0.711c31.231-0.327,75.847-0.791,129.387-1.346
						c26.771-0.185,55.771-0.384,86.445-0.595c30.674-0.182,63.021-0.523,96.483-0.519c66.924-0.142,138.311-0.291,209.697-0.44
						c71.386,0.179,142.772,0.357,209.697,0.523c33.463,0.03,65.809,0.278,96.483,0.536c30.673,0.235,59.674,0.46,86.444,0.665
						c53.539,0.337,98.156,1.131,129.387,1.445c31.232,0.483,49.078,0.761,49.078,0.761c0.359,0.007,0.644,0.301,0.639,0.658
						c-0.006,0.351-0.29,0.635-0.639,0.638c0,0-17.846,0.278-49.078,0.764c-31.232,0.314-75.848,1.105-129.387,1.442
						c-26.77,0.208-55.77,0.43-86.444,0.668c-30.674,0.258-63.021,0.503-96.483,0.533c-66.924,0.169-138.31,0.344-209.697,0.523
						c-71.386-0.149-142.772-0.298-209.697-0.437c-33.463,0-65.81-0.341-96.483-0.519c-30.673-0.212-59.674-0.413-86.445-0.595
						c-53.539-0.559-98.156-1.022-129.387-1.346c-31.232-0.453-49.078-0.714-49.078-0.714c-0.533-0.007-0.96-0.447-0.952-0.979
						C863.936,839.926,864.36,839.506,864.88,839.496z"/>
				</g>
				<g>
					<path style="fill:#FFFFFF;" d="M561.702,1513.133c0,0,27.321-0.258,75.133-0.711c47.811-0.328,116.113-0.791,198.076-1.346
						c81.963-0.327,177.586-0.708,280.039-1.115c102.453-0.142,211.737-0.291,321.02-0.44c109.283,0.179,218.567,0.357,321.02,0.523
						c51.227,0.185,100.746,0.364,147.703,0.536c46.958,0.235,91.354,0.46,132.335,0.665c81.963,0.599,150.265,1.095,198.076,1.445
						c47.812,0.483,75.132,0.761,75.132,0.761c0.359,0.003,0.646,0.298,0.642,0.655c-0.004,0.354-0.29,0.638-0.642,0.642
						c0,0-27.321,0.278-75.132,0.764c-47.812,0.347-116.114,0.847-198.076,1.442c-40.982,0.208-85.377,0.43-132.335,0.668
						c-46.957,0.169-96.476,0.347-147.703,0.532c-102.453,0.169-211.737,0.347-321.02,0.523
						c-109.283-0.149-218.567-0.298-321.02-0.437c-102.453-0.41-198.076-0.791-280.039-1.115
						c-81.962-0.559-150.265-1.022-198.076-1.346c-47.812-0.453-75.133-0.714-75.133-0.714c-0.533-0.003-0.962-0.44-0.957-0.976
						C560.75,1513.563,561.178,1513.139,561.702,1513.133z"/>
				</g>
				<g>
					<path style="fill:#FFFFFF;" d="M631.585,1849.951c0,0,25.137-0.258,69.127-0.711c43.99-0.328,106.832-0.791,182.243-1.346
						c75.411-0.327,163.391-0.708,257.655-1.115c94.264-0.142,194.812-0.291,295.36-0.44c100.548,0.179,201.096,0.357,295.36,0.523
						c47.132,0.185,92.693,0.364,135.897,0.536c43.204,0.235,84.052,0.46,121.757,0.665c75.411,0.337,138.253,1.131,182.244,1.445
						c43.99,0.483,69.126,0.761,69.126,0.761c0.358,0.003,0.646,0.298,0.642,0.655c-0.004,0.354-0.29,0.638-0.642,0.642
						c0,0-25.137,0.278-69.126,0.764c-43.991,0.314-106.833,1.105-182.244,1.442c-37.705,0.208-78.553,0.43-121.757,0.668
						c-43.204,0.169-88.765,0.347-135.897,0.532c-94.264,0.169-194.812,0.347-295.36,0.523
						c-100.548-0.149-201.096-0.298-295.36-0.437c-94.264-0.41-182.243-0.791-257.655-1.115
						c-75.411-0.559-138.253-1.022-182.243-1.346c-43.99-0.453-69.127-0.714-69.127-0.714c-0.533-0.003-0.962-0.443-0.956-0.976
						C630.635,1850.381,631.062,1849.958,631.585,1849.951z"/>
				</g>
				<path style="fill:#FFFFFF;" d="M2035.833,2191.122H893.654c-1.872,0-3.387-1.515-3.387-3.387c0-1.872,1.515-3.387,3.387-3.387
					h1142.179c1.872,0,3.387,1.515,3.387,3.387C2039.22,2189.608,2037.705,2191.122,2035.833,2191.122z"/>
			</g>
		</g>
		<g>
			
				<linearGradient id="SVGID_00000059276309927780318350000008020710293049437057_" gradientUnits="userSpaceOnUse" x1="701.4948" y1="2261.5803" x2="3249.8743" y2="2261.5803">
				<stop  offset="0" style="stop-color:#09005D"/>
				<stop  offset="1" style="stop-color:#1A0F91"/>
			</linearGradient>
			<path style="fill:url(#SVGID_00000059276309927780318350000008020710293049437057_);" d="M701.495,1592.612v1252.721
				c0,103.052,74.094,187.326,167.043,189.982c412.831,11.799,1856.715,40.408,2249.703,33.987
				c67.544-1.104,122.261-61.011,124.21-135.849c7.578-291.024,19.885-990.839-25.66-1315.736
				c-9.591-68.42-61.699-119.583-124.14-121.797c-345.9-12.264-1876.512-51.208-2269.316-41.43
				C755.589,1456.176,701.495,1517.509,701.495,1592.612z"/>
			
				<linearGradient id="SVGID_00000037662591588589515930000001105317617941865634_" gradientUnits="userSpaceOnUse" x1="2026.5315" y1="1615.5566" x2="1850.4119" y2="3315.7976">
				<stop  offset="0" style="stop-color:#4F52FF"/>
				<stop  offset="1" style="stop-color:#4042E2"/>
			</linearGradient>
			<path style="fill:url(#SVGID_00000037662591588589515930000001105317617941865634_);" d="M772.416,1586.514v1190.17
				c0,60.168,43.578,109.194,97.859,110.094l2191.429,30.007c53.815,0.892,97.928-47.095,98.128-106.747l3.666-1179.537
				c0.143-42.652-30.516-77.6-68.988-78.638l-2243.617-50.237C807.863,1500.466,772.416,1538.81,772.416,1586.514z"/>
			<path style="opacity:0.12;fill:#FFFFFF;" d="M853.188,1627.098v1077.98c0,54.497,40.93,98.901,91.914,99.716l2058.316,27.179
				c50.547,0.808,91.98-42.656,92.168-96.685l3.443-1068.349c0.135-38.632-28.662-70.285-64.798-71.225l-2107.334-45.502
				C886.482,1549.161,853.188,1583.89,853.188,1627.098z"/>
			<path style="opacity:0.65;fill:#FFFFFF;" d="M3176.33,2965.241c-0.02,0-0.039,0-0.06,0l-2403.913-45.398
				c-1.68-0.033-3.018-1.421-2.987-3.103c0.033-1.68,1.391-2.905,3.103-2.987l2403.913,45.398c1.68,0.032,3.018,1.421,2.987,3.103
				C3179.342,2963.915,3177.985,2965.241,3176.33,2965.241z"/>
		</g>
		<g>
			<path style="fill:#BDD0FB;" d="M1220.243,2384.659c-73.068-0.787-134.896-58.928-140.761-132.362l-13.348-166.81
				c-3.179-39.783,9.896-78.766,35.874-106.95c24.865-26.983,58.854-41.877,95.711-41.947l1302.38-2.394
				c40.785,0,76.406,16.293,100.573,45.882c24.727,30.274,34.059,71.433,25.605,112.93l-35.649,174.953
				c-14.818,72.717-85.642,129.686-161.227,129.686C2429.396,2397.648,1220.243,2384.659,1220.243,2384.659z"/>
			<path style="fill:#91B3FA;" d="M2500.16,1968.066l-1302.379,2.394c-59.075,0.109-102.76,51.325-97.886,112.325l13.348,166.816
				c4.468,55.921,52.416,100.599,107.363,101.191l1207.528,12.979c59.648,0.641,117.399-44.14,129.306-102.574l35.648-174.952
				C2606.133,2022.229,2564.699,1967.947,2500.16,1968.066z"/>
			<g>
				<g>
					<path style="fill:#FFFFFF;" d="M1500.166,2088.315l-60.108,183.635h-0.236c-2.84,8.993-9.939,15.384-17.748,17.275h-0.237
						c-0.236,0-0.709,0.238-0.947,0.238h-0.473c-0.236,0-0.473,0.235-0.709,0.235h-0.473h-0.711h-0.473h-0.71h-0.473h-0.71h-0.475
						h-0.473h-0.71h-0.473c-0.236,0-0.473-0.235-0.711-0.235h-0.473c-0.236,0-0.71-0.238-0.946-0.238h-0.236
						c-7.809-1.892-14.909-8.282-17.985-17.275l-37.863-115.718l-37.863,115.718c-2.84,8.993-9.939,15.384-17.748,17.275h-0.237
						c-0.475,0-0.711,0.238-0.947,0.238h-0.473c-0.237,0-0.473,0.235-0.71,0.235h-0.475h-0.71h-0.473h-0.71h-0.473h-0.711h-0.473
						h-0.709h-0.473h-0.475c-0.236,0-0.473-0.235-0.709-0.235h-0.473c-0.473,0-0.709-0.238-0.946-0.238h-0.237
						c-8.047-1.892-14.909-8.282-17.986-17.275l-60.107-183.635v-0.473c-0.948-2.841-1.42-5.917-1.42-8.755
						c0-10.885,6.39-21.063,16.328-24.612c2.366-0.946,4.97-1.184,7.336-1.184c10.176,0,19.878,7.098,23.193,18.221
						c0.236,0.473,20.824,63.184,37.863,115.245c17.037-52.061,37.625-114.772,37.625-115.245
						c2.605-8.044,8.047-13.726,14.673-16.564l0.236-0.238c0.236,0,0.474-0.235,0.711-0.235h0.236c0.236,0,0.236-0.238,0.473-0.238
						h0.473c0.237-0.235,0.473-0.235,0.709-0.235l0.238-0.238c0.473,0,0.709,0,0.946-0.235h0.236c0.473,0,0.71,0,0.946-0.238h0.236
						h0.948h0.236c0.473,0,0.71,0,0.946-0.238h0.473h0.474h0.709h0.473c0.236,0.238,0.473,0.238,0.709,0.238h0.475h0.946
						c0.473,0.238,0.71,0.238,1.182,0.238c0.475,0.235,0.711,0.235,0.948,0.235c0.237,0,0.237,0,0.237,0.238
						c0.473,0,0.709,0,0.946,0.235h0.473c0,0,0.238,0.238,0.474,0.238h0.237c0.236,0,0.473,0.235,0.709,0.235l0.237,0.238
						c6.627,2.838,12.069,8.52,14.672,16.564c0,0.473,20.588,63.184,37.627,115.245c17.039-52.061,37.627-114.772,37.627-115.245
						c3.549-11.124,13.252-18.221,23.427-18.221c2.367,0,4.97,0.238,7.336,1.184c9.939,3.549,16.328,13.726,16.328,24.612
						c0,2.838-0.473,5.914-1.419,8.755V2088.315z"/>
					<path style="fill:#FFFFFF;" d="M1803.328,2088.315l-60.108,183.635h-0.236c-2.84,8.993-9.939,15.384-17.748,17.275h-0.237
						c-0.236,0-0.709,0.238-0.948,0.238h-0.473c-0.236,0-0.473,0.235-0.71,0.235h-0.473h-0.71h-0.474h-0.71h-0.473h-0.709h-0.475
						h-0.473h-0.71h-0.473c-0.237,0-0.473-0.235-0.711-0.235h-0.473c-0.237,0-0.71-0.238-0.946-0.238h-0.237
						c-7.809-1.892-14.909-8.282-17.985-17.275l-37.863-115.718l-37.863,115.718c-2.839,8.993-9.939,15.384-17.749,17.275h-0.236
						c-0.474,0-0.711,0.238-0.948,0.238h-0.473c-0.236,0-0.473,0.235-0.71,0.235h-0.473h-0.711h-0.473h-0.71h-0.473h-0.711h-0.473
						h-0.71h-0.473h-0.474c-0.237,0-0.473-0.235-0.709-0.235h-0.473c-0.473,0-0.709-0.238-0.946-0.238h-0.238
						c-8.046-1.892-14.907-8.282-17.984-17.275l-60.107-183.635v-0.473c-0.948-2.841-1.42-5.917-1.42-8.755
						c0-10.885,6.39-21.063,16.328-24.612c2.367-0.946,4.969-1.184,7.336-1.184c10.176,0,19.878,7.098,23.193,18.221
						c0.237,0.473,20.825,63.184,37.863,115.245c17.037-52.061,37.625-114.772,37.625-115.245
						c2.603-8.044,8.047-13.726,14.672-16.564l0.237-0.238c0.236,0,0.474-0.235,0.711-0.235h0.237c0.236,0,0.236-0.238,0.473-0.238
						h0.473c0.236-0.235,0.473-0.235,0.709-0.235l0.237-0.238c0.474,0,0.711,0,0.947-0.235h0.237c0.473,0,0.709,0,0.946-0.238h0.236
						h0.948h0.237c0.473,0,0.71,0,0.946-0.238h0.473h0.475h0.709h0.473c0.236,0.238,0.473,0.238,0.709,0.238h0.475h0.946
						c0.473,0.238,0.71,0.238,1.182,0.238c0.475,0.235,0.711,0.235,0.948,0.235s0.236,0,0.236,0.238c0.473,0,0.709,0,0.946,0.235
						h0.473c0,0,0.238,0.238,0.474,0.238h0.236c0.237,0,0.473,0.235,0.71,0.235l0.236,0.238c6.627,2.838,12.069,8.52,14.672,16.564
						c0,0.473,20.588,63.184,37.627,115.245c17.039-52.061,37.627-114.772,37.627-115.245c3.549-11.124,13.252-18.221,23.427-18.221
						c2.367,0,4.97,0.238,7.336,1.184c9.939,3.549,16.328,13.726,16.328,24.612c0,2.838-0.473,5.914-1.419,8.755V2088.315z"/>
					<path style="fill:#FFFFFF;" d="M2106.491,2088.315l-60.108,183.635h-0.236c-2.84,8.993-9.939,15.384-17.749,17.275h-0.236
						c-0.236,0-0.71,0.238-0.948,0.238h-0.473c-0.237,0-0.473,0.235-0.709,0.235h-0.473h-0.711h-0.473h-0.709h-0.473h-0.71h-0.475
						h-0.473h-0.71h-0.473c-0.236,0-0.473-0.235-0.711-0.235h-0.473c-0.236,0-0.709-0.238-0.946-0.238h-0.236
						c-7.809-1.892-14.909-8.282-17.985-17.275l-37.863-115.718l-37.863,115.718c-2.84,8.993-9.939,15.384-17.749,17.275h-0.236
						c-0.474,0-0.711,0.238-0.948,0.238h-0.473c-0.237,0-0.473,0.235-0.71,0.235h-0.475h-0.709h-0.473h-0.709h-0.473h-0.711h-0.473
						h-0.709h-0.473h-0.475c-0.236,0-0.473-0.235-0.709-0.235h-0.473c-0.473,0-0.71-0.238-0.946-0.238h-0.236
						c-8.047-1.892-14.909-8.282-17.986-17.275l-60.107-183.635v-0.473c-0.948-2.841-1.421-5.917-1.421-8.755
						c0-10.885,6.391-21.063,16.328-24.612c2.367-0.946,4.97-1.184,7.336-1.184c10.175,0,19.878,7.098,23.192,18.221
						c0.236,0.473,20.824,63.184,37.863,115.245c17.037-52.061,37.625-114.772,37.625-115.245
						c2.604-8.044,8.047-13.726,14.672-16.564l0.236-0.238c0.237,0,0.475-0.235,0.711-0.235h0.236c0.237,0,0.237-0.238,0.473-0.238
						h0.473c0.237-0.235,0.473-0.235,0.71-0.235l0.238-0.238c0.473,0,0.709,0,0.946-0.235h0.236c0.473,0,0.709,0,0.946-0.238h0.237
						h0.947h0.237c0.473,0,0.709,0,0.946-0.238h0.473h0.475h0.709h0.473c0.236,0.238,0.473,0.238,0.709,0.238h0.475h0.946
						c0.473,0.238,0.71,0.238,1.182,0.238c0.474,0.235,0.711,0.235,0.948,0.235c0.236,0,0.236,0,0.236,0.238
						c0.473,0,0.709,0,0.946,0.235h0.473c0,0,0.238,0.238,0.474,0.238h0.236c0.236,0,0.473,0.235,0.71,0.235l0.236,0.238
						c6.627,2.838,12.069,8.52,14.672,16.564c0,0.473,20.588,63.184,37.627,115.245c17.039-52.061,37.627-114.772,37.627-115.245
						c3.549-11.124,13.252-18.221,23.427-18.221c2.366,0,4.97,0.238,7.336,1.184c9.939,3.549,16.328,13.726,16.328,24.612
						c0,2.838-0.473,5.914-1.419,8.755V2088.315z"/>
				</g>
				<path style="fill:#FFFFFF;" d="M2170.848,2293.329c0,5.612-4.549,10.161-10.161,10.161l0,0c-5.612,0-10.161-4.549-10.161-10.161
					v-281.116c0-5.612,4.549-10.161,10.161-10.161l0,0c5.612,0,10.161,4.549,10.161,10.161V2293.329z"/>
			</g>
			<path style="fill:#FFFFFF;" d="M2708.144,2527.285l-151.562-184.906c-1.198-1.461-1.559-3.434-0.957-5.225
				c0.602-1.789,2.083-3.145,3.919-3.587l133.87-32.127c5.437-1.305,9.565-5.74,10.479-11.255
				c0.913-5.518-1.566-11.047-6.293-14.035l-381.96-241.396c-4.633-2.929-10.554-2.865-15.122,0.167
				c-4.568,3.028-6.931,8.458-6.036,13.864l79.413,479.533c0.954,5.764,5.406,10.315,11.144,11.398
				c5.739,1.083,11.544-1.533,14.533-6.551l74.102-124.386c0.927-1.557,2.562-2.555,4.37-2.667c1.808-0.113,3.555,0.675,4.668,2.102
				l141.15,181.04c8.087,10.376,22.838,12.689,33.715,5.294l45.299-30.802c5.794-3.941,9.665-10.135,10.667-17.07
				C2714.545,2539.739,2712.586,2532.705,2708.144,2527.285z"/>
		</g>
		<g>
			<g>
				<rect x="1057.678" y="2899.132" style="fill:#7D97F4;" width="26.732" height="289.087"/>
				<path style="fill:#7D97F4;" d="M1188.109,3193.792h-234.13v-9.052c0-4.611,3.738-8.349,8.349-8.349h216.783
					c4.97,0,8.999,4.029,8.999,8.999V3193.792z"/>
				<path style="fill:#7D97F4;" d="M1232.385,2888.469c0,16.803-13.748,30.551-30.552,30.551H950.087
					c-16.803,0-30.552-13.748-30.552-30.551v-27.625c0-16.803,13.749-30.551,30.552-30.551h251.745
					c16.804,0,30.552,13.748,30.552,30.551V2888.469z"/>
			</g>
			<g>
				
					<linearGradient id="SVGID_00000178886601246278534050000007634602924064127633_" gradientUnits="userSpaceOnUse" x1="832.6764" y1="3203.8147" x2="898.157" y2="3393.4832">
					<stop  offset="0" style="stop-color:#09005D"/>
					<stop  offset="1" style="stop-color:#1A0F91"/>
				</linearGradient>
				<path style="fill:url(#SVGID_00000178886601246278534050000007634602924064127633_);" d="M834.079,3100.426
					c0,0-86.42,37.223-81.469,76.178c0,0,89.333-17.132,105.32-42.666c15.987-25.533,7.178-40.324,7.178-40.324L834.079,3100.426z"
					/>
				
					<linearGradient id="SVGID_00000031180618786118408030000003837331332828854972_" gradientUnits="userSpaceOnUse" x1="1858.4935" y1="3278.1282" x2="1905.5004" y2="3278.1282" gradientTransform="matrix(-0.9764 -0.2161 -0.2161 0.9764 3385.2073 288.5267)">
					<stop  offset="0" style="stop-color:#FEBBBA"/>
					<stop  offset="1" style="stop-color:#FF928E"/>
				</linearGradient>
				<path style="fill:url(#SVGID_00000031180618786118408030000003837331332828854972_);" d="M855.245,3057.884l4.388,37.928
					c0.662,5.723-2.517,11.37-7.938,13.323c-2.715,0.977-6.278,1.648-10.95,1.672c-6.593,0.033-12.431-4.301-14.192-10.654
					l-8.501-30.677L855.245,3057.884z"/>
				
					<linearGradient id="SVGID_00000040573557892406090270000011104515919765893257_" gradientUnits="userSpaceOnUse" x1="771.8457" y1="2920.2366" x2="1060.3682" y2="2920.2366">
					<stop  offset="0" style="stop-color:#E1473D"/>
					<stop  offset="1" style="stop-color:#E9605A"/>
				</linearGradient>
				<path style="fill:url(#SVGID_00000040573557892406090270000011104515919765893257_);" d="M1044.035,2767.031
					c0,0-158.953-7.355-238.047,38.77s4.01,267.502,4.01,267.502s20.662,4.441,50.411-11.457c0,0-42.457-162.058,31.291-190.252
					c82.911-31.697,168.668-23.985,168.668-23.985l-15.888-75.572L1044.035,2767.031z"/>
				
					<linearGradient id="SVGID_00000072272584840029295980000016187396549560261819_" gradientUnits="userSpaceOnUse" x1="863.9376" y1="2644.448" x2="832.3262" y2="2917.6611">
					<stop  offset="0" style="stop-color:#09005D"/>
					<stop  offset="1" style="stop-color:#1A0F91"/>
				</linearGradient>
				<path style="fill:url(#SVGID_00000072272584840029295980000016187396549560261819_);" d="M769.978,3159.51
					c18.072-3.96,71.671-26.168,79.811-25.87c8.14,0.298,19.674,12.495,19.674,12.495s1.986,6.667-3.835,16.239
					c-13.811,10.769-43.559,30.54-78.145,32.705c-25.441,1.593-40.749-8.53-49.505-18.35
					C745.642,3169.268,757.943,3162.148,769.978,3159.51z"/>
				
					<linearGradient id="SVGID_00000170269581362722633290000013209181665163051136_" gradientUnits="userSpaceOnUse" x1="1838.9756" y1="3381.3557" x2="1965.3789" y2="3381.3557" gradientTransform="matrix(-0.9764 -0.2161 -0.2161 0.9764 3385.2073 288.5267)">
					<stop  offset="0" style="stop-color:#4F52FF"/>
					<stop  offset="1" style="stop-color:#4042E2"/>
				</linearGradient>
				<path style="fill:url(#SVGID_00000170269581362722633290000013209181665163051136_);" d="M787.483,3195.079
					c34.587-2.165,64.335-21.936,78.145-32.705c-3.935,6.468-11.43,14.261-25.524,22.225
					c-34.951,19.748-92.719,16.868-104.171,12.424c-9.177-3.561-6.34-12.132,2.044-20.293
					C746.734,3186.549,762.042,3196.672,787.483,3195.079z"/>
				
					<linearGradient id="SVGID_00000146483092645992251980000003206070426547236235_" gradientUnits="userSpaceOnUse" x1="1824.5023" y1="3321.5095" x2="1868.6211" y2="3321.5095" gradientTransform="matrix(-0.9764 -0.2161 -0.2161 0.9764 3385.2073 288.5267)">
					<stop  offset="0" style="stop-color:#FEBBBA"/>
					<stop  offset="1" style="stop-color:#FF928E"/>
				</linearGradient>
				<path style="fill:url(#SVGID_00000146483092645992251980000003206070426547236235_);" d="M888.44,3126.283
					c-1.184,4.476-13.843,17.921-21.162,25.417c-3.478,3.562-8.528,5.091-13.392,4.028c-3.084-0.674-6.57-1.727-9.583-3.363
					c-4.525-2.457-6.098-8.204-3.617-12.715l18.511-33.663L888.44,3126.283z"/>
				
					<linearGradient id="SVGID_00000044152066258852676260000009413702774878659218_" gradientUnits="userSpaceOnUse" x1="846.0777" y1="2945.1665" x2="1203.8802" y2="2945.1665">
					<stop  offset="0" style="stop-color:#E1473D"/>
					<stop  offset="1" style="stop-color:#E9605A"/>
				</linearGradient>
				<path style="fill:url(#SVGID_00000044152066258852676260000009413702774878659218_);" d="M1201.561,2753.7
					c0,0,13.874,98.43-26.242,118.548c-40.116,20.119-128.107,33.29-158.413,84.341c-30.306,51.051-84.738,151.254-134.271,180.044
					c0,0-28.289-9.2-36.557-23.113c0,0,58.796-154.561,83.324-192.13c21.241-32.534,52.302-79.405,96.431-99.677
					c12.632-5.803,13.623-19.205,11.398-32.927l-4.05-24.989L1201.561,2753.7z"/>
				
					<linearGradient id="SVGID_00000056416238666471502370000000118265601476691599_" gradientUnits="userSpaceOnUse" x1="1194.4684" y1="1987.2283" x2="1011.5829" y2="2398.7202">
					<stop  offset="0" style="stop-color:#FF928E"/>
					<stop  offset="1" style="stop-color:#FE7062"/>
				</linearGradient>
				<path style="fill:url(#SVGID_00000056416238666471502370000000118265601476691599_);" d="M829.751,2642.121
					c56.242,16.055,81.415-142.23,81.19-146.079l86.231,100.823c0,0-51.38,90.409-128.965,100.032
					c-19.63,2.435-36.325-0.962-50.331-7.378C828.195,2672.62,830.553,2655.928,829.751,2642.121z"/>
				
					<linearGradient id="SVGID_00000091720312950861566120000010591933669800959626_" gradientUnits="userSpaceOnUse" x1="1983.2791" y1="2857.1443" x2="2137.177" y2="2857.1443" gradientTransform="matrix(-0.9764 -0.2161 -0.2161 0.9764 3385.2073 288.5267)">
					<stop  offset="0" style="stop-color:#FEBBBA"/>
					<stop  offset="1" style="stop-color:#FF928E"/>
				</linearGradient>
				<path style="fill:url(#SVGID_00000091720312950861566120000010591933669800959626_);" d="M725.599,2590.313
					c24.512-10.073,45.306,10.029,45.306,10.029c24.289,24.862,43.553,37.413,58.846,41.779
					c0.801,13.807-1.556,30.499-11.875,47.398c-30.304-13.882-47.969-41.948-55.245-55.953c-2.62-5.042-8.762-7.177-13.877-4.704
					c-5.197,2.512-10.55,6.345-10.886,11.551c-0.661,10.267-12.878,10.872-12.95,7.08c-0.071-3.792,9.461-24.069,9.461-24.069
					s-28.165,18.066-39.128,24.977c-10.964,6.911-20.301-4.494-20.301-4.494S701.087,2600.387,725.599,2590.313z"/>
				
					<linearGradient id="SVGID_00000057127454826193205350000008093928999215841949_" gradientUnits="userSpaceOnUse" x1="1317.9352" y1="2042.1046" x2="1135.0493" y2="2453.5977">
					<stop  offset="0" style="stop-color:#FF928E"/>
					<stop  offset="1" style="stop-color:#FE7062"/>
				</linearGradient>
				<path style="fill:url(#SVGID_00000057127454826193205350000008093928999215841949_);" d="M1179.894,2430.909
					c0,0-75.579-51.562-258.117,41.691c0,0-18.798,23.83-9.992,50.693c8.805,26.864,117.185,172.251,121.396,240.504
					c0,0,74.088,43.611,170.262,0.376C1203.444,2764.173,1235.696,2583.949,1179.894,2430.909z"/>
				
					<linearGradient id="SVGID_00000093888942499520303160000010904678999919562163_" gradientUnits="userSpaceOnUse" x1="1812.4401" y1="2580.395" x2="1914.5479" y2="2580.395" gradientTransform="matrix(-0.9764 -0.2161 -0.2161 0.9764 3385.2073 288.5267)">
					<stop  offset="0" style="stop-color:#FEBBBA"/>
					<stop  offset="1" style="stop-color:#FF928E"/>
				</linearGradient>
				<path style="fill:url(#SVGID_00000093888942499520303160000010904678999919562163_);" d="M1004.016,2350.155l48.365,73.359
					c2.966,5.811,2.346,12.844-1.724,17.942c-8.225,10.305-25.395,24.156-54.698,15.229c-8.717-2.656-15.387-9.747-17.489-18.614
					l-15.482-65.327L1004.016,2350.155z"/>
				
					<linearGradient id="SVGID_00000082343661186914542520000017210389022934513538_" gradientUnits="userSpaceOnUse" x1="1449.3827" y1="2100.5239" x2="1266.4974" y2="2512.0156">
					<stop  offset="0" style="stop-color:#FF928E"/>
					<stop  offset="1" style="stop-color:#FE7062"/>
				</linearGradient>
				<path style="fill:url(#SVGID_00000082343661186914542520000017210389022934513538_);" d="M1235.864,2635.28
					c5.115-35.577-88.896-104.532-88.896-104.532l32.927-99.838c0,0,179.395,128.022,141.668,232.572
					c-5.409,14.988-13.475,25.907-23.311,33.645C1279.254,2658.165,1253.491,2641.973,1235.864,2635.28z"/>
				
					<linearGradient id="SVGID_00000081643022801617973270000007214185648677742515_" gradientUnits="userSpaceOnUse" x1="1339.8334" y1="2288.7883" x2="1014.7032" y2="3045.7314">
					<stop  offset="0" style="stop-color:#FEBBBA"/>
					<stop  offset="1" style="stop-color:#FF928E"/>
				</linearGradient>
				<path style="fill:url(#SVGID_00000081643022801617973270000007214185648677742515_);" d="M1104.706,2645.152
					c0,0,106.347,29.702,128.41-2.669c1.496-2.196,2.375-4.615,2.747-7.203c17.628,6.693,43.391,22.885,62.388,61.846
					c-50.493,39.722-147.848-4.805-174.301-18.153c-4.352-2.196-9.355-2.624-14.008-1.173c-9.408,2.936-25.711,7.495-34.795,6.996
					c-13.289-0.73-27.552,47.293-50.169,35.136C1024.979,2719.932,1035.259,2637.884,1104.706,2645.152z"/>
				<g>
					
						<linearGradient id="SVGID_00000047764595551061377370000017384822120038711431_" gradientUnits="userSpaceOnUse" x1="28.0908" y1="154.9873" x2="-116.7669" y2="346.6223" gradientTransform="matrix(-0.9985 -0.0559 -0.0559 0.9985 959.921 2154.9912)">
						<stop  offset="0" style="stop-color:#FEBBBA"/>
						<stop  offset="1" style="stop-color:#FF928E"/>
					</linearGradient>
					<path style="fill:url(#SVGID_00000047764595551061377370000017384822120038711431_);" d="M893.629,2303.714
						c-0.07,1.251,21.945,77.424,33.189,116.233c3.433,11.848,16.416,18.041,27.795,13.277l8.718-3.65
						c11.915-4.988,32.736-20.359,33.898-33.223l-3.957-92.007C993.271,2304.344,895.205,2275.582,893.629,2303.714z"/>
					
						<linearGradient id="SVGID_00000038373185508406640490000006990210724692305329_" gradientUnits="userSpaceOnUse" x1="-64.664" y1="143.6709" x2="87.8112" y2="143.6709" gradientTransform="matrix(-0.9985 -0.0559 -0.0559 0.9985 959.921 2154.9912)">
						<stop  offset="0" style="stop-color:#09005D"/>
						<stop  offset="1" style="stop-color:#1A0F91"/>
					</linearGradient>
					<path style="fill:url(#SVGID_00000038373185508406640490000006990210724692305329_);" d="M992.585,2278.836
						c2.269-8.615,2.419-21.472-13.867-27.123c-16.552-5.744-27.705,3.788-33.523,11.251c-2.353,3.017-6.483,3.807-9.884,2.053
						c-1.936-0.999-4.332-1.172-7.032,0.857c-3.638,2.734-8.876,1.546-11.219-2.356c-4.5-7.494-13.007-15.199-28.365-11.164
						c-27.255,7.161-27.705,38.096-18.834,55.424c8.872,17.329,37.98,7.886,52.09-2.477c10.728-7.879,26.058-1.947,32.79,1.35
						c2.132,1.044,3.654,3.006,4.171,5.324l7.619,34.189c8.471,0.831,16.794,2.358,25.128,3.992
						c-0.135-2.542-0.196-4.711-0.153-6.317c0.315-11.339,13.503-19.27,19.278-22.205c1.893-0.962,3.296-2.643,3.908-4.677
						c2.165-7.188,4.578-23.597-16.254-28.41C994.08,2287.539,991.445,2283.164,992.585,2278.836z"/>
					
						<linearGradient id="SVGID_00000023269998427072720930000017667811793641144466_" gradientUnits="userSpaceOnUse" x1="-154.126" y1="286.6575" x2="-51.7448" y2="181.6172" gradientTransform="matrix(-0.9985 -0.0559 -0.0559 0.9985 959.921 2154.9912)">
						<stop  offset="0" style="stop-color:#FEBBBA"/>
						<stop  offset="1" style="stop-color:#FF928E"/>
					</linearGradient>
					<path style="fill:url(#SVGID_00000023269998427072720930000017667811793641144466_);" d="M995.767,2363.891
						c0,0-14.163-30.857-3.159-39.681c11.003-8.824,28.667-6.289,26.876,17.12C1017.256,2370.447,995.767,2363.891,995.767,2363.891
						z"/>
				</g>
			</g>
			<g>
				
					<linearGradient id="SVGID_00000065774021837118826960000000181680074069038783_" gradientUnits="userSpaceOnUse" x1="856.9366" y1="1824.4736" x2="852.4206" y2="2133.8152">
					<stop  offset="0" style="stop-color:#09005D"/>
					<stop  offset="1" style="stop-color:#1A0F91"/>
				</linearGradient>
				<path style="fill:url(#SVGID_00000065774021837118826960000000181680074069038783_);" d="M968.914,2712.864
					c-0.19,0.01-0.38,0.014-0.571,0.013l-248.448-0.271c-6.142-0.005-11.115-4.99-11.109-11.132
					c0.006-6.144,5.008-11.219,11.133-11.109l248.448,0.271c6.142,0.005,11.115,4.99,11.109,11.131
					C979.469,2707.718,974.791,2712.573,968.914,2712.864z"/>
				
					<linearGradient id="SVGID_00000122718484620931040540000012752852538404220083_" gradientUnits="userSpaceOnUse" x1="668.8784" y1="1821.7313" x2="664.3624" y2="2131.0713">
					<stop  offset="0" style="stop-color:#09005D"/>
					<stop  offset="1" style="stop-color:#1A0F91"/>
				</linearGradient>
				<path style="fill:url(#SVGID_00000122718484620931040540000012752852538404220083_);" d="M496.552,2487.289H703.46
					c15.264,0,29.157,8.808,35.668,22.614l95.654,202.828H577.649c-9.836,0-18.674-6.01-22.289-15.158l-74.175-187.688
					C476.899,2499.041,484.891,2487.289,496.552,2487.289z"/>
			</g>
			<g>
				<g>
					<path style="fill:#91B3FA;" d="M530.096,3245.736c-1.376,0-2.775-0.267-4.12-0.826c-5.296-2.206-7.743-8.151-5.465-13.279
						l218.961-492.791c2.277-5.126,8.415-7.493,13.716-5.291c5.296,2.206,7.743,8.152,5.465,13.279L539.692,3239.62
						C537.993,3243.445,534.142,3245.736,530.096,3245.736z"/>
					<path style="fill:#91B3FA;" d="M776.765,3245.736c-4.046,0-7.896-2.29-9.596-6.116l-218.961-492.791
						c-2.279-5.127,0.168-11.073,5.465-13.279c5.293-2.206,11.436,0.162,13.716,5.291l218.961,492.791
						c2.279,5.127-0.168,11.073-5.465,13.279C779.542,3245.47,778.142,3245.736,776.765,3245.736z"/>
					<path style="fill:#91B3FA;" d="M1207.875,3245.736c-1.376,0-2.775-0.267-4.12-0.826c-5.297-2.206-7.743-8.151-5.465-13.279
						l218.961-492.791c2.279-5.126,8.413-7.493,13.717-5.291c5.296,2.206,7.743,8.152,5.465,13.279l-218.961,492.791
						C1215.771,3243.445,1211.921,3245.736,1207.875,3245.736z"/>
					<path style="fill:#91B3FA;" d="M1454.542,3245.736c-4.046,0-7.896-2.29-9.595-6.116l-218.961-492.791
						c-2.279-5.127,0.168-11.073,5.464-13.279c5.293-2.206,11.436,0.162,13.717,5.291l218.961,492.791
						c2.279,5.127-0.168,11.073-5.465,13.279C1457.319,3245.47,1455.919,3245.736,1454.542,3245.736z"/>
				</g>
				<path style="fill:#91B3FA;" d="M1480.225,2723.626c0.558-3.232-0.202-6.574-2.073-9.114c-1.872-2.539-4.658-4.01-7.599-4.01
					H474.439c-3.867,0-7.467,2.207-9.551,5.854c-2.084,3.647-2.363,8.232-0.741,12.162l10.794,26.156
					c2.472,5.99,7.827,9.825,13.721,9.825h975.055c5.482,0,10.194-4.353,11.236-10.379L1480.225,2723.626z"/>
			</g>
		</g>
		<g>
			<path style="fill:#BDD0FB;" d="M2902.37,542.142l-222.349-11.568c-18.161-0.944-32.649,13.211-32.135,31.508l5.748,204.482
				c0.47,16.711,14.927,29.477,32.088,28.629l211.136-10.429c14.313-0.707,26.13-13.397,26.553-28.436l5.149-183.166
				C2929.019,556.849,2917.37,542.922,2902.37,542.142z"/>
			<g>
				<path style="fill:#FFFFFF;" d="M2784.494,745.898c-46.18,0-83.749-37.57-83.749-83.749c0-46.179,37.57-83.749,83.749-83.749
					c46.179,0,83.749,37.57,83.749,83.749C2868.242,708.328,2830.673,745.898,2784.494,745.898z M2784.494,592.435
					c-38.441,0-69.715,31.274-69.715,69.714c0,38.441,31.274,69.715,69.715,69.715c38.44,0,69.714-31.274,69.714-69.715
					C2854.208,623.709,2822.934,592.435,2784.494,592.435z"/>
				<path style="fill-rule:evenodd;clip-rule:evenodd;fill:#FFFFFF;" d="M2758.258,694.401v-60.209
					c0-6.434,7.003-10.421,12.536-7.138l50.734,30.105c5.419,3.215,5.419,11.06,0,14.276l-50.734,30.105
					C2765.26,704.823,2758.258,700.835,2758.258,694.401z"/>
			</g>
		</g>
		<g>
			<path style="fill:#91B3FA;" d="M724.695,2164.917l-186.019-9.678c-15.193-0.79-27.314,11.052-26.884,26.36l4.809,171.071
				c0.393,13.98,12.488,24.66,26.845,23.951l176.638-8.725c11.974-0.592,21.861-11.208,22.214-23.79l4.308-153.238
				C746.99,2177.221,737.244,2165.57,724.695,2164.917z"/>
			<g>
				<path style="fill:#FFFFFF;" d="M691.192,2323.812h-99.214c-3.761,0-7.071-2.481-8.127-6.093l-28.124-96.263l-28.524-4.965
					c-4.607-0.801-7.69-5.186-6.89-9.794s5.186-7.693,9.794-6.89l33.721,5.868c3.182,0.552,5.772,2.867,6.675,5.967l27.823,95.234
					h85.824l12.724-68.559c0.853-4.598,5.269-7.641,9.87-6.781c4.598,0.853,7.634,5.272,6.781,9.87l-14.008,75.482
					C698.773,2320.901,695.274,2323.812,691.192,2323.812z"/>
				<path style="fill:#FFFFFF;" d="M700.916,2245.912H568.826c-4.677,0-8.467-3.791-8.467-8.467c0-4.677,3.79-8.468,8.467-8.468
					h132.091c4.677,0,8.467,3.791,8.467,8.468C709.384,2242.122,705.593,2245.912,700.916,2245.912z"/>
				<g>
					<path style="fill:#FFFFFF;" d="M614.549,2311.958c-4.677,0-8.467-3.791-8.467-8.468v-64.352c0-4.677,3.79-8.467,8.467-8.467
						s8.467,3.791,8.467,8.467v64.352C623.017,2308.167,619.226,2311.958,614.549,2311.958z"/>
					<path style="fill:#FFFFFF;" d="M661.967,2311.958c-4.677,0-8.467-3.791-8.467-8.468v-64.352c0-4.677,3.79-8.467,8.467-8.467
						c4.677,0,8.467,3.791,8.467,8.467v64.352C670.434,2308.167,666.643,2311.958,661.967,2311.958z"/>
				</g>
				<path style="fill:#FFFFFF;" d="M694.142,2279.781H582.373c-4.677,0-8.467-3.791-8.467-8.467c0-4.677,3.79-8.468,8.467-8.468
					h111.769c4.677,0,8.467,3.791,8.467,8.468C702.61,2275.991,698.819,2279.781,694.142,2279.781z"/>
				<g>
					<path style="fill:#FFFFFF;" d="M619.81,2340.686c0,6.477-5.251,11.727-11.728,11.727c-6.477,0-11.727-5.25-11.727-11.727
						s5.251-11.727,11.727-11.727C614.559,2328.958,619.81,2334.209,619.81,2340.686z"/>
					<path style="fill:#FFFFFF;" d="M691.29,2340.686c0,6.477-5.25,11.727-11.727,11.727c-6.477,0-11.728-5.25-11.728-11.727
						s5.251-11.727,11.728-11.727C686.039,2328.958,691.29,2334.209,691.29,2340.686z"/>
				</g>
			</g>
		</g>
		<g>
			<path style="fill:#91B3FA;" d="M3118.628,2106.991l-187.319-9.746c-15.299-0.796-27.505,11.13-27.072,26.544l4.843,172.266
				c0.396,14.078,12.575,24.833,27.032,24.118l177.872-8.786c12.057-0.595,22.013-11.286,22.37-23.956l4.338-154.309
				C3141.078,2119.382,3131.265,2107.648,3118.628,2106.991z"/>
			<g>
				<path style="fill:#FFFFFF;" d="M3088.602,2273.008h-131.879c-11.262,0-20.427-9.165-20.427-20.427v-94.623
					c0-11.262,9.165-20.427,20.427-20.427h131.879c11.262,0,20.427,9.165,20.427,20.427v94.623
					C3109.03,2263.842,3099.865,2273.008,3088.602,2273.008z M2956.723,2154.465c-1.925,0-3.493,1.568-3.493,3.493v94.623
					c0,1.925,1.568,3.493,3.493,3.493h131.879c1.925,0,3.493-1.568,3.493-3.493v-94.623c0-1.925-1.568-3.493-3.493-3.493H2956.723z"
					/>
				<path style="fill:#FFFFFF;" d="M3021.419,2214.434c-1.717,0-3.43-0.519-4.898-1.561l-73.537-52.15
					c-3.814-2.706-4.713-7.991-2.008-11.805c2.709-3.813,7.991-4.713,11.805-2.008l68.635,48.674l67.725-48.105
					c3.807-2.709,9.099-1.813,11.805,2.001c2.709,3.81,1.813,9.096-2.001,11.805l-72.624,51.585
					C3024.856,2213.912,3023.136,2214.434,3021.419,2214.434z"/>
				<path style="fill:#FFFFFF;" d="M2949.208,2273.997l-2.51-16.746l1.184,8.385l-7.131-4.561
					c1.505-2.438,27.936-48.667,45.337-79.146c2.319-4.065,7.498-5.477,11.55-3.156c4.062,2.319,5.474,7.488,3.156,11.55
					c0,0-11.345,19.875-22.713,39.75c-5.686,9.942-11.378,19.885-15.658,27.344
					C2953.27,2273.355,2953.27,2273.355,2949.208,2273.997z"/>
				<path style="fill:#FFFFFF;" d="M3093.137,2273.987c-4.025-0.668-4.025-0.668-13.154-16.574
					c-4.283-7.458-9.972-17.398-15.658-27.34c-11.368-19.878-22.713-39.75-22.713-39.75c-2.319-4.062-0.906-9.231,3.155-11.55
					c4.049-2.325,9.231-0.913,11.55,3.156c17.395,30.469,43.819,76.689,45.333,79.143l-7.128,4.564L3093.137,2273.987z"/>
			</g>
		</g>
		<g>
			<path style="fill:#91B3FA;" d="M3155.163,794.356l-187.319-9.745c-15.3-0.796-27.505,11.129-27.072,26.544l4.843,172.266
				c0.396,14.078,12.575,24.833,27.032,24.118l177.872-8.786c12.058-0.596,22.014-11.286,22.37-23.956l4.338-154.309
				C3177.613,806.747,3167.799,795.014,3155.163,794.356z"/>
			<path style="fill:#FFFFFF;" d="M3072.4,826.636c-3.111-1.106-6.374,1.229-6.374,4.53v6.763v13.261v65.926
				c-6.515-5.361-15.613-8.702-25.697-8.702c-19.804,0-35.858,12.843-35.858,28.686c0,15.843,16.054,28.687,35.858,28.687
				c19.804,0,35.859-12.844,35.859-28.687c0-0.137-0.024-0.271-0.026-0.408h0.026v-85.446c14.205,2.152,23.856,12.939,29.505,21.75
				c2.372,3.699,8.061,1.829,7.828-2.56C3112.109,843.809,3085.023,831.121,3072.4,826.636z"/>
		</g>
		<g>
			<path style="fill:#FFFFFF;" d="M898.503,1371.812c-12.217,18.775-37.435,24.111-56.21,11.895
				c-18.774-12.216-24.111-37.435-11.895-56.21c12.217-18.775,37.435-24.11,56.209-11.894
				C905.382,1327.82,910.719,1353.037,898.503,1371.812z M843.915,1336.292c-7.369,11.324-4.151,26.532,7.173,33.9
				c11.324,7.369,26.531,4.15,33.9-7.175c7.368-11.324,4.151-26.531-7.173-33.899S851.283,1324.968,843.915,1336.292z"/>
			<g>
				<path style="fill:#FFFFFF;" d="M791.807,1302.386c26.065-40.057,79.856-51.44,119.913-25.375
					c2.483,1.615,4.844,3.345,7.095,5.171c3.03,2.456,7.533,1.495,9.153-2.053l5.301-11.599c1.157-2.533,0.369-5.506-1.847-7.194
					c-2.098-1.599-4.266-3.135-6.512-4.597c-51.233-33.337-120.04-18.776-153.377,32.456c-2.526,3.882-4.761,7.868-6.731,11.93
					c-1.475,3.043-0.146,6.703,2.955,8.045l11.414,4.939c2.887,1.249,6.233,0.01,7.611-2.816
					C788.26,1308.261,789.921,1305.284,791.807,1302.386z"/>
				<path style="fill:#FFFFFF;" d="M739.435,1268.308c44.856-68.935,137.427-88.523,206.362-43.667l0.058,0.038
					c3.016,1.964,7.061,0.852,8.557-2.42l5.2-11.38c-0.82-2.838-1.348-4.665-2.168-7.504
					c-79.944-50.841-186.487-27.855-238.281,51.743c-4.521,6.948-8.445,14.111-11.837,21.422c-1.38,2.973,0.038,6.502,3.047,7.804
					l11.386,4.925c2.898,1.254,6.304,0.02,7.638-2.843C732.282,1280.244,735.61,1274.187,739.435,1268.308z"/>
				<path style="fill:#FFFFFF;" d="M687.064,1234.23c61.989-95.266,188.197-124.069,285.096-66.697
					c3.042,1.803,6.964,0.646,8.435-2.57l5.159-11.291c1.253-2.741,0.255-6.028-2.346-7.55
					c-107.832-63.099-247.767-30.893-316.616,74.916c-6.467,9.939-12.036,20.203-16.811,30.682c-1.361,2.988,0.054,6.516,3.067,7.82
					l11.371,4.918c2.965,1.283,6.361-0.078,7.706-3.016C676.377,1252.15,681.327,1243.049,687.064,1234.23z"/>
			</g>
		</g>
		<g>
			<path style="fill:#91B3FA;" d="M2960.303,1843.347l-189.121-9.839c-15.446-0.803-27.769,11.237-27.332,26.799l4.889,173.924
				c0.4,14.213,12.696,25.072,27.292,24.351l179.584-8.871c12.174-0.601,22.226-11.394,22.585-24.186l4.38-155.793
				C2982.97,1855.857,2973.062,1844.011,2960.303,1843.347z"/>
			<path style="fill:#FFFFFF;" d="M2935.523,1863.188h-133.7c-12.384,0-28.1,9.003-28.1,21.779v74.363
				c0,12.256,15.845,22.401,28.1,22.401h91.968c3.168,0,5.249,5.88,5.249,9.048v10.987c0,4.525,4.328,6.2,6.559,6.946
				c1.063,0.749,2.786,1.868,5.021,1.868c1.852,0,3.632-0.793,4.818-2.186l20.007-23.356c12.498-0.271,17.785-13.453,17.785-25.709
				v-74.363C2953.231,1872.803,2947.685,1863.188,2935.523,1863.188z M2939.683,1959.33c0,5.75,0.479,12.24-4.16,12.24h-4.997
				l-24.712,23.493v-16.151c0-3.167,3.012-7.342-0.156-7.342h-103.835c-5.693,0-17.939-6.545-17.939-12.24v-71.299
				c0-8.307,12.19-7.908,17.939-7.908h133.7c5.657,0,4.16-0.813,4.16,4.844V1959.33z"/>
			<path style="fill:#FFFFFF;" d="M2926.135,1900.444c0,1.87-1.516,3.387-3.387,3.387h-121.93c-1.871,0-3.387-1.516-3.387-3.387l0,0
				c0-1.871,1.516-3.387,3.387-3.387h121.93C2924.619,1897.057,2926.135,1898.574,2926.135,1900.444L2926.135,1900.444z"/>
			<path style="fill:#FFFFFF;" d="M2926.135,1920.766c0,1.871-1.516,3.387-3.387,3.387h-121.93c-1.871,0-3.387-1.516-3.387-3.387
				l0,0c0-1.871,1.516-3.387,3.387-3.387h121.93C2924.619,1917.379,2926.135,1918.895,2926.135,1920.766L2926.135,1920.766z"/>
			<path style="fill:#FFFFFF;" d="M2926.135,1951.249c0,1.87-1.516,3.387-3.387,3.387h-121.93c-1.871,0-3.387-1.516-3.387-3.387l0,0
				c0-1.871,1.516-3.387,3.387-3.387h121.93C2924.619,1947.861,2926.135,1949.378,2926.135,1951.249L2926.135,1951.249z"/>
		</g>
		<g>
			
				<linearGradient id="SVGID_00000103944671617258872310000013336032416447759513_" gradientUnits="userSpaceOnUse" x1="2598.7793" y1="1778.5533" x2="2067.0293" y2="1351.7985">
				<stop  offset="0" style="stop-color:#FEBBBA"/>
				<stop  offset="1" style="stop-color:#FF928E"/>
			</linearGradient>
			<path style="fill:url(#SVGID_00000103944671617258872310000013336032416447759513_);" d="M2143.771,1760.367
				c0.431-0.166,231.861-405.457,263.135-443.597c5.261-6.415,13.404-9.683,21.643-8.7l64.596,7.698l75.886,164.171l-126.425-73.629
				c12.51,86.519-149.901,215.097-205.601,262.014c-5.653,4.762-6.117,13.289-1.011,18.633l22.236,23.278
				c-36.506,37.005-78.634,60.766-126.18,71.756L2143.771,1760.367z"/>
			
				<linearGradient id="SVGID_00000054988058645853584360000008995591592015921304_" gradientUnits="userSpaceOnUse" x1="-1690.2468" y1="-1423.8925" x2="-1718.2567" y2="-994.407" gradientTransform="matrix(0.8974 -0.4412 0.4412 0.8974 4281.0454 2161.1482)">
				<stop  offset="0" style="stop-color:#09005D"/>
				<stop  offset="1" style="stop-color:#1A0F91"/>
			</linearGradient>
			<path style="fill:url(#SVGID_00000054988058645853584360000008995591592015921304_);" d="M2245.368,1697.671
				c0,0,14.193,4.586,18.998,17.225c2.299,6.048-0.179,12.897-5.439,16.665c-23.369,16.742-100.454,70.797-136.026,81.383
				c-2.916,0.867-5.691-1.772-5.034-4.741c1.825-8.264,7.73-24.766,26.754-48.923l-1.707,3.452c-2.16,4.369,2.597,8.918,6.841,6.521
				C2173.547,1755.823,2222.01,1726.426,2245.368,1697.671z"/>
			
				<linearGradient id="SVGID_00000173844673818180317310000001626538204917862846_" gradientUnits="userSpaceOnUse" x1="11452.7285" y1="1472.7913" x2="12701.1221" y2="691.2783" gradientTransform="matrix(-1 0 0 1 13576.3242 0)">
				<stop  offset="0" style="stop-color:#FEBBBA"/>
				<stop  offset="1" style="stop-color:#FF928E"/>
			</linearGradient>
			<path style="fill:url(#SVGID_00000173844673818180317310000001626538204917862846_);" d="M2233.916,1859.838
				c0.388-0.249,35.11-83.906,35.499-84.154c31.835-193.832,109.51-359.834,132.417-403.516c3.854-7.346,11.167-12.193,19.434-12.9
				l64.816-5.533l107.542,145.416l-138.71-46.519c29.76,82.197-103.268,240.982-148.321,298.2
				c-4.572,5.807-3.301,14.253,2.781,18.453l26.489,18.297c-28.264,43.627-64.71,75.422-109.048,95.807L2233.916,1859.838z"/>
			
				<linearGradient id="SVGID_00000147904947326280749260000008898254671857593760_" gradientUnits="userSpaceOnUse" x1="-762.2054" y1="-2439.5251" x2="-790.2129" y2="-2010.0784" gradientTransform="matrix(0.7895 -0.6137 0.6137 0.7895 4298.6343 3191.1018)">
				<stop  offset="0" style="stop-color:#09005D"/>
				<stop  offset="1" style="stop-color:#1A0F91"/>
			</linearGradient>
			<path style="fill:url(#SVGID_00000147904947326280749260000008898254671857593760_);" d="M2320.722,1777.88
				c0,0,14.826,1.615,22.09,13.023c3.476,5.457,2.435,12.667-1.953,17.421c-19.497,21.125-84.049,89.66-116.742,107.227
				c-2.68,1.44-5.93-0.582-5.89-3.624c0.115-8.462,2.558-25.819,16.299-53.326l-0.972,3.726c-1.23,4.715,4.349,8.207,8.021,5.002
				C2262.156,1849.363,2303.666,1810.767,2320.722,1777.88z"/>
			<g>
				
					<linearGradient id="SVGID_00000085965116051599169630000001820014137339604156_" gradientUnits="userSpaceOnUse" x1="-4550.2354" y1="1658.4707" x2="-4236.4443" y2="1211.1168" gradientTransform="matrix(-1 0 0 1 -1720.1108 0)">
					<stop  offset="0" style="stop-color:#4F52FF"/>
					<stop  offset="1" style="stop-color:#4042E2"/>
				</linearGradient>
				<path style="fill:url(#SVGID_00000085965116051599169630000001820014137339604156_);" d="M2789.485,1323.108
					c0,0,58.636,87.213,63.448,126.996c4.811,39.782-16.214,53.541-77.586,58.614c-182.633,15.098-272.664-39.637-272.664-39.637
					c13.678-37.969,30.208-117.699-74.134-161.011c0,0,86.151,13.8,112.712,3.493
					C2567.822,1301.255,2789.485,1323.108,2789.485,1323.108z"/>
			</g>
			<g>
				
					<linearGradient id="SVGID_00000094581960751546597330000006239394537381348494_" gradientUnits="userSpaceOnUse" x1="-4175.2451" y1="784.3227" x2="-4590.1431" y2="1311.2911" gradientTransform="matrix(-1 0 0 1 -1720.1108 0)">
					<stop  offset="0" style="stop-color:#09005D"/>
					<stop  offset="1" style="stop-color:#1A0F91"/>
				</linearGradient>
				<path style="fill:url(#SVGID_00000094581960751546597330000006239394537381348494_);" d="M2458.442,858.307
					c1.005,7.649,134.115,378.089,134.115,378.089l203.718,31.929c39.285,6.157,77.881-14.528,94.505-50.651h0.001
					c41.308-89.755,1.99-195.999-87.795-237.239l-30.072-13.812c-44.862-20.606-88.837-56.179-127.484-93.548
					c-32.424-31.352-75.372-49.5-120.419-51.752l0,0L2458.442,858.307z"/>
				<path style="fill:#91B3FA;" d="M2855.436,1184.676c-0.334,0-0.662-0.146-0.886-0.427c-0.39-0.49-0.308-1.201,0.182-1.591
					c21.235-16.875,19.31-48.687,17.494-61.58c-3.608-25.63-13.759-50.099-29.358-70.759
					c-28.058-37.16-71.116-59.311-112.754-80.734l-8.626-4.445c-42.654-22.055-90.161-49.395-114.038-94.95
					c-0.291-0.556-0.076-1.237,0.476-1.528c0.559-0.288,1.24-0.076,1.528,0.476c23.573,44.969,70.726,72.095,113.072,93.991
					l8.623,4.442c41.864,21.539,85.156,43.812,113.525,81.386c15.83,20.963,26.133,45.793,29.795,71.804
					c1.869,13.28,3.823,46.068-18.327,63.671C2855.932,1184.596,2855.684,1184.676,2855.436,1184.676z"/>
				<path style="fill:#91B3FA;" d="M2834,1144.667c-0.023,0-0.046,0-0.073,0c-0.622-0.04-1.098-0.579-1.058-1.204
					c1.71-26.867-2.127-50.143-11.401-69.181c-16.789-34.465-52.282-56.523-81.326-71.886c-5.854-3.099-11.775-6.122-17.705-9.149
					c-26.94-13.76-54.8-27.989-76.517-49.541c-0.443-0.44-0.446-1.158-0.007-1.601c0.44-0.446,1.154-0.446,1.601-0.007
					c21.466,21.304,49.167,35.45,75.955,49.13c5.937,3.033,11.871,6.063,17.732,9.162c29.348,15.529,65.225,37.845,82.305,72.898
					c9.447,19.396,13.359,43.051,11.626,70.319C2835.091,1144.208,2834.592,1144.667,2834,1144.667z"/>
				
					<linearGradient id="SVGID_00000072259598087317175990000013325841077556400813_" gradientUnits="userSpaceOnUse" x1="-4159.7725" y1="1056.2979" x2="-4221.7368" y2="1285.5656" gradientTransform="matrix(-1 0 0 1 -1720.1108 0)">
					<stop  offset="0" style="stop-color:#FEBBBA"/>
					<stop  offset="1" style="stop-color:#FF928E"/>
				</linearGradient>
				<path style="fill:url(#SVGID_00000072259598087317175990000013325841077556400813_);" d="M2401.521,1143.598
					c0,0,69.627,83.385,139.74,15.668l27.089,62.82c0,0-102.386,79.279-180.048-45.458L2401.521,1143.598z"/>
				
					<linearGradient id="SVGID_00000072257282244213891860000015026421775028172424_" gradientUnits="userSpaceOnUse" x1="522.454" y1="-9449.123" x2="427.6197" y2="-9242.5205" gradientTransform="matrix(-1 0 0 1 -1720.1108 0)">
					<stop  offset="0" style="stop-color:#FF928E"/>
					<stop  offset="1" style="stop-color:#FE7062"/>
				</linearGradient>
				<path style="fill:url(#SVGID_00000072257282244213891860000015026421775028172424_);" d="M2630.91,1311.563
					c0,0-68.281-65.018-101.893-108.083c-18.168-23.279-23.874-53.925-15.471-82.233c15.344-51.699,42.616-105.245,45.103-113.578
					c3.812-12.774,80.374-12.242,80.374-12.242s72.085,11.206,72.657,133.339c0.136,29.07,8.213,57.605,23.372,82.411
					c17.401,28.476,34.331,71.222,54.434,111.933L2630.91,1311.563z"/>
				
					<linearGradient id="SVGID_00000111883664300566582560000007231993945164450209_" gradientUnits="userSpaceOnUse" x1="-4328.7319" y1="713.5687" x2="-4310.9648" y2="583.5865" gradientTransform="matrix(0.9974 -0.0717 0.0717 0.9974 6845.7319 105.0094)">
					<stop  offset="0" style="stop-color:#FEBBBA"/>
					<stop  offset="1" style="stop-color:#FF928E"/>
				</linearGradient>
				<path style="fill:url(#SVGID_00000111883664300566582560000007231993945164450209_);" d="M2586.404,903.373l51.457,95.686
					c-3.397,20.887-56.005,21.476-64.132,9.004c-0.827-1.269-1.3-2.737-1.614-4.22l-30.781-63.935
					c-1.323-6.235,15.769-27.242,21.395-30.236l20.452-10.887C2591.057,894.594,2558.194,894.264,2586.404,903.373z"/>
				<g>
					
						<linearGradient id="SVGID_00000075131640957903702060000006215391947006143629_" gradientUnits="userSpaceOnUse" x1="-5473.6113" y1="1375.5092" x2="-5306.3193" y2="1077.7861" gradientTransform="matrix(0.5458 -0.8379 0.8379 0.5458 4426.7476 -4320.769)">
						<stop  offset="0" style="stop-color:#FEBBBA"/>
						<stop  offset="1" style="stop-color:#FF928E"/>
					</linearGradient>
					<path style="fill:url(#SVGID_00000075131640957903702060000006215391947006143629_);" d="M2482.263,880.916
						c0,0-5.808,32.327,19.601,73.431c25.408,41.104,50.712,39.248,63.567,24.59c12.855-14.658,28.253-39.073,21.247-80.069
						C2579.672,857.872,2491.04,839.69,2482.263,880.916z"/>
					
						<linearGradient id="SVGID_00000048490571502411698610000001127031173612500374_" gradientUnits="userSpaceOnUse" x1="-4173.8828" y1="785.3956" x2="-4588.7813" y2="1312.3649" gradientTransform="matrix(-1 0 0 1 -1720.1108 0)">
						<stop  offset="0" style="stop-color:#09005D"/>
						<stop  offset="1" style="stop-color:#1A0F91"/>
					</linearGradient>
					<path style="fill:url(#SVGID_00000048490571502411698610000001127031173612500374_);" d="M2555.917,903.323
						c0,0-41.144-54.042-72.732-6.931l0.533,16.275c0,0-41.077-1.921-36.623-39.78c4.455-37.861,37.99-63.724,84.481-50.79
						c46.49,12.936,73.657,27.667,78.906,59.945c5.251,32.278-21.105,27.005-21.105,27.005s-10.068-22.272-22.225-23.793
						c-12.157-1.521-7.764,16.097-7.764,16.097L2555.917,903.323z"/>
					
						<linearGradient id="SVGID_00000032622794316669729420000007707572715245583269_" gradientUnits="userSpaceOnUse" x1="-5438" y1="1395.5145" x2="-5270.7104" y2="1097.7955" gradientTransform="matrix(0.5458 -0.8379 0.8379 0.5458 4426.7476 -4320.769)">
						<stop  offset="0" style="stop-color:#FEBBBA"/>
						<stop  offset="1" style="stop-color:#FF928E"/>
					</linearGradient>
					<path style="fill:url(#SVGID_00000032622794316669729420000007707572715245583269_);" d="M2565.359,901.881
						c0,0-21.312-27.656-1.912-33.396c19.4-5.74,18.675,27.099,17.412,39.316L2565.359,901.881z"/>
				</g>
				
					<linearGradient id="SVGID_00000129164016655917010890000011687602931960662153_" gradientUnits="userSpaceOnUse" x1="-4279.6021" y1="1216.8037" x2="-4010.5139" y2="1216.8037" gradientTransform="matrix(-1 0 0 1 -1720.1108 0)">
					<stop  offset="0" style="stop-color:#FEBBBA"/>
					<stop  offset="1" style="stop-color:#FF928E"/>
				</linearGradient>
				<path style="fill:url(#SVGID_00000129164016655917010890000011687602931960662153_);" d="M2724.148,1237.783
					c0,0-146.844-20.448-195.182-65.682c0,0-23.393-22.099-40.282-24.786c-9.097-1.447-19.361-2.414-26.894-2.998
					c-3.438-0.267-5.045,4.173-2.224,6.155c5.441,3.822,12.57,7.938,18.754,8.579c11.95,1.239-0.79,9.996,12.223,32.877
					c13.012,22.882,31.602,14.252,31.602,14.252s97.284,83.817,190.23,83.115
					C2712.375,1289.297,2735.302,1281.778,2724.148,1237.783z"/>
				<g>
					
						<linearGradient id="SVGID_00000008108954847566272440000017623505902556884662_" gradientUnits="userSpaceOnUse" x1="-1793.8223" y1="1540.7709" x2="-1838.7098" y2="1588.2144" gradientTransform="matrix(0.9865 -0.1635 0.2088 1.2596 3873.7834 -1140.5688)">
						<stop  offset="0" style="stop-color:#09005D"/>
						<stop  offset="1" style="stop-color:#1A0F91"/>
					</linearGradient>
					<path style="fill:url(#SVGID_00000008108954847566272440000017623505902556884662_);" d="M2355.746,1086.208l50.746-6.687
						c6.051-1.003,12.296,2.542,16.035,9.102l33.381,73.785c6.284,11.025,1.814,25.65-8.355,27.336l-40.749,5.226
						c-3.899,0.647-7.906-1.814-10.106-6.206l-45.146-90.111C2348.942,1093.448,2351.124,1086.975,2355.746,1086.208z"/>
				</g>
				
					<linearGradient id="SVGID_00000030457275473623944910000011384260052575883700_" gradientUnits="userSpaceOnUse" x1="459.3496" y1="-9478.0879" x2="364.5152" y2="-9271.4844" gradientTransform="matrix(-1 0 0 1 -1720.1108 0)">
					<stop  offset="0" style="stop-color:#FF928E"/>
					<stop  offset="1" style="stop-color:#FE7062"/>
				</linearGradient>
				<path style="fill:url(#SVGID_00000030457275473623944910000011384260052575883700_);" d="M2691.196,1037.453
					c0,0,138.292,204.834,21.179,251.844l-21.179-57.138c0,0,14-31.64-27.245-111.053c-5.437-10.467-8.043-22.2-7.565-33.986
					C2657.778,1052.778,2663.958,989.013,2691.196,1037.453z"/>
				<path style="opacity:0.43;fill:#FFFFFF;" d="M2691.203,1234.632c0.949,0,1.851-0.547,2.258-1.471
					c0.593-1.336,14.007-33.642-27.31-113.199c-0.632-1.218-2.125-1.689-3.343-1.058c-1.215,0.632-1.687,2.128-1.058,3.343
					c39.989,76.995,27.305,108.612,27.172,108.922c-0.535,1.254,0.036,2.711,1.288,3.256
					C2690.533,1234.564,2690.871,1234.632,2691.203,1234.632z"/>
				
					<linearGradient id="SVGID_00000065062276442905421560000006573952348196465823_" gradientUnits="userSpaceOnUse" x1="-4091.3037" y1="1080.5375" x2="-4123.96" y2="1201.3654" gradientTransform="matrix(-1 0 0 1 -1720.1108 0)">
					<stop  offset="0" style="stop-color:#FEBBBA"/>
					<stop  offset="1" style="stop-color:#FF928E"/>
				</linearGradient>
				<path style="fill:url(#SVGID_00000065062276442905421560000006573952348196465823_);" d="M2390.368,1185.733
					c0,0-34.12-49.654-30.156-55.768c3.963-6.113,33.874-14.872,40.896-16.937
					C2408.131,1110.964,2421.35,1155.991,2390.368,1185.733z"/>
			</g>
		</g>
		<g>
			<g>
				
					<linearGradient id="SVGID_00000147199021313497389100000002847065512864654237_" gradientUnits="userSpaceOnUse" x1="2989.6987" y1="2679.2717" x2="2954.6331" y2="3012.3945">
					<stop  offset="0" style="stop-color:#FEBBBA"/>
					<stop  offset="1" style="stop-color:#FF928E"/>
				</linearGradient>
				<path style="fill:url(#SVGID_00000147199021313497389100000002847065512864654237_);" d="M2918.612,2920.143
					c13.695,2.724,91.739,49.165,91.739-3.93c0-5.001,0-59.309,0-59.309S2914.677,2919.361,2918.612,2920.143z"/>
				
					<linearGradient id="SVGID_00000099647982124803893370000015101960500207995026_" gradientUnits="userSpaceOnUse" x1="2979.4851" y1="2376.8789" x2="2890.2268" y2="2910.832">
					<stop  offset="0" style="stop-color:#FEBBBA"/>
					<stop  offset="1" style="stop-color:#FF928E"/>
				</linearGradient>
				<path style="fill:url(#SVGID_00000099647982124803893370000015101960500207995026_);" d="M2967.455,2820.461
					c0,0-34.299-57.88-38.587-114.689c-4.287-56.808,2.68-81.672-3.752-98.18c-6.431-16.508-37.694-79.208-39.122-60.363
					c-1.429,18.845,10.004,38.496,10.004,38.496s-19.832,15.776-16.435,33.942c3.397,18.166,10.361,20.008,10.361,20.008
					s1.072,39.301,2.859,39.301c1.786,0-31.441,197.222,5.716,201.509C2935.656,2884.772,2965.668,2911.211,2967.455,2820.461z"/>
				
					<linearGradient id="SVGID_00000176042583286371447000000014974612617479937687_" gradientUnits="userSpaceOnUse" x1="2763.1067" y1="2576.033" x2="2793.9675" y2="2646.2485" gradientTransform="matrix(0.9963 -0.0857 0.0857 0.9963 -113.9226 236.535)">
					<stop  offset="0" style="stop-color:#FEBBBA"/>
					<stop  offset="1" style="stop-color:#FF928E"/>
				</linearGradient>
				<path style="fill:url(#SVGID_00000176042583286371447000000014974612617479937687_);" d="M2869.438,2605.694
					c-0.346-2.611-24.369-54.864-20.067-60.805c4.302-5.942,8.644-11.242,15.388,6.375c6.743,17.618,14.787,65.542,12.197,65.829
					C2874.365,2617.379,2870.678,2615.059,2869.438,2605.694z"/>
				
					<linearGradient id="SVGID_00000032607284456585799610000007881289636500502692_" gradientUnits="userSpaceOnUse" x1="2637.2813" y1="3149.3088" x2="2563.76" y2="3241.7478">
					<stop  offset="0" style="stop-color:#09005D"/>
					<stop  offset="1" style="stop-color:#1A0F91"/>
				</linearGradient>
				<path style="fill:url(#SVGID_00000032607284456585799610000007881289636500502692_);" d="M2644.66,3174.976
					c0,0-18.135-15.05-42.247-12.856c-16.811,2.945-36.532,17.812-49.245,28.844c-2.217,1.923-2.963,4.986-1.872,7.671
					c1.091,2.685,3.788,4.427,6.76,4.366c31.526-0.653,93.202-2.526,93.202-7.174
					C2651.257,3189.582,2644.66,3174.976,2644.66,3174.976z"/>
				
					<linearGradient id="SVGID_00000106838720721786967760000008757681765142291369_" gradientUnits="userSpaceOnUse" x1="2630.0488" y1="3148.793" x2="2647.4258" y2="3188.3298">
					<stop  offset="0" style="stop-color:#FEBBBA"/>
					<stop  offset="1" style="stop-color:#FF928E"/>
				</linearGradient>
				<path style="fill:url(#SVGID_00000106838720721786967760000008757681765142291369_);" d="M2657.153,3148.448l-14.47,27.333
					c0,0-32.692,2.679-31.62-10.183c1.072-12.862,9.111-28.404,9.111-28.404L2657.153,3148.448z"/>
				<path style="fill:#7D97F4;" d="M3026.641,3167.058c-22.671-123.776-39.183-203.262-39.183-203.262
					s-251.256-162.093-276.98-122.434c-25.724,39.659-99.441,310.302-99.441,310.302l49.152,13.398
					c0,0,93.967-127.278,102.542-235.939c24.192,79.251,46.737,268.638,232.863,274.072c9.241,0.27,18.106-3.652,24.13-10.664
					C3025.748,3185.519,3028.306,3176.152,3026.641,3167.058z"/>
				
					<linearGradient id="SVGID_00000039855257977971569690000000228762625614384549_" gradientUnits="userSpaceOnUse" x1="2451.8767" y1="3155.3921" x2="2472.0173" y2="3201.2163">
					<stop  offset="0" style="stop-color:#FEBBBA"/>
					<stop  offset="1" style="stop-color:#FF928E"/>
				</linearGradient>
				<polygon style="fill:url(#SVGID_00000039855257977971569690000000228762625614384549_);" points="2483.512,3163.99 
					2453.5,3192.395 2429.919,3168.814 2461.003,3132.906 				"/>
				
					<linearGradient id="SVGID_00000106853362782226870910000001536410532298815679_" gradientUnits="userSpaceOnUse" x1="3220.4658" y1="3137.8967" x2="3271.3767" y2="3253.7302" gradientTransform="matrix(-0.9226 0.3857 0.3857 0.9226 4851.5386 -1506.0273)">
					<stop  offset="0" style="stop-color:#FEBBBA"/>
					<stop  offset="1" style="stop-color:#FF928E"/>
				</linearGradient>
				<path style="fill:url(#SVGID_00000106853362782226870910000001536410532298815679_);" d="M3092.743,2588.41l58.742,75.535
					c2.691,3.461,3.15,8.235,1.07,11.81c-7.61,13.077-29.699,41.993-76.416,42.399c-5.343,0.046-10.439-3.356-13.075-8.549
					l-36.513-71.933L3092.743,2588.41z"/>
				<g>
					
						<linearGradient id="SVGID_00000177450789194535467730000016428051109817436032_" gradientUnits="userSpaceOnUse" x1="1961.6494" y1="2025.6233" x2="2035.4147" y2="2193.4558" gradientTransform="matrix(-0.9514 -0.3081 -0.3081 0.9514 5534.4683 1195.636)">
						<stop  offset="0" style="stop-color:#FEBBBA"/>
						<stop  offset="1" style="stop-color:#FF928E"/>
					</linearGradient>
					<path style="fill:url(#SVGID_00000177450789194535467730000016428051109817436032_);" d="M2952.819,2490.013
						c0,0-14.974,86.221,8.479,121.823c23.453,35.603,91.323,36.496,132.284-18.893l-7.105-119.69L2952.819,2490.013z"/>
					
						<linearGradient id="SVGID_00000015322362509224704140000008632529225181137336_" gradientUnits="userSpaceOnUse" x1="1955.5823" y1="1813.4109" x2="2003.5323" y2="2086.9036" gradientTransform="matrix(-0.9514 -0.3081 -0.3081 0.9514 5534.4683 1195.636)">
						<stop  offset="0" style="stop-color:#09005D"/>
						<stop  offset="1" style="stop-color:#1A0F91"/>
					</linearGradient>
					<path style="fill:url(#SVGID_00000015322362509224704140000008632529225181137336_);" d="M3059.201,2547.322
						c-2.659-0.004-4.681-2.364-4.247-4.988c1.322-7.979,3.345-23.961,0.891-36.087c0,0,6.524-9.836-29.118-3.329
						c-35.642,6.506-89.001,15.738-111.212-7.244c-21.655-22.407-25.451-101.108,39.497-65.719c2.471,1.347,5.569,0.034,6.238-2.7
						c2.882-11.799,12.612-37.94,42.216-37.755c27.703,0.174,37.783,15.97,41.234,24.651c1.016,2.555,4.124,3.517,6.385,1.956
						c10.709-7.388,37.921-21.681,63.715,1.323c21.246,18.949,20.156,35.463,16.666,44.843c-1.13,3.039,1.321,6.141,4.541,5.758
						c8.722-1.038,21.519,1.1,28.468,19.541c9.607,25.494-19.187,35.578-27.61,37.939c-1.38,0.386-2.491,1.409-2.941,2.769
						c-3.478,10.515-18.356,57.511-49.783,75.973c-2.721,1.598-7.839-1.828-8.105-4.973l-4.049-47.996
						c-0.188-2.229-2.05-3.944-4.287-3.947L3059.201,2547.322z"/>
					
						<linearGradient id="SVGID_00000111883679222537012960000007014247631644582575_" gradientUnits="userSpaceOnUse" x1="1921.0289" y1="2041.0079" x2="1944.6575" y2="2094.7678" gradientTransform="matrix(-0.9514 -0.3081 -0.3081 0.9514 5534.4683 1195.636)">
						<stop  offset="0" style="stop-color:#FEBBBA"/>
						<stop  offset="1" style="stop-color:#FF928E"/>
					</linearGradient>
					<path style="fill:url(#SVGID_00000111883679222537012960000007014247631644582575_);" d="M3054.218,2552.603
						c0,0,25.115-40.599,36.926-20.951c11.812,19.648-19.134,44.45-39.925,44.354L3054.218,2552.603z"/>
				</g>
				
					<linearGradient id="SVGID_00000151523905654858672320000004429321179941960359_" gradientUnits="userSpaceOnUse" x1="2909.7576" y1="2759.5784" x2="2976.7012" y2="3201.0869">
					<stop  offset="0" style="stop-color:#FEBBBA"/>
					<stop  offset="1" style="stop-color:#FF928E"/>
				</linearGradient>
				<path style="fill:url(#SVGID_00000151523905654858672320000004429321179941960359_);" d="M2997.277,2795.808
					c0,0-114.498,48.234-135.936,23.581c-21.437-24.653-9.646-162.898-9.646-162.898l-48.233-12.886
					c0,0-59.31,244.026,41.445,280.469c73.144,26.456,212.584-59.667,212.584-59.667L2997.277,2795.808z"/>
				
					<linearGradient id="SVGID_00000039836514456572394990000003093040157967688621_" gradientUnits="userSpaceOnUse" x1="3565.6685" y1="2539.0244" x2="3399.7083" y2="2667.728">
					<stop  offset="0" style="stop-color:#FF928E"/>
					<stop  offset="1" style="stop-color:#FE7062"/>
				</linearGradient>
				<path style="fill:url(#SVGID_00000039836514456572394990000003093040157967688621_);" d="M3104.942,2628.956
					c-18.461,4.059-38.695,21.689-54.524,38.604c-18.076,19.316-30.182,43.528-34.692,69.595c-0.147,0.849-0.293,1.7-0.439,2.552
					c-39.847,43.674-74.945,71.949-98.555,82.401c41.445,58.864,63.87,81.226,63.87,81.226s4.779-1.029,12.795-3.098
					c-7.79,70.24-12.007,124.624-12.007,124.624s80.957,80.356,179,103.222c89.292-65.74,102.949-253.805,102.949-253.805
					C3270.33,2651.219,3167.309,2615.244,3104.942,2628.956z"/>
				<path style="fill:#91B3FA;" d="M3160.389,3128.083c0,0-40.195,119.511-238.584,52.521
					c-96.194-32.482-230.889-220.802-230.889-220.802s-33.227,91.107-206.868,213.299l-38.587-34.657
					c0,0,175.784-302.978,265.82-271.537C2801.317,2898.349,3187.9,3050.552,3160.389,3128.083z"/>
				
					<linearGradient id="SVGID_00000103971682816136233960000000201471675236185272_" gradientUnits="userSpaceOnUse" x1="2394.9609" y1="3154.3262" x2="2419.9861" y2="3242.1223">
					<stop  offset="0" style="stop-color:#09005D"/>
					<stop  offset="1" style="stop-color:#1A0F91"/>
				</linearGradient>
				<path style="fill:url(#SVGID_00000103971682816136233960000000201471675236185272_);" d="M2468.135,3178.543
					c-7.338,0.083-38.216-13.481-38.216-13.481l-28.761,7.681c-25.068-3.857-46.597,4.679-61.106,13.355
					c-3.169,1.894-4.691,5.668-3.736,9.236c0.955,3.567,4.159,6.069,7.851,6.131c28.387,0.47,75.004,0.944,98.615-0.469
					C2478.153,3198.88,2483.512,3199.897,2468.135,3178.543z"/>
				
					<linearGradient id="SVGID_00000108267391184743069300000011837586117593349530_" gradientUnits="userSpaceOnUse" x1="3020.0945" y1="2003.6898" x2="3118.9163" y2="2963.2095">
					<stop  offset="0" style="stop-color:#E1473D"/>
					<stop  offset="1" style="stop-color:#E9605A"/>
				</linearGradient>
				<path style="fill:url(#SVGID_00000108267391184743069300000011837586117593349530_);" d="M3032.977,2889.741
					c-0.57,0-1.088-0.387-1.23-0.965c-0.168-0.679,0.248-1.367,0.928-1.533c0.303-0.075,30.724-7.688,63.418-26.379
					c30.073-17.193,68.292-47.556,79.58-94.568c0.163-0.682,0.851-1.101,1.529-0.937c0.681,0.165,1.1,0.848,0.937,1.529
					c-11.506,47.915-50.314,78.766-80.844,96.209c-32.997,18.852-63.708,26.532-64.015,26.607
					C3033.179,2889.73,3033.077,2889.741,3032.977,2889.741z"/>
				<g>
					<g>
						
							<linearGradient id="SVGID_00000034077038778895423740000003028182153125929128_" gradientUnits="userSpaceOnUse" x1="3078.8064" y1="2472.1189" x2="2870.9758" y2="2765.3455" gradientTransform="matrix(-0.9162 0.4006 0.4006 0.9162 4583.5337 -959.3197)">
							<stop  offset="0" style="stop-color:#09005D"/>
							<stop  offset="1" style="stop-color:#1A0F91"/>
						</linearGradient>
						<path style="fill:url(#SVGID_00000034077038778895423740000003028182153125929128_);" d="M2777.975,2531.9
							c-0.829-2.123-0.67-4.503,0.433-6.498c1.102-1.993,3.034-3.394,5.272-3.82l55.877-10.661c2.169-0.414,4.304,0.868,4.958,2.977
							l42.98,138.557c0.185,0.597,0.125,1.244-0.17,1.796c-0.294,0.552-0.796,0.964-1.396,1.144l-46.712,14.021
							c-3.826,1.148-7.893-0.833-9.346-4.555L2777.975,2531.9z"/>
						<path style="fill:#91B3FA;" d="M2795.601,2533.271c-0.452-1.213-0.339-2.563,0.308-3.685c0.647-1.121,1.76-1.894,3.037-2.11
							l37.093-6.261c2.145-0.362,4.226,0.919,4.869,2.997l36.498,118.038c0.192,0.62,0.118,1.289-0.202,1.852
							c-0.32,0.563-0.859,0.969-1.489,1.12l-33.234,7.995c-1.153,0.277-2.332-0.35-2.745-1.461L2795.601,2533.271z"/>
						
							<linearGradient id="SVGID_00000010304508862632328760000016426247483020291007_" gradientUnits="userSpaceOnUse" x1="2774.4597" y1="4426.8271" x2="2760.2368" y2="4446.894" gradientTransform="matrix(-0.9785 0.2063 0.1084 0.5141 5051.7461 -330.1158)">
							<stop  offset="0" style="stop-color:#8D55D1"/>
							<stop  offset="0.9964" style="stop-color:#1C2873"/>
						</linearGradient>
						<path style="fill:url(#SVGID_00000010304508862632328760000016426247483020291007_);" d="M2813.49,2521.842
							c0.092,0.435,0.836,0.645,1.663,0.471l12.194-2.572c0.827-0.174,1.423-0.668,1.332-1.102l-0.089-0.422
							c-0.092-0.434-0.836-0.645-1.663-0.471l-12.194,2.572c-0.827,0.174-1.423,0.667-1.331,1.102L2813.49,2521.842z"/>
					</g>
				</g>
				
					<linearGradient id="SVGID_00000125583981370752967210000008202061366063253168_" gradientUnits="userSpaceOnUse" x1="2832.1001" y1="2771.3533" x2="2899.0435" y2="3212.8599">
					<stop  offset="0" style="stop-color:#FEBBBA"/>
					<stop  offset="1" style="stop-color:#FF928E"/>
				</linearGradient>
				<path style="fill:url(#SVGID_00000125583981370752967210000008202061366063253168_);" d="M2802.84,2646.265
					c-0.719-6.144-21.352-45.266-13.313-60.272c8.039-15.006,11.254-40.73,19.025-33.496c7.771,7.235-1.876,32.424,1.607,39.927
					c3.483,7.503,16.864,26.567,18.614,41.42c1.751,14.853,11.666,36.022-9.235,38.969S2802.84,2646.265,2802.84,2646.265z"/>
				
					<linearGradient id="SVGID_00000040555122320827107550000003756756786249656489_" gradientUnits="userSpaceOnUse" x1="2996.8931" y1="2006.0807" x2="3095.7144" y2="2965.5986">
					<stop  offset="0" style="stop-color:#E1473D"/>
					<stop  offset="1" style="stop-color:#E9605A"/>
				</linearGradient>
				<path style="fill:url(#SVGID_00000040555122320827107550000003756756786249656489_);" d="M3023.726,2734.908
					c-0.248,0-0.498-0.072-0.716-0.223c-0.579-0.396-0.725-1.185-0.329-1.762c2.365-3.449,58.295-84.292,90.504-70.657
					c0.645,0.273,0.947,1.018,0.673,1.663c-0.273,0.643-1.014,0.941-1.663,0.672c-30.313-12.864-86.857,68.927-87.424,69.756
					C3024.527,2734.716,3024.13,2734.908,3023.726,2734.908z"/>
				
					<linearGradient id="SVGID_00000050628043933808573310000012315616372849530527_" gradientUnits="userSpaceOnUse" x1="2891.6943" y1="2626.314" x2="2912.6287" y2="2626.314">
					<stop  offset="0" style="stop-color:#FEBBBA"/>
					<stop  offset="1" style="stop-color:#FF928E"/>
				</linearGradient>
				<path style="fill:url(#SVGID_00000050628043933808573310000012315616372849530527_);" d="M2898.054,2659.343
					c-0.394,0-0.782-0.182-1.029-0.526c-9.784-13.565-3.608-29.037-0.971-35.643c0.327-0.821,0.692-1.735,0.813-2.164
					c-1.196-2.679-5.867-16.4-4.443-24.954c0.33-1.973,1.354-2.576,2.153-2.734c4.401-0.859,13.965,13.667,17.861,19.961
					c0.369,0.595,0.184,1.377-0.411,1.745c-0.596,0.372-1.377,0.184-1.745-0.411c-6.352-10.259-13.253-18.807-15.169-18.807
					c-0.008,0-0.014,0-0.021,0c0.01,0.032-0.092,0.215-0.167,0.663c-1.365,8.187,3.608,22.374,4.317,23.638
					c0.449,0.785,0.126,1.597-0.835,4.002c-2.482,6.22-8.297,20.785,0.673,33.22c0.41,0.569,0.281,1.36-0.287,1.77
					C2898.57,2659.265,2898.31,2659.343,2898.054,2659.343z M2897.039,2621.364l0.001,0.003L2897.039,2621.364z"/>
			</g>
			<path style="fill:#91B3FA;" d="M2923.317,2490.622c-0.774,0-1.525-0.4-1.945-1.115c-9.936-17.004-13.068-31.461-9.308-42.975
				c3.695-11.312,12.734-15.36,13.118-15.526c1.134-0.5,2.464,0.023,2.957,1.164c0.496,1.135-0.023,2.458-1.158,2.957
				c-0.357,0.159-7.66,3.529-10.673,12.9c-3.291,10.227-0.281,23.417,8.947,39.211c0.625,1.072,0.265,2.448-0.807,3.076
				C2924.091,2490.522,2923.701,2490.622,2923.317,2490.622z"/>
		</g>
	</g>
</g>
</svg>
