<?xml version="1.0" encoding="utf-8"?>
<!-- Generator: Adobe Illustrator 27.5.0, SVG Export Plug-In . SVG Version: 6.00 Build 0)  -->
<svg version="1.1" xmlns="http://www.w3.org/2000/svg" xmlns:xlink="http://www.w3.org/1999/xlink" x="0px" y="0px"
	 viewBox="0 0 500 500" style="enable-background:new 0 0 500 500;" xml:space="preserve">
<g id="BACKGROUND">
	<rect style="fill:#FFFFFF;" width="500" height="500"/>
</g>
<g id="OBJECTS">
	<g>
		<linearGradient id="SVGID_1_" gradientUnits="userSpaceOnUse" x1="233.4604" y1="1085.9728" x2="241.6055" y2="-91.0021">
			<stop  offset="4.100000e-07" style="stop-color:#7FB3FF"/>
			<stop  offset="1" style="stop-color:#FFFFFF"/>
		</linearGradient>
		<path style="fill:url(#SVGID_1_);" d="M407.816,184.606c-0.329,0.454-0.658,0.897-0.992,1.331c-2.642,3.454-5.393,6.4-8.16,8.713
			c-26.469,22.162-40.725,60.05-15.303,94.155c12.437,16.684,24.654,59.138,13.06,97.057c-0.15,0.488-0.299,0.972-0.459,1.456
			c-2.218,6.869-5.229,13.573-9.182,19.934c-18.473,29.734-57.443,51.935-131.366,48.022
			c-64.018-3.389-110.769-18.309-143.195-39.15c-2.607-1.675-5.119-3.385-7.542-5.134c-12.726-9.187-22.939-19.346-30.865-30.068
			c-23.951-32.385-26.982-69.84-15.208-100.73c0.249-0.653,0.499-1.296,0.758-1.934c0.473-1.196,0.957-2.373,1.451-3.529
			c18.792-43.8,52.135-58.68,103.173-75.777c53.107-17.785,22.396-30.541,65.683-69.661s96.199-100.875,158.538-68.803
			C443.217,88.786,429.903,154.349,407.816,184.606z"/>
		
			<linearGradient id="SVGID_00000021119777268822931900000014038214347271943318_" gradientUnits="userSpaceOnUse" x1="225.8247" y1="35.5686" x2="258.5241" y2="722.2583">
			<stop  offset="0.0134" style="stop-color:#615B7F"/>
			<stop  offset="1" style="stop-color:#3A344F"/>
		</linearGradient>
		<path style="fill:url(#SVGID_00000021119777268822931900000014038214347271943318_);" d="M386.781,407.252
			c-10.847,17.456-28.757,32.316-56.656,40.82c-11.535,3.514-24.774,5.947-39.927,7.018c-10.632,0.758-22.202,0.852-34.783,0.184
			c-69.162-3.664-118.172-20.781-150.736-44.284l-4.411-3.739H386.781z"/>
		<g>
			<g>
				
					<linearGradient id="SVGID_00000144328295439860538570000006552850147521108885_" gradientUnits="userSpaceOnUse" x1="249.7766" y1="290.2125" x2="258.7126" y2="442.3824">
					<stop  offset="0.0134" style="stop-color:#615B7F"/>
					<stop  offset="1" style="stop-color:#B5C5F5"/>
				</linearGradient>
				<polygon style="fill:url(#SVGID_00000144328295439860538570000006552850147521108885_);" points="268.207,407.252 
					273.831,407.252 239.627,314.176 234.002,314.176 				"/>
				
					<linearGradient id="SVGID_00000130646947964136641410000011874395768738097599_" gradientUnits="userSpaceOnUse" x1="294.4656" y1="287.5882" x2="303.4017" y2="439.7581">
					<stop  offset="0.0134" style="stop-color:#615B7F"/>
					<stop  offset="1" style="stop-color:#B5C5F5"/>
				</linearGradient>
				<polygon style="fill:url(#SVGID_00000130646947964136641410000011874395768738097599_);" points="313.05,407.252 
					318.674,407.252 284.47,314.176 278.845,314.176 				"/>
			</g>
			
				<linearGradient id="SVGID_00000048473443881080277760000007218980203506415271_" gradientUnits="userSpaceOnUse" x1="151.1082" y1="311.5652" x2="365.6829" y2="309.0198">
				<stop  offset="0.0134" style="stop-color:#615B7F"/>
				<stop  offset="1" style="stop-color:#B5C5F5"/>
			</linearGradient>
			<path style="fill:url(#SVGID_00000048473443881080277760000007218980203506415271_);" d="M297.531,314.176H193.85
				c-2.062,0-3.733-1.671-3.733-3.733l0,0c0-2.062,1.671-3.733,3.733-3.733h103.681c2.062,0,3.733,1.671,3.733,3.733l0,0
				C301.264,312.505,299.593,314.176,297.531,314.176z"/>
			
				<linearGradient id="SVGID_00000162351002289121084650000014542999155633088424_" gradientUnits="userSpaceOnUse" x1="80.4825" y1="309.0218" x2="253.44" y2="311.6944">
				<stop  offset="0.0134" style="stop-color:#615B7F"/>
				<stop  offset="1" style="stop-color:#B5C5F5"/>
			</linearGradient>
			<path style="fill:url(#SVGID_00000162351002289121084650000014542999155633088424_);" d="M196.734,314.176h-48.532
				c-2.062,0-3.733-1.671-3.733-3.733l0,0c0-2.062,1.671-3.733,3.733-3.733h48.532c2.062,0,3.733,1.671,3.733,3.733l0,0
				C200.468,312.505,198.796,314.176,196.734,314.176z"/>
			<g>
				
					<linearGradient id="SVGID_00000145757020850197606890000015623890849781965240_" gradientUnits="userSpaceOnUse" x1="187.367" y1="293.8775" x2="196.3031" y2="446.0481">
					<stop  offset="0.0134" style="stop-color:#615B7F"/>
					<stop  offset="1" style="stop-color:#B5C5F5"/>
				</linearGradient>
				<polygon style="fill:url(#SVGID_00000145757020850197606890000015623890849781965240_);" points="177.002,407.252 
					171.377,407.252 205.582,314.176 211.206,314.176 				"/>
				
					<linearGradient id="SVGID_00000065783684113280681050000018039718094167726763_" gradientUnits="userSpaceOnUse" x1="142.6779" y1="296.5019" x2="151.614" y2="448.6725">
					<stop  offset="0.0134" style="stop-color:#615B7F"/>
					<stop  offset="1" style="stop-color:#B5C5F5"/>
				</linearGradient>
				<polygon style="fill:url(#SVGID_00000065783684113280681050000018039718094167726763_);" points="132.159,407.252 
					126.534,407.252 160.739,314.176 166.363,314.176 				"/>
			</g>
		</g>
		
			<linearGradient id="SVGID_00000170279736468792154520000013853975856573018021_" gradientUnits="userSpaceOnUse" x1="228.8966" y1="307.4837" x2="230.3618" y2="303.1977">
			<stop  offset="0.0134" style="stop-color:#615B7F"/>
			<stop  offset="1" style="stop-color:#3A344F"/>
		</linearGradient>
		
			<rect x="228.572" y="302.892" style="fill:url(#SVGID_00000170279736468792154520000013853975856573018021_);" width="2.482" height="3.818"/>
		<g>
			<path style="fill:#FFFFFF;" d="M306.041,169.34l-5.398-4.701l-7.911-6.884l-4.835,5.553l8.115,7.063l5.194,4.521
				c4.087,3.559,4.521,9.785,0.962,13.877c-3.559,4.087-9.785,4.521-13.877,0.957l-4.646-4.042l-8.658-7.537l-4.835,5.553
				l8.863,7.716l4.441,3.868c7.153,6.226,18.039,5.473,24.265-1.68C313.947,186.452,313.194,175.566,306.041,169.34z"/>
			<polygon style="fill:#3399FF;" points="274.986,178.148 283.645,185.685 279.014,191.417 270.151,183.701 			"/>
			<polygon style="fill:#FF3171;" points="300.642,164.639 296.012,170.372 287.897,163.308 292.732,157.755 			"/>
		</g>
		<g>
			<g>
				<g>
					<path style="fill:#FF3171;" d="M257.361,176.032c1.048,4.289,0.124,8.59-1.034,12.543c-1.195,4.079-2.727,8.275-5.796,11.215
						c-2.974,2.85-7.292,3.752-11.581,4.799c-4.29,1.048-8.627,2.549-12.581,1.391c-4.078-1.195-6.975-4.816-9.916-7.885
						c-2.85-2.974-5.376-6.213-6.423-10.502c-1.048-4.289-0.882-8.498,0.276-12.451c1.194-4.078,3.661-7.431,6.729-10.372
						c2.974-2.85,6.12-6.229,10.41-7.277c4.289-1.048,9.059-0.932,13.012,0.226c4.079,1.195,7.065,4.779,10.006,7.847
						C253.313,168.542,256.313,171.743,257.361,176.032z"/>
					<path style="fill:#FFFFFF;" d="M242.29,171.394L242.29,171.394c2.408,1.463,3.174,4.6,1.712,7.008l-7.471,12.301
						c-0.262,0.431-0.824,0.569-1.256,0.307l-12.298-7.469c-2.408-1.463-3.175-4.601-1.712-7.01l0,0
						c1.463-2.408,4.601-3.175,7.01-1.712l3.852,2.34c0.28,0.17,0.645,0.081,0.815-0.199l2.34-3.853
						C236.744,170.698,239.882,169.932,242.29,171.394z"/>
				</g>
				<g>
					<path style="fill:#FF3171;" d="M296.028,120.56c1.793,2.909,2.137,6.295,2.225,9.481c0.092,3.287-0.037,6.742-1.596,9.637
						c-1.511,2.807-4.475,4.499-7.384,6.292c-2.909,1.793-5.745,3.931-8.931,4.02c-3.287,0.092-6.283-1.885-9.178-3.444
						c-2.807-1.511-5.437-3.294-7.23-6.202c-1.793-2.908-2.673-6.046-2.762-9.233c-0.092-3.287,0.926-6.343,2.485-9.238
						c1.511-2.807,3.023-6.044,5.931-7.837c2.908-1.793,6.448-2.843,9.634-2.932c3.287-0.092,6.34,1.836,9.235,3.395
						C291.264,116.009,294.235,117.651,296.028,120.56z"/>
					<path style="fill:#FFFFFF;" d="M290.428,127.1L290.428,127.1c1.144,1.856,0.567,4.287-1.289,5.431l-9.479,5.844
						c-0.333,0.205-0.768,0.102-0.973-0.231l-5.842-9.478c-1.144-1.856-0.567-4.288,1.289-5.433l0,0
						c1.856-1.144,4.288-0.567,5.433,1.289l1.83,2.969c0.133,0.216,0.416,0.283,0.631,0.15l2.97-1.831
						C286.853,124.668,289.284,125.245,290.428,127.1z"/>
				</g>
			</g>
			<g>
				<g>
					<g>
						<path style="fill:#3399FF;" d="M237.307,115.581c2.668,2.134,4.134,5.206,5.291,8.176c1.195,3.064,2.238,6.36,1.746,9.611
							c-0.476,3.152-2.697,5.744-4.831,8.412c-2.134,2.668-4.083,5.637-7.053,6.795c-3.064,1.195-6.55,0.343-9.802-0.148
							c-3.152-0.476-6.229-1.268-8.898-3.402c-2.669-2.134-4.555-4.792-5.713-7.761c-1.195-3.064-1.267-6.284-0.775-9.535
							c0.476-3.152,0.808-6.709,2.942-9.378c2.134-2.669,5.112-4.851,8.081-6.008c3.064-1.195,6.588-0.409,9.839,0.083
							C231.288,112.902,234.639,113.447,237.307,115.581z"/>
					</g>
					<g>
						<path style="fill:#FFFFFF;" d="M220.127,135.71h-1.824c-0.574,0-1.039-0.465-1.039-1.039v-8.018
							c0-0.574,0.465-1.039,1.039-1.039h1.824c0.574,0,1.039,0.465,1.039,1.039v8.018
							C221.166,135.244,220.701,135.71,220.127,135.71z"/>
						<path style="fill:#FFFFFF;" d="M222.609,134.509v-7.918c0-0.681,0.552-1.232,1.232-1.232h0.974c0,0,0.933-5.176,2.63-5.43
							c1.697-0.255,1.273,4.582,1.273,4.582s4.242-0.509,5.176,0.085c0.933,0.594-0.424,9.587-2.545,10.945
							c-1.601,1.025-5.764,0.503-7.71,0.185C223.043,135.627,222.609,135.112,222.609,134.509z"/>
					</g>
				</g>
				<g>
					<g>
						<path style="fill:#3399FF;" d="M250.233,66.59c3.873-0.535,7.577,0.669,10.955,2.047c3.484,1.422,7.042,3.152,9.354,6.121
							c2.241,2.878,2.644,6.763,3.179,10.636c0.535,3.873,1.464,7.83,0.086,11.208c-1.421,3.484-4.874,5.708-7.843,8.02
							c-2.878,2.241-5.959,4.172-9.832,4.707c-3.873,0.535-7.565,0.007-10.943-1.37c-3.484-1.422-6.214-3.898-8.526-6.867
							c-2.241-2.878-4.933-5.955-5.468-9.828c-0.535-3.873-0.001-8.064,1.377-11.441c1.422-3.484,4.849-5.791,7.818-8.103
							C243.268,69.478,246.359,67.125,250.233,66.59z"/>
					</g>
					<g>
						<path style="fill:#FFFFFF;" d="M249.948,95.245l-1.704,0.653c-0.536,0.205-1.137-0.063-1.342-0.599l-2.868-7.487
							c-0.205-0.536,0.063-1.137,0.599-1.342l1.703-0.653c0.536-0.205,1.137,0.063,1.342,0.599l2.868,7.487
							C250.752,94.438,250.484,95.039,249.948,95.245z"/>
						<path style="fill:#FFFFFF;" d="M251.836,93.236l-2.833-7.394c-0.243-0.635,0.074-1.348,0.71-1.592l0.909-0.348
							c0,0-0.98-5.167,0.514-6.012c1.494-0.845,2.827,3.823,2.827,3.823s3.779-1.993,4.863-1.772
							c1.084,0.221,3.034,9.105,1.538,11.131c-1.128,1.53-5.203,2.531-7.133,2.931C252.642,94.125,252.052,93.799,251.836,93.236z"
							/>
					</g>
				</g>
				<g>
					<g>
						<path style="fill:#3399FF;" d="M183.398,70.238c2.583-2.936,6.173-4.446,9.63-5.61c3.566-1.201,7.39-2.216,11.08-1.48
							c3.577,0.714,6.421,3.391,9.357,5.974c2.936,2.582,6.225,4.97,7.389,8.427c1.201,3.566,0.041,7.506-0.696,11.196
							c-0.714,3.577-1.784,7.052-4.367,9.988c-2.583,2.936-5.722,4.949-9.178,6.113c-3.566,1.201-7.251,1.11-10.941,0.374
							c-3.577-0.714-7.626-1.284-10.561-3.867s-5.27-6.104-6.434-9.56c-1.201-3.566-0.113-7.552,0.623-11.243
							C180.014,76.974,180.816,73.173,183.398,70.238z"/>
					</g>
					<g>
						<path style="fill:#FFFFFF;" d="M193.203,89.848l-1.792-0.341c-0.564-0.107-0.934-0.651-0.827-1.215l1.5-7.876
							c0.107-0.564,0.652-0.934,1.215-0.827l1.792,0.341c0.564,0.107,0.934,0.651,0.827,1.215l-1.5,7.876
							C194.311,89.585,193.767,89.955,193.203,89.848z"/>
						<path style="fill:#FFFFFF;" d="M195.866,89.133l1.481-7.778c0.127-0.669,0.773-1.107,1.441-0.98l0.956,0.182
							c0,0,1.885-4.91,3.6-4.842c1.715,0.068,0.393,4.739,0.393,4.739s4.263,0.294,5.068,1.052
							c0.806,0.758-2.211,9.339-4.548,10.276c-1.765,0.707-5.757-0.585-7.608-1.261C196.083,90.313,195.753,89.725,195.866,89.133z"
							/>
					</g>
				</g>
			</g>
			<g>
				<g>
					<g>
						
							<linearGradient id="SVGID_00000127022842288567485750000012662964077122439334_" gradientUnits="userSpaceOnUse" x1="182.4446" y1="101.1767" x2="174.0448" y2="209.9912" gradientTransform="matrix(0.9619 0.2734 -0.2734 0.9619 45.9995 -43.2955)">
							<stop  offset="0.0134" style="stop-color:#615B7F"/>
							<stop  offset="1" style="stop-color:#3A344F"/>
						</linearGradient>
						<path style="fill:url(#SVGID_00000127022842288567485750000012662964077122439334_);" d="M163.812,128.88
							c2.832-2.695,6.542-3.881,10.089-4.734c3.659-0.88,7.557-1.553,11.168-0.493c3.5,1.028,6.095,3.946,8.791,6.779
							c2.695,2.832,5.76,5.502,6.614,9.049c0.88,3.659-0.624,7.48-1.684,11.091c-1.028,3.5-2.402,6.867-5.234,9.562
							c-2.832,2.695-6.137,4.423-9.684,5.276c-3.659,0.88-7.321,0.464-10.931-0.596c-3.5-1.028-7.482-1.954-10.177-4.787
							c-2.695-2.832-4.709-6.546-5.562-10.093c-0.88-3.659,0.556-7.533,1.616-11.143C159.844,135.29,160.979,131.575,163.812,128.88
							z"/>
					</g>
				</g>
				<path style="fill:#FFFFFF;" d="M189.733,141.019l-3.294,11.59c-0.182,0.642-0.851,1.014-1.493,0.832l-12.885-3.662
					c-0.308-0.088-0.639-0.049-0.919,0.107l-2.883,1.607c-0.94,0.524-2.045-0.35-1.751-1.386l4.125-14.516
					c0.182-0.642,0.851-1.014,1.493-0.832l16.773,4.767C189.543,139.709,189.915,140.377,189.733,141.019z"/>
			</g>
		</g>
		<g>
			
				<linearGradient id="SVGID_00000016067789875744794990000001693050856456064407_" gradientUnits="userSpaceOnUse" x1="240.9227" y1="266.5394" x2="227.9414" y2="318.2102">
				<stop  offset="0.0134" style="stop-color:#615B7F"/>
				<stop  offset="1" style="stop-color:#3A344F"/>
			</linearGradient>
			<polygon style="fill:url(#SVGID_00000016067789875744794990000001693050856456064407_);" points="224.182,290.674 
				241.006,290.674 233.407,302.892 246.263,302.892 246.263,306.71 215.4,306.702 216.8,301.619 			"/>
			
				<linearGradient id="SVGID_00000181805759159903168380000015600689275889762696_" gradientUnits="userSpaceOnUse" x1="219.4223" y1="312.6359" x2="227.9504" y2="287.688">
				<stop  offset="0.0134" style="stop-color:#615B7F"/>
				<stop  offset="1" style="stop-color:#3A344F"/>
			</linearGradient>
			<path style="fill:url(#SVGID_00000181805759159903168380000015600689275889762696_);" d="M231.055,302.892v3.818h-17.691v-4.456
				l10.692-17.182h5.473c-0.384,0-11.33,17.82-11.33,17.82H231.055z"/>
			<g>
				
					<linearGradient id="SVGID_00000142172173465772698480000003614081095660490142_" gradientUnits="userSpaceOnUse" x1="256.3387" y1="188.8506" x2="214.5948" y2="293.7196">
					<stop  offset="0.0134" style="stop-color:#615B7F"/>
					<stop  offset="1" style="stop-color:#3A344F"/>
				</linearGradient>
				<path style="fill:url(#SVGID_00000142172173465772698480000003614081095660490142_);" d="M281.181,292.117H175.96
					c-1.543,0-2.793-1.251-2.793-2.794v-61.428c0-1.543,1.251-2.794,2.793-2.794h105.221c1.543,0,2.793,1.251,2.793,2.794v61.428
					C283.975,290.866,282.724,292.117,281.181,292.117z"/>
				
					<linearGradient id="SVGID_00000013162967616429789410000012346134658742623109_" gradientUnits="userSpaceOnUse" x1="222.0854" y1="198.5995" x2="257.9749" y2="399.4286">
					<stop  offset="0.0134" style="stop-color:#615B7F"/>
					<stop  offset="1" style="stop-color:#3A344F"/>
				</linearGradient>
				<path style="fill:url(#SVGID_00000013162967616429789410000012346134658742623109_);" d="M285.42,292.117H180.199
					c-1.543,0-2.793-1.251-2.793-2.794v-61.428c0-1.543,1.251-2.794,2.793-2.794H285.42c1.543,0,2.793,1.251,2.793,2.794v61.428
					C288.214,290.866,286.963,292.117,285.42,292.117z"/>
				
					<linearGradient id="SVGID_00000007396345533495251560000001545595012524664511_" gradientUnits="userSpaceOnUse" x1="222.2634" y1="220.7605" x2="270.88" y2="385.4457">
					<stop  offset="0" style="stop-color:#FFFFFF"/>
					<stop  offset="1" style="stop-color:#FFFFFF;stop-opacity:0"/>
				</linearGradient>
				<path style="opacity:0.45;fill:url(#SVGID_00000007396345533495251560000001545595012524664511_);" d="M283.129,285.074H182.49
					c-1.392,0-2.52-1.128-2.52-2.52v-52.14c0-1.392,1.128-2.52,2.52-2.52h100.639c1.392,0,2.52,1.128,2.52,2.52v52.14
					C285.649,283.946,284.521,285.074,283.129,285.074z"/>
			</g>
		</g>
		<g>
			<g>
				<defs>
					<path id="SVGID_00000110467458045761011340000014067511297874075525_" d="M160.93,372.209
						c-1.356,14.256-35.955,35.042-35.955,35.042l-12.756,8.873c-2.607-1.675-5.119-3.385-7.542-5.134
						c-12.726-9.187-22.939-19.346-30.865-30.068c-0.09-3.454-0.683-7.472-2.313-11.515c-4.411-10.941-12.048-29.948-8.823-44.882
						c3.225-14.929,6.605-22.905,1.859-30.88c-2.786-4.686-5.752-10.777-5.174-15.388c0.16-1.321,0.618-2.517,1.451-3.529
						c1.211-1.461,3.21-2.522,6.276-2.976c12.556-1.864,15.273,4.242,22.401,0c7.128-4.242,19.176-18.498,24.435-9.67
						c5.259,8.823-1.824,22.227,3.669,20.871c5.493-1.356,2.612-18.498,14.151-18.668c11.535-0.169,28.293,21.554,21.419,42.424
						c-6.869,20.871-14.725,44.289-12.556,48.531C142.771,359.483,162.286,357.958,160.93,372.209z"/>
				</defs>
				<clipPath id="SVGID_00000052800488772394641090000012470321567849273786_">
					<use xlink:href="#SVGID_00000110467458045761011340000014067511297874075525_"  style="overflow:visible;"/>
				</clipPath>
				<g style="clip-path:url(#SVGID_00000052800488772394641090000012470321567849273786_);">
					<g>
						
							<linearGradient id="SVGID_00000112615799295525122800000013939657294422407857_" gradientUnits="userSpaceOnUse" x1="201.6326" y1="325.5307" x2="95.8755" y2="410.6707" gradientTransform="matrix(0.9999 -0.0156 0.0156 0.9999 -6.7508 -0.0617)">
							<stop  offset="0.0134" style="stop-color:#615B7F"/>
							<stop  offset="1" style="stop-color:#3A344F"/>
						</linearGradient>
						<path style="fill:url(#SVGID_00000112615799295525122800000013939657294422407857_);" d="M98.598,401.114
							c10.612-26.811,42.499-43.103,49.356-36.586c6.857,6.517,3.475,18.11-11.223,22.413
							c-14.698,4.303-30.487,14.733-33.918,23.272C99.383,418.752,98.598,401.114,98.598,401.114z"/>
						<path style="opacity:0.25;fill:none;stroke:#FFFFFF;stroke-width:0.4985;stroke-miterlimit:10;" d="M99.206,407.583
							c0,0,18.433-34.942,51.767-38.177"/>
						<polyline style="opacity:0.25;fill:none;stroke:#FFFFFF;stroke-width:0.4985;stroke-miterlimit:10;" points="131.183,366.618 
							128.949,376.662 140.606,385.531 						"/>
						<polyline style="opacity:0.25;fill:none;stroke:#FFFFFF;stroke-width:0.4985;stroke-miterlimit:10;" points="118.087,375.181 
							117.479,385.005 125.937,391.086 						"/>
						<polyline style="opacity:0.25;fill:none;stroke:#FFFFFF;stroke-width:0.4985;stroke-miterlimit:10;" points="110.945,381.93 
							109.652,392.919 115.353,397.122 						"/>
					</g>
					<g>
						
							<linearGradient id="SVGID_00000137094235532113103430000008547242855968926622_" gradientUnits="userSpaceOnUse" x1="89.3031" y1="416.5813" x2="153.6992" y2="265.8998" gradientTransform="matrix(0.9999 -0.0156 0.0156 0.9999 -6.7508 -0.0617)">
							<stop  offset="0.0134" style="stop-color:#52D875"/>
							<stop  offset="1" style="stop-color:#DBE55A"/>
						</linearGradient>
						<path style="fill:url(#SVGID_00000137094235532113103430000008547242855968926622_);" d="M95.242,403.543
							c-6.766-20.26-0.817-35.966,0.538-36.157c1.355-0.191,1.798,6.421,3.493,6.31c1.695-0.111-1.156-8.807-0.168-10.732
							c0.988-1.925,7.359-12.377,9.721-13.262c2.362-0.885,1.801,6.675,4.335,5.872c2.533-0.803-1.664-8.714-0.207-13.234
							c1.457-4.52,6.014-6.119,7.163-8.598c1.149-2.479,0.443-4.25,2.55-5.131c2.108-0.882,1.821,7.948,4.417,5.701
							c2.595-2.247-0.575-5.422-1.667-12.278c-1.093-6.856,2.81-19.306,2.144-23.114c-0.666-3.808,1.625-3.844,3-2.762
							s2.162-2.834,0.954-4.088c-1.208-1.254-5.314-3.396-5.906-8.648c-0.591-5.252,3.111-12.692,10.385-14.164
							c-5.554,8.403,8.138,26.602,7.067,34.086c-1.071,7.484-10.594,17.137-10.399,18.746c0.195,1.609,6.438-2.307,7.556-0.543
							c1.118,1.764-3.036,7.43-3.081,15.407c-0.045,7.977-3.23,15.919-5.912,18.082c-2.681,2.163-8.705,2.258-8.336,4.119
							c0.368,1.861,3.075,0.037,3.143,2.327c0.069,2.29-11.611,9.685-12.753,12.588c-1.143,2.903-6.686,1.123-7.838,3.432
							c-1.152,2.309,2.293,0.134,3.089,2.158c0.795,2.024-4.087,4.561-4.845,10.343c-0.758,5.782-1.345,17.077-5.835,17.572
							s-3.032-3.941-3.032-3.941"/>
						<path style="opacity:0.25;fill:none;stroke:#FFFFFF;stroke-width:0.4985;stroke-miterlimit:10;" d="M135.993,269.257
							c-5.046,5.595-5.957,12.482-3.567,18.809c2.39,6.327,6.269,10.212,0.979,21.877c-5.291,11.666,1.45,11.306-2.137,26.127
							c-3.587,14.821-23.889,26.976-29.454,37.373c-5.565,10.397-5.454,34.087-5.454,34.087"/>
					</g>
					<g>
						<path style="fill:#FFFFFF;" d="M108.632,329.773c-11.064,1.407-17.422,8.027-20.009,11.421
							c0.594-4.118,1.232-8.03,1.819-11.623c0.399-2.439,0.772-4.732,1.099-6.873c3.792-1.814,15.697-8.117,17.486-16.499
							c-9.719,3.065-14.797,9.713-17.082,13.737c0.273-1.967,0.488-3.774,0.613-5.38c0.229-2.947,0.162-5.854-0.107-8.66
							c2.982-1.847,15.011-9.818,15.825-18.727c-10.66,4.819-14.688,13.602-15.971,17.352c-0.695-5.777-2.217-11.058-3.763-15.27
							c3.233-2.496,13.706-11.248,13.681-19.889c-9.926,5.666-13.196,14.505-14.204,18.502c-1.99-5.115-3.87-8.335-3.913-8.408
							c-0.211-0.355-0.669-0.473-1.024-0.263c-0.355,0.211-0.473,0.669-0.262,1.025c0.044,0.074,2.052,3.52,4.092,8.923
							c-2.219-2.459-9.807-9.666-22.375-9.476c4.717,8.035,20.005,9.971,22.662,10.25c1.521,4.168,3.006,9.391,3.658,15.092
							c-2.333-2.981-9.139-10.176-21.068-11.121c3.768,8.072,17.681,11.501,21.187,12.248c0.251,2.693,0.31,5.48,0.091,8.305
							c-0.18,2.316-0.55,5.066-1.021,8.149c-1.384-2.513-7.245-11.727-20.031-14.294c2.898,8.817,17.331,13.939,19.953,14.805
							c-0.302,1.952-0.642,4.035-1.001,6.23c-0.651,3.983-1.364,8.346-2.012,12.957c-1.063-3.028-5.292-12.724-17.086-17.395
							c1.281,9.174,14.524,16.773,16.987,18.113c-0.733,5.31-1.371,10.933-1.722,16.676c-2.012-4.186-6.603-11.115-16.018-14.844
							c1.146,8.209,11.869,15.156,15.878,17.487c-0.673,15.017,0.792,30.619,7.785,43.304c0.138,0.251,0.399,0.391,0.667,0.387
							c0.118-0.002,0.238-0.032,0.349-0.093c0.361-0.199,0.493-0.654,0.294-1.016c-6.714-12.179-8.211-27.201-7.629-41.766
							c0.021,0.011,0.038,0.02,0.038,0.02s-0.012-0.045-0.034-0.12c0.281-6.929,1.028-13.75,1.913-20.113
							C92.304,341.862,105.349,337.776,108.632,329.773z"/>
						<path style="fill:#FFFFFF;" d="M107.88,349.719c-15.025,1.911-21.381,13.442-21.381,13.442S104.002,359.172,107.88,349.719z"
							/>
					</g>
				</g>
			</g>
			<g>
				<defs>
					<path id="SVGID_00000135673910831440741260000000668057219827039675_" d="M330.125,448.071
						c-11.535,3.514-24.774,5.947-39.927,7.018c-6.126-8.584-21.07-31.179-21.404-47.838c-0.07-3.305,0.439-6.38,1.705-9.062
						c9.301-19.699,26.678-14.864,42.549,9.062C322.778,421.917,327.742,437.897,330.125,448.071z"/>
				</defs>
				<clipPath id="SVGID_00000171718167322259355930000000309864492758765701_">
					<use xlink:href="#SVGID_00000135673910831440741260000000668057219827039675_"  style="overflow:visible;"/>
				</clipPath>
				<g style="clip-path:url(#SVGID_00000171718167322259355930000000309864492758765701_);">
					
						<linearGradient id="SVGID_00000142176773882085351770000010968294228082833838_" gradientUnits="userSpaceOnUse" x1="316.1022" y1="475.8943" x2="280.2125" y2="372.5521">
						<stop  offset="0.0134" style="stop-color:#52D875"/>
						<stop  offset="1" style="stop-color:#DBE55A"/>
					</linearGradient>
					<path style="fill:url(#SVGID_00000142176773882085351770000010968294228082833838_);" d="M299.822,455.953
						c-4.119-7.27-4.412-10.69-1.697-12.812c2.715-2.121-3.733,0.509-5.854-3.903c-2.121-4.412-4.242-9.418,0-13.151
						c4.242-3.733-5.345-0.509-10.012-7.127c-4.667-6.618-0.972-17.054-3.413-22.145c15.037,2.121,13.425,12.897,20.976,16.375
						c7.551,3.479,2.63,10.521,3.394,12.472c0.764,1.951,3.394-3.648,7.212-0.339c3.818,3.309,4.073,8.4,3.903,11.878
						c-0.17,3.479-4.921,4.497-2.461,6.024c2.461,1.527,5.549-1.103,6.805,1.018c1.256,2.121,5.837,8.4,1.595,11.709
						C316.027,459.262,301.943,459.697,299.822,455.953z"/>
					<path style="opacity:0.25;fill:none;stroke:#FFFFFF;stroke-width:0.4985;stroke-miterlimit:10;" d="M278.845,396.816
						c0,0,14.104,10.199,19.364,30.892c5.26,20.694,16.1,30.422,16.1,30.422"/>
				</g>
			</g>
			<g>
				<g>
					<path style="fill:#FFFFFF;" d="M400.499,166.621c1.969,6.171,4.357,12.292,7.318,17.985c-0.329,0.454-0.658,0.897-0.992,1.331
						c-3.28-6.181-5.872-12.865-7.98-19.58c-4.566-0.822-17.018-3.689-20.901-11.011c10.124,0.289,16.803,5.229,20.128,8.474
						c-1.635-5.513-2.956-11.016-4.082-16.26c-2.776-0.414-17.815-3.031-22.157-11.216c12.681,0.359,19.969,8.025,22.002,10.508
						c-0.967-4.556-1.79-8.898-2.537-12.865c-0.414-2.183-0.807-4.257-1.191-6.196c-2.757,0.085-18.074,0.204-23.812-7.093
						c12.895-1.959,21.554,4.701,23.712,6.59c-0.613-3.061-1.201-5.772-1.824-8.01c-0.758-2.727-1.77-5.329-2.926-7.771
						c-3.549,0.493-17.795,2.029-24.096-4.272c11.535-3.19,20.387,1.246,23.603,3.25c-2.562-5.134-5.742-9.536-8.599-12.93
						c-2.592,0.643-17.621,4.052-24.799-1.889c11.744-4.471,21.339-0.294,24.266,1.261c-3.763-4.382-6.829-6.934-6.894-6.989
						c-0.319-0.264-0.369-0.733-0.105-1.052c0.259-0.319,0.733-0.369,1.052-0.105c0.065,0.055,2.931,2.438,6.55,6.565
						c-0.419-4.102-0.369-13.528,7.023-22.242c2.981,8.11-3.873,19.914-6.056,23.363c2.891,3.429,6.126,7.876,8.753,13.065
						c-0.075-3.963,0.708-13.593,9.077-21.763c2.283,8.648-6.296,20.253-8.469,23.004c1.211,2.547,2.268,5.254,3.061,8.105
						c0.429,1.55,0.847,3.325,1.261,5.264c0.773-4.561,3.275-12.547,11.36-18.747c1.181,8.489-7.851,18.483-10.792,21.484
						c0.424,2.124,0.857,4.406,1.316,6.834c0.673,3.574,1.411,7.472,2.263,11.544c1.266-4.072,4.98-12.467,14.899-17.571
						c-0.349,8.643-11.215,16.938-14.54,19.281c1.346,6.286,2.976,12.95,5.079,19.56c0.045,0.06,0.07,0.1,0.07,0.1
						S400.519,166.621,400.499,166.621z"/>
					<path style="fill:#FFFFFF;" d="M416.039,146.686c-13.466,6.931-15.499,19.94-15.499,19.94S415.626,156.895,416.039,146.686z"/>
				</g>
			</g>
		</g>
		<g>
			<path style="fill:#2A1D3A;" d="M354.92,168.471c-2.079-1.017-2.717-0.294-3.056,0.553c0,0,0.13,1.61-0.169,1.61
				c-0.294,0-5.473-6.869-5.473-6.869s-7.661,2.243-14.301,0.663c-2.781-0.663-5.378-1.994-7.163-4.441
				c-3.519-4.835-1.74-5.937-1.316-6.151c0.424-0.214,3.14,1.909,4.541,1.485c0.125-0.638-2.562-4.157-0.593-5.812
				c1.057-0.892,1.44,1.356,6.276,1.525c4.835,0.17,10.393-1.78,14.381,0.214c3.988,1.994,3.848,6.405,3.848,6.405
				s2.732-0.593,4.426,1.994C358.016,162.235,354.835,167.663,354.92,168.471z"/>
			
				<linearGradient id="SVGID_00000156578837483279182280000009215786681027524796_" gradientUnits="userSpaceOnUse" x1="636.4277" y1="383.4197" x2="635.3295" y2="397.787" gradientTransform="matrix(-1 0 0 1 996.27 0)">
				<stop  offset="2.700000e-07" style="stop-color:#FC9F86"/>
				<stop  offset="1" style="stop-color:#FFE4CA"/>
			</linearGradient>
			<path style="fill:url(#SVGID_00000156578837483279182280000009215786681027524796_);" d="M354.079,389.895l1.201,7.432
				c0,0,2.796,0.847,4.666,0c1.864-0.852,6.527-4.541,6.527-4.541v-4.476C362.935,390.732,357.04,390.922,354.079,389.895z"/>
			
				<linearGradient id="SVGID_00000160911610650294153370000007329923893611710850_" gradientUnits="userSpaceOnUse" x1="624.704" y1="384.1801" x2="627.419" y2="415.8274" gradientTransform="matrix(-1 0 0 1 996.27 0)">
				<stop  offset="0.0134" style="stop-color:#615B7F"/>
				<stop  offset="1" style="stop-color:#3A344F"/>
			</linearGradient>
			<path style="fill:url(#SVGID_00000160911610650294153370000007329923893611710850_);" d="M367.772,391.853
				c-1.403-1.295-8.093,5.838-9.479,5.838c-1.386,0-2.665-0.993-3.084-0.807c-0.418,0.186-2.518,7.568-2.518,10.368h33.344
				c0,0,1.464-3.5,0.318-5.536C385.208,399.679,372.736,396.434,367.772,391.853z"/>
			
				<linearGradient id="SVGID_00000103947660572679570020000007277127710799831949_" gradientUnits="userSpaceOnUse" x1="352.5933" y1="455.8945" x2="333.5637" y2="238.3414">
				<stop  offset="0.0134" style="stop-color:#615B7F"/>
				<stop  offset="1" style="stop-color:#3A344F"/>
			</linearGradient>
			<path style="fill:url(#SVGID_00000103947660572679570020000007277127710799831949_);" d="M369.586,388.215
				c-1.436,2.547-14.092,4.073-16.893,1.276c-2.801-2.801-9.541-87.845-9.541-87.845s-8.683,86.245-9.446,87.262
				c-0.169,0.229-0.907,0.613-1.984,0.987c-0.483,0.169-1.032,0.334-1.635,0.484c-3.081,0.773-7.452,1.126-10.413-0.902
				c-0.912-0.623-1.69-1.475-2.258-2.607c-0.508-1.017-0.768-3.868-0.832-8.085c-0.339-20.741,3.948-74.511,5.732-105.082
				c0.14-2.333,0.259-4.531,0.364-6.57c0.085-1.715,0.159-3.31,0.219-4.78c2.976,3.046,7.721,6.5,8.643,5.189
				c0.414-0.593,0.478-2.099,0.399-4.272c3.275,1.889,10.308,4.571,20.642,1.226c0.454,3.444,1.017,5.593,1.715,5.717
				c1.53,0.269,4.347,0.13,7.213-0.379c1.401-2.871,3.165-5.872,2.527-6.749c-1.017-1.396-4.835-0.379-4.71-2.034
				c0-0.02,0.005-0.045,0.01-0.065c0-0.015,0.005-0.03,0.01-0.045c0-0.005,0-0.01,0.005-0.015c0.005-0.02,0.01-0.04,0.015-0.055
				c0.005-0.025,0.015-0.05,0.03-0.075c0.005-0.02,0.015-0.04,0.03-0.065c0.015-0.03,0.035-0.065,0.06-0.1
				c0.01-0.02,0.025-0.04,0.04-0.065c0.005-0.005,0.005-0.005,0.01-0.01c0.02-0.035,0.05-0.07,0.08-0.105
				c0.015-0.015,0.03-0.035,0.045-0.05c0.045-0.055,0.095-0.105,0.145-0.16c0.155-0.15,0.344-0.309,0.558-0.464
				c0.085-0.065,0.174-0.13,0.269-0.194c0.055-0.04,0.11-0.08,0.17-0.115c0.07-0.05,0.145-0.1,0.219-0.145
				c0.194-0.125,0.404-0.254,0.623-0.384c0.01-0.01,0.025-0.015,0.035-0.02c0.02-0.015,0.04-0.025,0.065-0.04
				c0.07-0.04,0.145-0.085,0.224-0.13c0.065-0.04,0.13-0.075,0.194-0.115c0.399-0.229,0.823-0.464,1.261-0.708
				c0.075-0.04,0.15-0.085,0.224-0.125c0.264-0.145,0.533-0.294,0.798-0.444c0.528,2.104,1.132,9.271,1.74,19.231v0.005
				c0.105,1.735,0.209,3.559,0.319,5.463C368.584,319.496,370.657,386.321,369.586,388.215z"/>
			
				<linearGradient id="SVGID_00000183233932722168069690000011442436052010787000_" gradientUnits="userSpaceOnUse" x1="368.1634" y1="216.7221" x2="333.2918" y2="299.1919">
				<stop  offset="0" style="stop-color:#000000"/>
				<stop  offset="1" style="stop-color:#000000;stop-opacity:0"/>
			</linearGradient>
			<path style="opacity:0.45;fill:url(#SVGID_00000183233932722168069690000011442436052010787000_);" d="M366.505,282.061
				c-6.979-8.08-15.168-1.346-21.05-7.806c-6.49-7.128-11.325-1.779-18.319-4.581c-2.039-0.818-3.464-1.7-4.456-2.542
				c0.085-1.715,0.159-3.31,0.219-4.78c2.976,3.046,7.721,6.5,8.643,5.189c0.414-0.593,0.478-2.099,0.399-4.272
				c3.275,1.889,10.308,4.571,20.642,1.226c0.454,3.444,1.017,5.593,1.715,5.717c1.53,0.269,4.347,0.13,7.213-0.379
				c1.401-2.871,3.165-5.872,2.527-6.749c-1.017-1.396-4.835-0.379-4.71-2.034c0-0.02,0.005-0.045,0.01-0.065
				c0-0.015,0.005-0.03,0.01-0.045c0-0.005,0-0.01,0.005-0.015c0.005-0.02,0.01-0.04,0.015-0.055c0.005-0.025,0.015-0.05,0.03-0.075
				c0.005-0.02,0.015-0.04,0.03-0.065c0.015-0.03,0.035-0.065,0.06-0.1c0.01-0.02,0.025-0.04,0.04-0.065
				c0.005-0.005,0.005-0.005,0.01-0.01c0.02-0.035,0.05-0.07,0.08-0.105c0.015-0.015,0.03-0.035,0.045-0.05
				c0.045-0.055,0.095-0.105,0.145-0.16c0.155-0.15,0.344-0.309,0.558-0.464c0.085-0.065,0.174-0.13,0.269-0.194
				c0.055-0.04,0.11-0.08,0.17-0.115c0.07-0.05,0.145-0.1,0.219-0.145c0.194-0.125,0.404-0.254,0.623-0.384
				c0.01-0.01,0.025-0.015,0.035-0.02c0.02-0.015,0.04-0.025,0.065-0.04c0.07-0.04,0.145-0.085,0.224-0.13
				c0.065-0.04,0.13-0.075,0.194-0.115c0.399-0.229,0.823-0.464,1.261-0.708c0.075-0.04,0.15-0.085,0.224-0.125
				c0.264-0.145,0.533-0.294,0.798-0.444c0.528,2.104,1.132,9.271,1.74,19.231v0.005
				C366.291,278.333,366.395,280.157,366.505,282.061z"/>
			
				<linearGradient id="SVGID_00000179637723241374421800000017245833132123948678_" gradientUnits="userSpaceOnUse" x1="342.8819" y1="334.175" x2="341.3548" y2="218.4903">
				<stop  offset="0.0134" style="stop-color:#AF99FF"/>
				<stop  offset="1" style="stop-color:#EDE6FF"/>
			</linearGradient>
			<path style="fill:url(#SVGID_00000179637723241374421800000017245833132123948678_);" d="M354.647,231.342
				c0,0.982,0,1.959-0.005,2.926c0,2.831-0.005,5.593-0.015,8.225c0,0.997-0.005,1.974-0.005,2.926
				c-0.01,3.006-0.02,5.787-0.035,8.225c-0.005,1.042-0.01,2.019-0.015,2.926c-0.02,4.476-0.04,7.238-0.04,7.238
				c-0.663,0.254-1.311,0.484-1.949,0.688c-10.333,3.345-17.367,0.663-20.642-1.226c-1.386-0.802-2.099-1.465-2.099-1.465
				l-0.593-2.323c0,0-0.045-1.161-0.11-2.911c-0.035-0.857-0.075-1.854-0.12-2.926c-0.11-2.642-0.239-5.722-0.364-8.225
				c-0.06-1.127-0.115-2.133-0.169-2.926c-0.065-1.057-0.125-1.745-0.169-1.849c-0.12-0.274,0.045-3.25,0.254-6.375
				c0.065-0.987,0.135-1.989,0.204-2.926c0.179-2.512,0.344-4.551,0.344-4.551s0.08-1.416,0.239-3.669
				c0.06-0.862,0.13-1.849,0.214-2.926c0.189-2.408,0.429-5.269,0.728-8.225c0.1-0.967,0.204-1.949,0.314-2.926
				c0.324-2.876,0.698-5.727,1.122-8.225c0.179-1.047,0.364-2.029,0.563-2.926c0.264-1.236,0.553-2.303,0.852-3.15
				c2.547-7.153,7.143-8.888,7.427-8.987c0.01-0.005,0.015-0.005,0.015-0.005l10.268-1.635c0,0,0.259,0.085,0.643,0.319
				c0.628,0.379,1.6,1.156,2.348,2.607c0.269,0.523,0.454,4.701,0.578,10.852c0.015,0.932,0.035,1.909,0.05,2.926
				c0.04,2.527,0.07,5.299,0.095,8.225c0.005,0.962,0.015,1.934,0.02,2.926c0.015,2.662,0.03,5.423,0.035,8.225
				c0.005,0.972,0.005,1.949,0.005,2.926C354.647,225.864,354.647,228.626,354.647,231.342z"/>
			<g>
				
					<linearGradient id="SVGID_00000066476431338829674640000009215785738874614407_" gradientUnits="userSpaceOnUse" x1="347.3238" y1="189.9518" x2="332.3749" y2="225.708">
					<stop  offset="0" style="stop-color:#000000"/>
					<stop  offset="1" style="stop-color:#000000;stop-opacity:0"/>
				</linearGradient>
				<path style="opacity:0.45;fill:url(#SVGID_00000066476431338829674640000009215785738874614407_);" d="M354.482,200.821h-22.745
					c0.179-1.047,0.364-2.029,0.563-2.926h22.132C354.447,198.827,354.467,199.804,354.482,200.821z"/>
				
					<linearGradient id="SVGID_00000179618840509383364930000016888883586467068339_" gradientUnits="userSpaceOnUse" x1="346.7712" y1="200.5466" x2="331.0269" y2="238.2054">
					<stop  offset="0" style="stop-color:#000000"/>
					<stop  offset="1" style="stop-color:#000000;stop-opacity:0"/>
				</linearGradient>
				<path style="opacity:0.45;fill:url(#SVGID_00000179618840509383364930000016888883586467068339_);" d="M354.597,211.972h-24.295
					c0.1-0.967,0.204-1.949,0.314-2.926h23.961C354.582,210.008,354.592,210.98,354.597,211.972z"/>
				
					<linearGradient id="SVGID_00000090279086160430869560000009508884196237820814_" gradientUnits="userSpaceOnUse" x1="346.4124" y1="211.3573" x2="330.1661" y2="250.2167">
					<stop  offset="0" style="stop-color:#000000"/>
					<stop  offset="1" style="stop-color:#000000;stop-opacity:0"/>
				</linearGradient>
				<path style="opacity:0.45;fill:url(#SVGID_00000090279086160430869560000009508884196237820814_);" d="M354.637,223.123h-25.277
					c0.06-0.862,0.13-1.849,0.214-2.926h25.058C354.637,221.169,354.637,222.146,354.637,223.123z"/>
				
					<linearGradient id="SVGID_00000106125088233439309220000009242438710515446182_" gradientUnits="userSpaceOnUse" x1="346.1251" y1="222.2424" x2="329.4748" y2="262.0681">
					<stop  offset="0" style="stop-color:#000000"/>
					<stop  offset="1" style="stop-color:#000000;stop-opacity:0"/>
				</linearGradient>
				<path style="opacity:0.45;fill:url(#SVGID_00000106125088233439309220000009242438710515446182_);" d="M354.647,231.342
					c0,0.982,0,1.959-0.005,2.926h-26.07c0.065-0.987,0.135-1.989,0.204-2.926H354.647z"/>
				
					<linearGradient id="SVGID_00000036931534808524429330000017733380148076346043_" gradientUnits="userSpaceOnUse" x1="345.9844" y1="233.3602" x2="329.3867" y2="273.0599">
					<stop  offset="0" style="stop-color:#000000"/>
					<stop  offset="1" style="stop-color:#000000;stop-opacity:0"/>
				</linearGradient>
				<path style="opacity:0.45;fill:url(#SVGID_00000036931534808524429330000017733380148076346043_);" d="M354.627,242.493
					c0,0.997-0.005,1.974-0.005,2.926h-25.965c-0.06-1.127-0.115-2.133-0.169-2.926H354.627z"/>
				
					<linearGradient id="SVGID_00000082352385397133389230000010118235280529450156_" gradientUnits="userSpaceOnUse" x1="346.153" y1="244.6857" x2="329.8189" y2="283.7551">
					<stop  offset="0" style="stop-color:#000000"/>
					<stop  offset="1" style="stop-color:#000000;stop-opacity:0"/>
				</linearGradient>
				<path style="opacity:0.45;fill:url(#SVGID_00000082352385397133389230000010118235280529450156_);" d="M354.587,253.644
					c-0.005,1.042-0.01,2.019-0.015,2.926H329.14c-0.035-0.857-0.075-1.854-0.12-2.926H354.587z"/>
			</g>
			
				<linearGradient id="SVGID_00000064327830806311330380000003772449600944051641_" gradientUnits="userSpaceOnUse" x1="345.3719" y1="160.1664" x2="345.4567" y2="195.2076">
				<stop  offset="2.700000e-07" style="stop-color:#FC9F86"/>
				<stop  offset="1" style="stop-color:#FFE4CA"/>
			</linearGradient>
			<path style="fill:url(#SVGID_00000064327830806311330380000003772449600944051641_);" d="M350.953,186.146
				c-1.485,3.559-8.823,4.073-10.393,0.633c0.09-0.713,0.04-1.336-0.08-1.869c-0.135-0.598-0.359-1.077-0.578-1.441
				c8.04-0.608,10.009-8.16,10.238-9.187c-0.409,2.552,0.708,7.397,0.807,10.926C350.963,185.533,350.963,185.847,350.953,186.146z"
				/>
			
				<linearGradient id="SVGID_00000060717324265141883980000011708515981918111402_" gradientUnits="userSpaceOnUse" x1="375.7218" y1="292.6705" x2="361.9768" y2="158.275">
				<stop  offset="0.0134" style="stop-color:#906FD8"/>
				<stop  offset="1" style="stop-color:#73B1F4"/>
			</linearGradient>
			<path style="fill:url(#SVGID_00000060717324265141883980000011708515981918111402_);" d="M388.597,220.197
				c0,0-7.945,3.863-12.492,8.838c-0.404,0.439-0.778,0.887-1.121,1.346c-2.313-4.362-4.008-7.043-5.104-8.609
				c-1.012-1.451-1.515-1.954-1.515-1.954s-0.02,3.245-0.015,7.711c0.01,7.208,0.08,17.601,0.394,22.705
				c0.08,1.286,0.214,2.462,0.379,3.544c-0.234,0.324-0.449,0.588-0.633,0.783c-0.678,0.713-1.685,1.406-2.786,2.074h-0.005
				c-0.249,0.15-0.503,0.299-0.758,0.444l-0.493,0.284c-0.977,0.548-1.959,1.077-2.801,1.58c-0.219,0.13-0.429,0.259-0.623,0.384
				c-0.135,0.085-0.264,0.17-0.389,0.259c-0.095,0.065-0.184,0.125-0.269,0.194c-0.214,0.155-0.404,0.314-0.558,0.464
				c-0.05,0.055-0.105,0.11-0.145,0.16c-0.06,0.065-0.115,0.13-0.155,0.194c-0.03,0.045-0.06,0.09-0.08,0.135
				c-0.025,0.045-0.04,0.085-0.055,0.125c-0.01,0.02-0.015,0.045-0.02,0.07c-0.015,0.04-0.02,0.085-0.025,0.125
				c-0.125,1.655,3.694,0.638,4.71,2.034c0.638,0.877-1.126,3.878-2.527,6.749c-2.866,0.508-5.682,0.648-7.213,0.379
				c-0.598-0.11-1.102-1.71-1.52-4.352c-0.065-0.429-0.13-0.882-0.194-1.366c-1.889-14.401-1.824-51.437-1.625-57.533
				c0.354-10.438,3.39-16.529,0.548-22.526c-0.005-0.005-0.005-0.015-0.01-0.02c2.826,0.643,15.188,4.028,25.267,15.672
				C388.218,213.323,388.597,220.197,388.597,220.197z"/>
			
				<linearGradient id="SVGID_00000092456659706036583970000007416846160318491805_" gradientUnits="userSpaceOnUse" x1="331.052" y1="267.8172" x2="322.8447" y2="187.5679">
				<stop  offset="0.0134" style="stop-color:#906FD8"/>
				<stop  offset="1" style="stop-color:#73B1F4"/>
			</linearGradient>
			<path style="fill:url(#SVGID_00000092456659706036583970000007416846160318491805_);" d="M340.595,185.753
				c0,0-0.005,0-0.015,0.005c-0.214,0.115-3.14,1.69-4.117,6.101c-0.414,1.854-1.216,9.297-2.059,18.209
				c-0.713,7.557-1.461,16.17-2.014,23.343c-0.409,5.229-0.718,9.69-0.847,12.412c-0.329,7.063,0.269,13.409,0.399,17.446
				c0.08,2.173,0.015,3.679-0.399,4.272c-0.922,1.311-5.668-2.143-8.643-5.189c-0.508-0.518-0.962-1.022-1.336-1.49
				c-0.279-0.344-0.513-0.663-0.693-0.957c-1.072-1.735,0.055-9.929,1.321-17.581c0.957-5.827,2.004-11.345,2.223-13.474
				c-1.47-1.376-5.922-1.809-9.695-2.128c-0.199-0.015-0.399-0.035-0.593-0.05c-0.294-0.025-0.578-0.05-0.857-0.075
				c-0.459-0.04-0.892-0.08-1.301-0.12c-0.239-0.025-0.474-0.05-0.693-0.075c-0.199-0.025-0.389-0.05-0.568-0.075
				c-0.02,0-0.045-0.005-0.065-0.01c-0.07-0.01-0.134-0.02-0.194-0.03c-0.08-0.01-0.159-0.025-0.234-0.04
				c-0.015,0-0.03,0-0.04-0.005c-0.224-0.04-0.429-0.085-0.603-0.13c-0.125-0.03-0.239-0.065-0.334-0.105
				c-0.09-0.035-0.169-0.07-0.234-0.11c-0.065-0.04-0.115-0.085-0.15-0.13c-0.015-0.02-0.025-0.04-0.035-0.06
				c-0.01-0.03-0.015-0.055-0.015-0.08c0-1.181,5.224-28.133,22.935-37.166C334.399,187.109,337.345,186.151,340.595,185.753z"/>
			
				<linearGradient id="SVGID_00000062155305789036670140000013573692504387508918_" gradientUnits="userSpaceOnUse" x1="371.3496" y1="179.1615" x2="291.9343" y2="270.7946">
				<stop  offset="0" style="stop-color:#000000"/>
				<stop  offset="1" style="stop-color:#000000;stop-opacity:0"/>
			</linearGradient>
			<path style="opacity:0.45;fill:url(#SVGID_00000062155305789036670140000013573692504387508918_);" d="M328.273,205.248
				c-0.14,0.768-5.468,29.609-3.574,36.598c1.635,6.041-3.12,11.47-3.135,19.016c-0.279-0.344-0.513-0.663-0.693-0.957
				c-1.072-1.735,0.055-9.929,1.321-17.581c0.957-5.827,2.004-11.345,2.223-13.474c-1.47-1.376-5.922-1.809-9.695-2.128
				c-1.142-0.1-2.223-0.184-3.14-0.284c0.269-1.137,1.072-2.612,3.245-3.808c4.162-2.293,2.123-7.467,6.196-8.738
				C324.988,212.65,328.113,205.612,328.273,205.248z"/>
			
				<linearGradient id="SVGID_00000078752286747345532000000000787133841592769680_" gradientUnits="userSpaceOnUse" x1="392.1708" y1="181.9391" x2="363.9173" y2="290.1173">
				<stop  offset="2.700000e-07" style="stop-color:#FC9F86"/>
				<stop  offset="1" style="stop-color:#FFE4CA"/>
			</linearGradient>
			<path style="fill:url(#SVGID_00000078752286747345532000000000787133841592769680_);" d="M372.307,263.768
				c-1.017,1.695-4.072,10.094-5.129,11.879c-1.062,1.78-3.439,1.226-4.242,1.61c-0.808,0.384-1.615,2.926-2.592,2.208
				c-0.972-0.723-0.379-2.079-0.379-5.134c0-1.137,0.708-2.796,1.545-4.496c1.401-2.871,3.165-5.872,2.527-6.749
				c-1.017-1.396-4.835-0.379-4.71-2.034c0.005-0.04,0.01-0.085,0.025-0.125c0.005-0.025,0.01-0.05,0.02-0.07
				c0.015-0.04,0.03-0.08,0.055-0.125c0.02-0.045,0.05-0.09,0.08-0.135c0.04-0.065,0.095-0.13,0.155-0.194
				c0.045-0.055,0.095-0.105,0.145-0.16c0.155-0.15,0.344-0.309,0.558-0.464c0.085-0.07,0.174-0.13,0.269-0.194
				c0.125-0.09,0.254-0.174,0.389-0.259c0.194-0.125,0.404-0.254,0.623-0.384c0.842-0.504,1.824-1.032,2.801-1.58l0.493-0.284
				c0.254-0.145,0.508-0.294,0.758-0.444h0.005c1.102-0.668,2.109-1.361,2.786-2.074c0.184-0.194,0.399-0.459,0.633-0.783
				c2.841-3.888,8.798-16.464,5.862-23.398c0.344-0.459,0.718-0.907,1.121-1.346c4.546-4.975,12.492-8.838,12.492-8.838
				C395.94,250.234,373.329,262.068,372.307,263.768z"/>
			<path style="fill:#2A1D3A;" d="M344.813,220.892l-8.409,1.23c-0.51,0.075-0.984-0.278-1.058-0.788l-2.739-18.729
				c-0.074-0.51,0.278-0.984,0.788-1.058l8.408-1.23c0.51-0.075,0.984,0.278,1.058,0.788l2.739,18.73
				C345.675,220.343,345.322,220.817,344.813,220.892z"/>
			
				<linearGradient id="SVGID_00000136413567634705581020000004228148543051264401_" gradientUnits="userSpaceOnUse" x1="285.3213" y1="249.2095" x2="358.6292" y2="209.2465">
				<stop  offset="2.700000e-07" style="stop-color:#FC9F86"/>
				<stop  offset="1" style="stop-color:#FFE4CA"/>
			</linearGradient>
			<path style="fill:url(#SVGID_00000136413567634705581020000004228148543051264401_);" d="M346.158,218.796
				c-0.573,4.072-2.547,5.408-7.766,8.584c-1.72,1.047-3.739,3.43-6.002,6.032c-3.011,3.454-6.45,7.298-10.199,8.913
				c-2.009,0.862-4.097,1.087-6.261,0.274c-1.745-0.658-3.155-1.431-4.287-2.298c-4.865-3.738-4.496-9.232-2.841-14.67
				c0,0.025,0.005,0.05,0.015,0.08c0.01,0.02,0.02,0.04,0.035,0.06c0.035,0.045,0.085,0.09,0.15,0.13
				c0.065,0.04,0.144,0.075,0.234,0.11c0.095,0.04,0.209,0.075,0.334,0.105c0.174,0.045,0.374,0.09,0.603,0.13
				c0.01,0.005,0.025,0.005,0.04,0.005c0.075,0.015,0.155,0.03,0.234,0.04c0.06,0.01,0.125,0.02,0.194,0.03
				c0.02,0.005,0.045,0.01,0.065,0.01c0.18,0.025,0.369,0.05,0.568,0.075c0.219,0.025,0.454,0.05,0.693,0.075
				c0.409,0.04,0.847,0.08,1.301,0.12c0.279,0.025,0.563,0.05,0.857,0.075c0.194,0.015,0.394,0.035,0.593,0.05
				c3.619-0.962,17.063-8.594,17.436-9.705c0.384-1.146-0.254-4.391,0.189-6.111c0.329-1.251,1.286-1.251,2.059-0.837
				c0.284,0.154,0.548,0.359,0.743,0.583c0.723,0.823,0,4.327,0.384,4.835c0.379,0.513,3.564-0.314,6.49-2.991
				c2.926-2.672,3.564-4.197,4.137-3.559C346.726,209.569,346.726,214.723,346.158,218.796z"/>
			
				<line style="fill:none;stroke:#000000;stroke-width:0.4985;stroke-miterlimit:10;" x1="364.447" y1="257.36" x2="364.447" y2="257.355"/>
			
				<linearGradient id="SVGID_00000032637339923425829730000005181959851976546199_" gradientUnits="userSpaceOnUse" x1="326.0837" y1="384.4605" x2="325.0656" y2="397.7812">
				<stop  offset="2.700000e-07" style="stop-color:#FC9F86"/>
				<stop  offset="1" style="stop-color:#FFE4CA"/>
			</linearGradient>
			<path style="fill:url(#SVGID_00000032637339923425829730000005181959851976546199_);" d="M331.722,389.895l-1.201,7.432
				c0,0-2.796,0.847-4.666,0c-1.864-0.852-6.445-4.755-6.445-4.755l0.264-3.095C323.213,391.899,328.761,390.922,331.722,389.895z"
				/>
			
				<linearGradient id="SVGID_00000000944922441085577000000015434914246636711557_" gradientUnits="userSpaceOnUse" x1="314.2356" y1="384.1801" x2="316.9506" y2="415.8274">
				<stop  offset="0.0134" style="stop-color:#615B7F"/>
				<stop  offset="1" style="stop-color:#3A344F"/>
			</linearGradient>
			<path style="fill:url(#SVGID_00000000944922441085577000000015434914246636711557_);" d="M318.029,391.853
				c1.403-1.295,8.093,5.838,9.479,5.838c1.386,0,2.666-0.993,3.084-0.807c0.418,0.186,2.518,7.568,2.518,10.368h-33.344
				c0,0-1.464-3.5-0.318-5.536C300.594,399.679,313.066,396.434,318.029,391.853z"/>
			
				<linearGradient id="SVGID_00000166674882827486726030000014548157074543712684_" gradientUnits="userSpaceOnUse" x1="398.5797" y1="337.5374" x2="311.2737" y2="337.7919">
				<stop  offset="0" style="stop-color:#000000"/>
				<stop  offset="1" style="stop-color:#000000;stop-opacity:0"/>
			</linearGradient>
			<path style="opacity:0.45;fill:url(#SVGID_00000166674882827486726030000014548157074543712684_);" d="M343.152,301.646
				c0,0-8.683,86.245-9.446,87.262c-0.169,0.229-0.907,0.613-1.984,0.987c-0.483,0.169-1.032,0.334-1.635,0.484
				c1.421-9.74-2.173-19.47-0.753-26.314c1.869-8.992,5.089-17.476,3.778-25.452c-1.316-7.975,1.48-12.556,4.367-21.723
				c2.886-9.162-3.395-12.217,0.847-17.985c3.584-4.875,3.35-11.809,3.19-13.842L343.152,301.646z"/>
			<path style="opacity:0.25;fill:none;stroke:#FFFFFF;stroke-width:0.4985;stroke-miterlimit:10;" d="M360.344,279.462
				c0,0,4.258,75.101,4.102,105.391"/>
			<path style="opacity:0.25;fill:none;stroke:#FFFFFF;stroke-width:0.4985;stroke-miterlimit:10;" d="M340.595,296.698
				c0,0-11.43,70.337-13.296,90.445"/>
			
				<linearGradient id="SVGID_00000070822007601532675240000000507521876270559140_" gradientUnits="userSpaceOnUse" x1="367.1209" y1="398.188" x2="383.5182" y2="398.188">
				<stop  offset="0.0134" style="stop-color:#906FD8"/>
				<stop  offset="1" style="stop-color:#73B1F4"/>
			</linearGradient>
			
				<path style="fill:none;stroke:url(#SVGID_00000070822007601532675240000000507521876270559140_);stroke-width:0.4985;stroke-miterlimit:10;" d="
				M367.314,397.102c0,0,2.959-3.627,6.045-3.214c3.086,0.414-3.118,2.609-2.704,5.282c0.414,2.673,5.918-4.518,8.686-2.991
				s-3.786,3.914-3.118,5.886c0.668,1.973,5.409-3.148,7.223-2.592"/>
			
				<linearGradient id="SVGID_00000005225022025898072590000005855032855238271616_" gradientUnits="userSpaceOnUse" x1="493.1265" y1="398.188" x2="509.5238" y2="398.188" gradientTransform="matrix(-1 0 0 1 810.9008 0)">
				<stop  offset="0.0134" style="stop-color:#906FD8"/>
				<stop  offset="1" style="stop-color:#73B1F4"/>
			</linearGradient>
			
				<path style="fill:none;stroke:url(#SVGID_00000005225022025898072590000005855032855238271616_);stroke-width:0.4985;stroke-miterlimit:10;" d="
				M317.581,397.102c0,0-2.959-3.627-6.045-3.214c-3.086,0.414,3.118,2.609,2.704,5.282c-0.414,2.673-5.918-4.518-8.686-2.991
				c-2.768,1.527,3.786,3.914,3.118,5.886c-0.668,1.973-5.409-3.148-7.222-2.592"/>
			
				<linearGradient id="SVGID_00000049195684865251447500000016511376842518035844_" gradientUnits="userSpaceOnUse" x1="434.0795" y1="235.1326" x2="333.0284" y2="244.2959">
				<stop  offset="0" style="stop-color:#000000"/>
				<stop  offset="1" style="stop-color:#000000;stop-opacity:0"/>
			</linearGradient>
			<path style="opacity:0.45;fill:url(#SVGID_00000049195684865251447500000016511376842518035844_);" d="M369.122,253.779
				c-0.234,0.324-0.449,0.588-0.633,0.783c-0.927,0.977-2.477,1.919-4.043,2.801c-2.502,1.411-5.039,2.672-5.119,3.689
				c-0.125,1.655,3.694,0.638,4.71,2.034c0.638,0.877-1.126,3.878-2.527,6.749c-2.866,0.508-5.682,0.648-7.213,0.379
				c-0.598-0.11-1.102-1.71-1.52-4.352c3.399-5.677,9.944-9.765,7.776-15.403c-2.876-7.477,3.4-14.849,0.937-22.655
				c-2.458-7.806,0.593-15.019,1.446-14.426c0.847,0.598,5.428,6.44,5.428,6.44s-0.13,22.142,0.379,30.417
				C368.823,251.52,368.958,252.697,369.122,253.779z"/>
			
				<linearGradient id="SVGID_00000178205731130935003970000007979971516763069313_" gradientUnits="userSpaceOnUse" x1="344.7792" y1="237.7039" x2="404.6805" y2="241.6069">
				<stop  offset="0" style="stop-color:#000000"/>
				<stop  offset="1" style="stop-color:#000000;stop-opacity:0"/>
			</linearGradient>
			<path style="opacity:0.45;fill:url(#SVGID_00000178205731130935003970000007979971516763069313_);" d="M376.255,246.471
				c-0.763,4.92-3.395,4.327-5.857,8.06c-1.077,1.635-2.896,1.989-4.696,2.104c1.102-0.668,2.109-1.361,2.786-2.074
				c0.184-0.194,0.399-0.459,0.633-0.783c2.841-3.888,8.798-16.464,5.862-23.398c-2.313-4.362-4.008-7.043-5.104-8.609
				c0,0,3.669,2.991,6.226,7.263c0.748,1.246,1.401,2.597,1.844,4.018C379.904,239.343,377.018,241.551,376.255,246.471z"/>
			
				<linearGradient id="SVGID_00000167381592136702067140000009292277576365810049_" gradientUnits="userSpaceOnUse" x1="345.7219" y1="170.1415" x2="345.2553" y2="192.4559">
				<stop  offset="0" style="stop-color:#000000"/>
				<stop  offset="1" style="stop-color:#000000;stop-opacity:0"/>
			</linearGradient>
			<path style="opacity:0.45;fill:url(#SVGID_00000167381592136702067140000009292277576365810049_);" d="M350.948,185.209
				c-1.894-0.204-2.836-2.178-4.561-1.092c-1.605,1.012-4.317,0.942-5.907,0.792c-0.135-0.598-0.359-1.077-0.578-1.441
				c8.04-0.608,10.009-8.16,10.238-9.187C349.732,176.835,350.848,181.68,350.948,185.209z"/>
			
				<linearGradient id="SVGID_00000160877825558998652870000003220825862252481945_" gradientUnits="userSpaceOnUse" x1="350.5249" y1="143.224" x2="339.7499" y2="183.5242">
				<stop  offset="2.700000e-07" style="stop-color:#FC9F86"/>
				<stop  offset="1" style="stop-color:#FFE4CA"/>
			</linearGradient>
			<path style="fill:url(#SVGID_00000160877825558998652870000003220825862252481945_);" d="M354.028,174.201
				c-1.57,0.339-2.119,0-2.119,0s-0.005,0.035-0.02,0.1c-0.005,0.005-0.005,0.01-0.005,0.015c-0.229,1.027-2.198,8.579-10.239,9.187
				c-0.165,0.015-0.339,0.025-0.513,0.03c-7.796,0.294-11.131-5.383-10.074-14.406c0.164-1.475,0.454-3.046,0.862-4.695
				c6.64,1.58,14.301-0.663,14.301-0.663s0.374,0.493,0.927,1.216c1.5,1.974,4.332,5.653,4.546,5.653c0.299,0,0.169-1.61,0.169-1.61
				c0.339-0.847,0.977-1.57,3.056-0.553C357.168,169.151,355.598,173.862,354.028,174.201z"/>
			<path style="fill:none;stroke:#FC9F86;stroke-width:0.4985;stroke-miterlimit:10;" d="M337.315,170.947
				c0.042,0.679-1.867,2.63-1.4,3.563c0.467,0.933,2.503,0.382,2.503,0.382"/>
			
				<linearGradient id="SVGID_00000140714411435793287490000014052269754260522635_" gradientUnits="userSpaceOnUse" x1="356.0004" y1="169.0087" x2="344.8856" y2="177.9599">
				<stop  offset="0" style="stop-color:#000000"/>
				<stop  offset="1" style="stop-color:#000000;stop-opacity:0"/>
			</linearGradient>
			<path style="opacity:0.45;fill:url(#SVGID_00000140714411435793287490000014052269754260522635_);" d="M353.674,169.643
				c-0.661-0.099-1.146,2.577-0.748,2.959C353.324,172.983,355.902,169.977,353.674,169.643z"/>
			
				<linearGradient id="SVGID_00000096766519967639469500000015814560842578334382_" gradientUnits="userSpaceOnUse" x1="338.5078" y1="151.9772" x2="339.9501" y2="188.4608">
				<stop  offset="0" style="stop-color:#000000"/>
				<stop  offset="1" style="stop-color:#000000;stop-opacity:0"/>
			</linearGradient>
			<path style="opacity:0.45;fill:url(#SVGID_00000096766519967639469500000015814560842578334382_);" d="M347.149,164.984
				c-1.351,0.429-2.487,1.256-3.699,1.984c-1.899,1.146-2.901,0.16-6.051,0.224c-3.15,0.065-3.405,1.844-5.533,1.939
				c-0.299,0.015-0.568,0.01-0.807-0.005c0.164-1.475,0.454-3.046,0.862-4.695c6.64,1.58,14.301-0.663,14.301-0.663
				S346.596,164.261,347.149,164.984z"/>
			<g>
				<defs>
					<path id="SVGID_00000029005826210047078350000010454213162451179657_" d="M354.92,168.471
						c-2.079-1.017-2.717-0.294-3.056,0.553c0,0,0.13,1.61-0.169,1.61c-0.294,0-5.473-6.869-5.473-6.869s-7.661,2.243-14.301,0.663
						c-2.781-0.663-5.378-1.994-7.163-4.441c-3.519-4.835-1.74-5.937-1.316-6.151c0.424-0.214,3.14,1.909,4.541,1.485
						c0.125-0.638-2.562-4.157-0.593-5.812c1.057-0.892,1.44,1.356,6.276,1.525c4.835,0.17,10.393-1.78,14.381,0.214
						c3.988,1.994,3.848,6.405,3.848,6.405s2.732-0.593,4.426,1.994C358.016,162.235,354.835,167.663,354.92,168.471z"/>
				</defs>
				<clipPath id="SVGID_00000006704442717095595760000001855034706238978980_">
					<use xlink:href="#SVGID_00000029005826210047078350000010454213162451179657_"  style="overflow:visible;"/>
				</clipPath>
				<g style="opacity:0.42;clip-path:url(#SVGID_00000006704442717095595760000001855034706238978980_);">
					<g>
						<g>
							<path style="fill:#FFFFFF;" d="M321.105,156.449c2.526,6,9.378,6.53,15.047,5.892c4.009-0.452,9.298-1.939,12.729,0.854
								c3.332,2.712,5.078,7.812,6.264,11.779c0.092,0.307,0.573,0.176,0.481-0.132c-1.59-5.32-4.261-13.118-10.727-13.694
								c-7.436-0.663-19.326,4.64-23.313-4.831C321.463,156.025,320.98,156.153,321.105,156.449L321.105,156.449z"/>
						</g>
					</g>
					<g>
						<g>
							<path style="fill:#FFFFFF;" d="M320.746,153.234c0.346,7.015,12.799,4.385,17.003,4.265c4.62-0.131,9.354,0.475,12.984,3.586
								c3.858,3.305,5.455,8.321,4.626,13.282c-0.052,0.314,0.428,0.449,0.481,0.132c1.125-6.735-2.213-13.477-8.62-16.158
								c-3.557-1.488-7.497-1.462-11.278-1.258c-3.874,0.208-14.405,2.074-14.697-3.849
								C321.229,152.914,320.73,152.912,320.746,153.234L320.746,153.234z"/>
						</g>
					</g>
					<g>
						<g>
							<path style="fill:#FFFFFF;" d="M320.191,154.915c5.243,5.523,13.659-0.456,19.726-0.709
								c9.247-0.386,18.982,7.199,15.532,17.223c-0.105,0.304,0.377,0.435,0.481,0.132c2.394-6.956-1.769-13.91-8.319-16.586
								c-3.891-1.59-8.26-1.607-12.297-0.584c-4.715,1.195-10.649,4.513-14.771,0.171
								C320.322,154.329,319.97,154.682,320.191,154.915L320.191,154.915z"/>
						</g>
					</g>
					<g>
						<g>
							<path style="fill:#FFFFFF;" d="M324.309,150.04c2.906,4.723,9.621,2.801,14.064,2.061c6.947-1.158,16.31-1.823,19.701,5.952
								c0.128,0.293,0.557,0.04,0.43-0.252c-2.106-4.829-7.146-6.848-12.15-6.987c-3.044-0.084-6.059,0.464-9.047,0.964
								c-3.988,0.667-9.978,2.218-12.568-1.99C324.572,149.516,324.141,149.766,324.309,150.04L324.309,150.04z"/>
						</g>
					</g>
				</g>
			</g>
			
				<linearGradient id="SVGID_00000147218728001814509080000013757528912824510120_" gradientUnits="userSpaceOnUse" x1="302.1989" y1="207.1946" x2="329.3495" y2="217.2064">
				<stop  offset="0" style="stop-color:#FFFFFF"/>
				<stop  offset="1" style="stop-color:#FFFFFF;stop-opacity:0"/>
			</linearGradient>
			<path style="opacity:0.45;fill:url(#SVGID_00000147218728001814509080000013757528912824510120_);" d="M331.737,188.464
				c-0.887,3.031-6.993,5.279-7.916,8.115c-1.072,3.275-4.666,4.92-5.348,8.668c-0.678,3.749-5.089,6.859-5.259,10.423
				c-0.095,2.019-1.5,6.465-2.572,10.647c-0.822,3.2-1.455,6.251-1.161,7.951c0.359,2.074,1.311,4.322,2.163,6.031
				c-4.865-3.738-4.496-9.232-2.841-14.67C308.803,224.449,314.026,197.497,331.737,188.464z"/>
			
				<linearGradient id="SVGID_00000111883929371322796470000004880786289679603633_" gradientUnits="userSpaceOnUse" x1="262.2487" y1="325.2512" x2="394.3528" y2="327.5421">
				<stop  offset="0" style="stop-color:#FFFFFF"/>
				<stop  offset="1" style="stop-color:#FFFFFF;stop-opacity:0"/>
			</linearGradient>
			<path style="opacity:0.45;fill:url(#SVGID_00000111883929371322796470000004880786289679603633_);" d="M321.02,327.243
				c-1.356,19.007,2.757,22.576-0.847,35.127c-2.313,8.06-3.16,12.9-3.589,16.414c-0.339-20.741,3.948-74.511,5.732-105.082
				c1.58,3.081,3.858,9.541,2.383,19.435C322.545,307.558,322.376,308.236,321.02,327.243z"/>
		</g>
	</g>
</g>
<g id="DESIGNED_BY_FREEPIK">
	<g>
		<g id="XMLID_319_">
			<g id="XMLID_338_">
				<path id="XMLID_346_" style="fill:#1D262D;" d="M260.104,465.465c-0.432,0.443-0.803,0.931-1.108,1.453l-0.465-0.241
					c-0.067-0.298-0.349-0.503-0.659-0.466c-0.331,0.039-0.568,0.339-0.529,0.67c0.039,0.331,0.339,0.568,0.67,0.529
					c0.066-0.008,0.127-0.026,0.184-0.052l0.451,0.234c-0.251,0.554-0.433,1.139-0.539,1.744l0.747,0.132
					c0.23-1.306,0.85-2.507,1.792-3.473L260.104,465.465z"/>
				<path id="XMLID_345_" style="fill:#1D262D;" d="M265.592,463.163c-0.171,0-0.341,0.006-0.51,0.017l-0.074-0.626
					c0.188-0.149,0.296-0.389,0.266-0.645c-0.046-0.393-0.402-0.674-0.795-0.628c-0.393,0.046-0.674,0.402-0.628,0.795
					c0.03,0.254,0.189,0.461,0.404,0.564l0.074,0.624c-0.714,0.116-1.403,0.332-2.06,0.646l0.327,0.684
					c0.934-0.447,1.942-0.673,2.995-0.673c0.496,0,0.993,0.053,1.475,0.158l0.161-0.741
					C266.692,463.222,266.142,463.163,265.592,463.163z"/>
				<path id="XMLID_344_" style="fill:#1D262D;" d="M272.194,465.711c0.331-0.04,0.566-0.341,0.526-0.672
					c-0.04-0.331-0.341-0.566-0.672-0.526c-0.309,0.038-0.535,0.304-0.53,0.609l-0.416,0.363c-0.418-0.43-0.889-0.813-1.408-1.139
					l-0.404,0.641c1.134,0.715,2.021,1.726,2.563,2.925l0.69-0.313c-0.251-0.554-0.567-1.072-0.942-1.545l0.402-0.351
					C272.065,465.716,272.129,465.719,272.194,465.711z"/>
				<path id="XMLID_343_" style="fill:#1D262D;" d="M265.044,473.372c-0.386,0.023-0.775,0.035-1.157,0.035
					c-0.88,0-1.733-0.061-2.478-0.179c-0.39-0.062-0.846-0.155-1.27-0.292c1.046,1.861,3.069,3.125,5.388,3.125
					c2.855,0,5.262-1.916,5.95-4.504c-0.682,0.449-1.505,0.825-2.459,1.123C267.839,473.047,266.463,473.286,265.044,473.372z"/>
				<path id="XMLID_339_" style="fill:#1D262D;" d="M265.592,464.68c-3.352,0-6.08,2.666-6.08,5.943
					c0,0.426,0.046,0.849,0.137,1.261c0.673,0.483,2.706,0.89,5.348,0.731c2.879-0.173,5.297-0.957,6.672-2.159
					c-0.006-0.195-0.021-0.39-0.045-0.582C271.244,466.913,268.65,464.68,265.592,464.68z M263.432,471.194
					c-1.02,0-1.85-0.83-1.85-1.85c0-1.02,0.83-1.85,1.85-1.85c1.02,0,1.85,0.83,1.85,1.85
					C265.282,470.365,264.452,471.194,263.432,471.194z M268.17,470.286c-0.75,0-1.36-0.61-1.36-1.36s0.61-1.361,1.36-1.361
					c0.75,0,1.361,0.61,1.361,1.361S268.92,470.286,268.17,470.286z"/>
			</g>
			<path id="XMLID_336_" style="fill:#1D262D;" d="M281.595,466.547c-0.295-0.116-0.805-0.309-1.382-0.237
				c-0.551,0.069-0.844,0.341-0.844,1.007v0.866h2.228v1.717h-2.228v5.455h-1.932v-5.455h-1.34v-1.717h1.34v-0.888
				c0-1.68,0.896-2.783,2.568-2.783c0.643,0,1.157,0.122,1.59,0.308L281.595,466.547z"/>
			<path id="XMLID_334_" style="fill:#1D262D;" d="M286.298,469.879c-0.177-0.03-0.358-0.046-0.526-0.046
				c-0.896,0-1.51,0.548-1.51,1.614v3.908h-1.932v-7.172h1.873v0.785c0.451-0.673,1.14-0.977,2.021-0.977
				c0.414,0,0.848,0.128,1.094,0.337L286.298,469.879z"/>
			<path id="XMLID_331_" style="fill:#1D262D;" d="M293.965,471.757c0,0.222-0.015,0.489-0.037,0.651h-5.085
				c0.207,1.036,0.933,1.488,1.843,1.488c0.622,0,1.295-0.252,1.813-0.688l1.133,1.243c-0.814,0.748-1.85,1.088-3.057,1.088
				c-2.198,0-3.723-1.495-3.723-3.753c0-2.258,1.48-3.797,3.627-3.797C292.544,467.99,293.958,469.522,293.965,471.757z
				 M288.851,471.091h3.175c-0.177-0.918-0.733-1.436-1.562-1.436C289.554,469.655,289.021,470.203,288.851,471.091z"/>
			<path id="XMLID_328_" style="fill:#1D262D;" d="M301.618,471.757c0,0.222-0.015,0.489-0.037,0.651h-5.085
				c0.207,1.036,0.932,1.488,1.843,1.488c0.622,0,1.295-0.252,1.814-0.688l1.132,1.243c-0.814,0.748-1.85,1.088-3.057,1.088
				c-2.198,0-3.723-1.495-3.723-3.753c0-2.258,1.48-3.797,3.627-3.797C300.197,467.99,301.611,469.522,301.618,471.757z
				 M296.504,471.091h3.175c-0.178-0.918-0.733-1.436-1.562-1.436C297.207,469.655,296.674,470.203,296.504,471.091z"/>
			<path id="XMLID_325_" style="fill:#1D262D;" d="M309.964,471.764c0,2.154-1.495,3.775-3.471,3.775
				c-0.962,0-1.643-0.378-2.109-0.933v3.708h-1.924v-10.133h1.887v0.792c0.466-0.585,1.155-0.984,2.139-0.984
				C308.469,467.99,309.964,469.61,309.964,471.764z M304.287,471.764c0,1.132,0.747,1.976,1.843,1.976
				c1.14,0,1.85-0.881,1.85-1.976c0-1.095-0.71-1.976-1.85-1.976C305.035,469.788,304.287,470.632,304.287,471.764z"/>
			<path id="XMLID_322_" style="fill:#1D262D;" d="M313.068,465.836c0,0.696-0.54,1.229-1.236,1.229
				c-0.696,0-1.229-0.533-1.229-1.229c0-0.696,0.533-1.243,1.229-1.243C312.527,464.592,313.068,465.14,313.068,465.836z
				 M312.809,475.354h-1.932v-7.172h1.932V475.354z"/>
			<path id="XMLID_320_" style="fill:#1D262D;" d="M316.032,470.736l2.701-2.554h2.368l-3.479,3.375l3.501,3.797h-2.376
				l-2.716-2.901v2.901H314.1v-10.658h1.932V470.736z"/>
		</g>
		<g>
			<path style="fill:#1D262D;" d="M184.412,475.289v-1.055c-0.527,0.718-1.391,1.23-2.388,1.23c-1.846,0-3.149-1.406-3.149-3.706
				c0-2.256,1.289-3.721,3.149-3.721c0.952,0,1.816,0.469,2.388,1.245v-3.765h1.099v9.77H184.412z M184.412,473.37v-3.208
				c-0.395-0.615-1.245-1.143-2.124-1.143c-1.421,0-2.27,1.172-2.27,2.739c0,1.567,0.85,2.724,2.27,2.724
				C183.168,474.483,184.017,473.986,184.412,473.37z"/>
			<path style="fill:#1D262D;" d="M186.932,471.744c0-2.051,1.465-3.706,3.486-3.706c2.139,0,3.398,1.67,3.398,3.794v0.279h-5.727
				c0.088,1.333,1.025,2.446,2.549,2.446c0.805,0,1.626-0.322,2.182-0.894l0.527,0.718c-0.703,0.703-1.655,1.084-2.812,1.084
				C188.44,475.465,186.932,473.956,186.932,471.744z M190.403,468.947c-1.509,0-2.256,1.274-2.314,2.358h4.643
				C192.718,470.25,192.015,468.947,190.403,468.947z"/>
			<path style="fill:#1D262D;" d="M194.607,474.351l0.571-0.791c0.469,0.542,1.362,1.011,2.329,1.011c1.084,0,1.67-0.513,1.67-1.216
				c0-1.714-4.38-0.659-4.38-3.281c0-1.098,0.952-2.036,2.636-2.036c1.201,0,2.051,0.454,2.622,1.026l-0.513,0.762
				c-0.424-0.513-1.201-0.894-2.109-0.894c-0.967,0-1.567,0.483-1.567,1.113c0,1.552,4.38,0.527,4.38,3.281
				c0,1.187-0.952,2.138-2.783,2.138C196.306,475.465,195.325,475.113,194.607,474.351z"/>
			<path style="fill:#1D262D;" d="M201.477,466.471c0-0.41,0.337-0.747,0.732-0.747c0.41,0,0.747,0.337,0.747,0.747
				c0,0.41-0.337,0.732-0.747,0.732C201.814,467.203,201.477,466.881,201.477,466.471z M201.667,475.289v-7.075h1.099v7.075H201.667
				z"/>
			<path style="fill:#1D262D;" d="M204.582,477.105l0.556-0.82c0.586,0.703,1.289,0.967,2.3,0.967c1.172,0,2.27-0.571,2.27-2.124
				v-1.011c-0.513,0.718-1.377,1.26-2.373,1.26c-1.845,0-3.149-1.377-3.149-3.662c0-2.27,1.289-3.677,3.149-3.677
				c0.952,0,1.802,0.469,2.373,1.245v-1.069h1.098v6.87c0,2.344-1.641,3.076-3.369,3.076
				C206.237,478.16,205.417,477.926,204.582,477.105z M209.709,473.253v-3.091c-0.381-0.615-1.23-1.143-2.109-1.143
				c-1.421,0-2.27,1.128-2.27,2.695c0,1.553,0.849,2.695,2.27,2.695C208.478,474.41,209.328,473.868,209.709,473.253z"/>
			<path style="fill:#1D262D;" d="M217.413,475.289v-4.629c0-1.245-0.63-1.641-1.582-1.641c-0.865,0-1.685,0.527-2.095,1.099v5.17
				h-1.099v-7.075h1.099v1.025c0.498-0.586,1.465-1.201,2.519-1.201c1.48,0,2.256,0.747,2.256,2.285v4.966H217.413z"/>
			<path style="fill:#1D262D;" d="M219.932,471.744c0-2.051,1.465-3.706,3.486-3.706c2.139,0,3.398,1.67,3.398,3.794v0.279h-5.727
				c0.088,1.333,1.025,2.446,2.549,2.446c0.806,0,1.626-0.322,2.183-0.894l0.527,0.718c-0.703,0.703-1.655,1.084-2.812,1.084
				C221.441,475.465,219.932,473.956,219.932,471.744z M223.404,468.947c-1.509,0-2.256,1.274-2.314,2.358h4.643
				C225.718,470.25,225.015,468.947,223.404,468.947z"/>
			<path style="fill:#1D262D;" d="M233.35,475.289v-1.055c-0.527,0.718-1.392,1.23-2.388,1.23c-1.846,0-3.149-1.406-3.149-3.706
				c0-2.256,1.289-3.721,3.149-3.721c0.952,0,1.817,0.469,2.388,1.245v-3.765h1.098v9.77H233.35z M233.35,473.37v-3.208
				c-0.396-0.615-1.245-1.143-2.124-1.143c-1.421,0-2.27,1.172-2.27,2.739c0,1.567,0.849,2.724,2.27,2.724
				C232.105,474.483,232.954,473.986,233.35,473.37z"/>
			<path style="fill:#1D262D;" d="M239.692,475.289v-9.77h1.098v3.765c0.572-0.776,1.421-1.245,2.388-1.245
				c1.845,0,3.149,1.465,3.149,3.721c0,2.299-1.304,3.706-3.149,3.706c-0.996,0-1.86-0.513-2.388-1.23v1.055H239.692z
				 M242.9,474.483c1.436,0,2.285-1.157,2.285-2.724c0-1.568-0.85-2.739-2.285-2.739c-0.864,0-1.728,0.527-2.109,1.143v3.208
				C241.171,473.986,242.036,474.483,242.9,474.483z"/>
			<path style="fill:#1D262D;" d="M247.528,477.061c0.161,0.073,0.425,0.117,0.601,0.117c0.483,0,0.805-0.161,1.055-0.747
				l0.469-1.069l-2.959-7.148h1.187l2.358,5.8l2.344-5.8h1.201l-3.545,8.51c-0.425,1.025-1.143,1.421-2.08,1.435
				c-0.234,0-0.601-0.044-0.805-0.103L247.528,477.061z"/>
		</g>
	</g>
</g>
</svg>
