<?xml version="1.0" encoding="utf-8"?>
<!-- Generator: Adobe Illustrator 27.5.0, SVG Export Plug-In . SVG Version: 6.00 Build 0)  -->
<svg version="1.1" xmlns="http://www.w3.org/2000/svg" xmlns:xlink="http://www.w3.org/1999/xlink" x="0px" y="0px"
	 viewBox="0 0 500 500" style="enable-background:new 0 0 500 500;" xml:space="preserve">
<g id="BACKGROUND">
	<rect style="fill:#FFFFFF;" width="500" height="500"/>
</g>
<g id="OBJECTS">
	<g>
		<g>
			<g>
				<path style="fill:#DBDFFF;" d="M46.911,207.33h120.384c3.309,0,5.992-2.683,5.992-5.992V56.179c0-3.31-2.683-5.992-5.992-5.992
					H46.911c-3.309,0-5.992,2.683-5.992,5.992v145.159C40.919,204.647,43.602,207.33,46.911,207.33z"/>
				<path style="fill:#6252D7;" d="M40.919,66.566h132.369V56.179c0-3.31-2.683-5.992-5.992-5.992H46.911
					c-3.309,0-5.992,2.683-5.992,5.992V66.566z"/>
				<g>
					<path style="fill:#FFFFFF;" d="M74.359,58.927c0,2.076,1.683,3.758,3.758,3.758s3.758-1.683,3.758-3.758
						c0-2.076-1.683-3.758-3.758-3.758S74.359,56.851,74.359,58.927z"/>
					<path style="fill:#E8F4FF;" d="M61.462,58.927c0,2.076,1.683,3.758,3.758,3.758c2.076,0,3.758-1.683,3.758-3.758
						c0-2.076-1.683-3.758-3.758-3.758C63.145,55.169,61.462,56.851,61.462,58.927z"/>
					<path style="fill:#B7C2FB;" d="M48.565,58.927c0,2.076,1.683,3.758,3.758,3.758c2.076,0,3.758-1.683,3.758-3.758
						c0-2.076-1.683-3.758-3.758-3.758C50.248,55.169,48.565,56.851,48.565,58.927z"/>
				</g>
			</g>
		</g>
		<g>
			<rect x="56.183" y="86.886" style="fill:#FFFFFF;" width="79.814" height="4.602"/>
			<rect x="142.909" y="86.886" style="fill:#FFFFFF;" width="9.429" height="4.602"/>
			<rect x="56.183" y="99.437" style="fill:#FFFFFF;" width="20.921" height="4.602"/>
			<rect x="90.492" y="99.437" style="fill:#FFFFFF;" width="29.232" height="4.602"/>
			<rect x="90.492" y="110.314" style="fill:#FFFFFF;" width="17.15" height="4.602"/>
			<rect x="113.437" y="110.314" style="fill:#FFFFFF;" width="11.776" height="4.602"/>
			<rect x="90.492" y="164.702" style="fill:#FFFFFF;" width="40.071" height="4.602"/>
			<rect x="90.492" y="121.192" style="fill:#FFFFFF;" width="17.15" height="4.602"/>
			<rect x="113.437" y="121.192" style="fill:#FFFFFF;" width="28.408" height="4.602"/>
			<rect x="56.183" y="132.07" style="fill:#FFFFFF;" width="20.921" height="4.602"/>
			<rect x="90.492" y="132.07" style="fill:#FFFFFF;" width="29.232" height="4.602"/>
			<rect x="90.492" y="142.947" style="fill:#FFFFFF;" width="17.15" height="4.602"/>
			<rect x="113.437" y="142.947" style="fill:#FFFFFF;" width="28.408" height="4.602"/>
			<rect x="90.492" y="153.825" style="fill:#FFFFFF;" width="17.15" height="4.602"/>
			<rect x="113.437" y="153.825" style="fill:#FFFFFF;" width="28.408" height="4.602"/>
			<rect x="90.492" y="186.458" style="fill:#FFFFFF;" width="17.15" height="4.602"/>
		</g>
	</g>
	<g>
		<g>
			<g>
				<g>
					<path style="fill:none;stroke:#DBDFFF;stroke-miterlimit:10;" d="M300.443,292.079H187.356c-3.283,0-5.945-2.662-5.945-5.945
						V56.009c0-3.283,2.662-5.945,5.945-5.945h269.2c3.283,0,5.945,2.662,5.945,5.945v218.103"/>
					<path style="fill:#6252D7;" d="M462.501,66.315h-281.09V56.009c0-3.283,2.662-5.945,5.945-5.945h269.2
						c3.283,0,5.945,2.662,5.945,5.945V66.315z"/>
					<g>
						<path style="fill:#FFFFFF;" d="M429.325,58.736c0,2.059-1.669,3.729-3.729,3.729c-2.059,0-3.729-1.669-3.729-3.729
							s1.669-3.729,3.729-3.729C427.655,55.008,429.325,56.677,429.325,58.736z"/>
						<path style="fill:#E8F4FF;" d="M442.12,58.736c0,2.059-1.669,3.729-3.729,3.729s-3.729-1.669-3.729-3.729
							s1.669-3.729,3.729-3.729S442.12,56.677,442.12,58.736z"/>
						<path style="fill:#CEDFFD;" d="M454.916,58.736c0,2.059-1.669,3.729-3.729,3.729c-2.059,0-3.729-1.669-3.729-3.729
							s1.669-3.729,3.729-3.729C453.246,55.008,454.916,56.677,454.916,58.736z"/>
					</g>
				</g>
			</g>
		</g>
		<g>
			<g>
				<path style="fill:#FFFFFF;" d="M429.093,111.954H212.761c-7.472,0-13.529-6.057-13.529-13.529l0,0
					c0-7.472,6.057-13.529,13.529-13.529h216.331c7.472,0,13.529,6.057,13.529,13.529l0,0
					C442.621,105.897,436.564,111.954,429.093,111.954z"/>
				<path style="fill:#EE502D;" d="M429.093,84.896h-49.096c7.472,0,13.529,6.057,13.529,13.529c0,7.472-6.057,13.529-13.529,13.529
					h49.096c7.472,0,13.529-6.057,13.529-13.529C442.621,90.953,436.564,84.896,429.093,84.896z"/>
				<path style="fill:none;stroke:#EE502D;stroke-miterlimit:10;" d="M429.093,111.954H212.761c-7.472,0-13.529-6.057-13.529-13.529
					l0,0c0-7.472,6.057-13.529,13.529-13.529h216.331c7.472,0,13.529,6.057,13.529,13.529l0,0
					C442.621,105.897,436.564,111.954,429.093,111.954z"/>
				<path style="fill:#FFFFFF;" d="M422.912,103.69l-2.933-2.933c1.658-2.582,1.361-6.055-0.897-8.314
					c-2.605-2.605-6.828-2.605-9.432,0c-2.605,2.605-2.605,6.828,0,9.433c2.258,2.258,5.732,2.555,8.314,0.897l2.933,2.933
					c0.557,0.557,1.459,0.557,2.016,0C423.469,105.15,423.469,104.247,422.912,103.69z M411.299,100.227
					c-1.694-1.694-1.694-4.44,0-6.134c1.694-1.694,4.44-1.694,6.134,0c1.694,1.694,1.694,4.44,0,6.134
					C415.739,101.921,412.993,101.921,411.299,100.227z"/>
			</g>
			<g>
				<path id="XMLID_39_" style="fill:#B7C2FB;" d="M441.052,147.323H216.811c-1.25,0-2.264-1.014-2.264-2.264v-3.168
					c0-1.25,1.013-2.264,2.264-2.264h224.242c1.25,0,2.264,1.013,2.264,2.264v3.168
					C443.316,146.309,442.303,147.323,441.052,147.323z"/>
				<path id="XMLID_38_" style="fill:#DBDFFF;" d="M439.964,135.38h-236.91c-1.226,0-2.221-0.994-2.221-2.221v-6.579
					c0-1.226,0.994-2.221,2.221-2.221h236.91c1.226,0,2.221,0.994,2.221,2.221v6.579C442.184,134.386,441.19,135.38,439.964,135.38z
					"/>
				<path id="XMLID_37_" style="fill:#B7C2FB;" d="M441.256,243.211h-56.574c-1.025,0-1.857-0.831-1.857-1.856v-80.643
					c0-1.025,0.831-1.856,1.857-1.856h56.574c1.025,0,1.856,0.831,1.856,1.856v80.643
					C443.113,242.38,442.281,243.211,441.256,243.211z"/>
				<path id="XMLID_36_" style="fill:#DBDFFF;" d="M370.257,243.211h-167.58c-1.018,0-1.843-0.825-1.843-1.843v-80.671
					c0-1.018,0.825-1.843,1.843-1.843h167.58c1.018,0,1.843,0.825,1.843,1.843v80.671
					C372.099,242.386,371.274,243.211,370.257,243.211z"/>
				<path id="XMLID_35_" style="fill:#B7C2FB;" d="M202.348,252.168h109.188c0.836,0,1.514,0.678,1.514,1.514v22.54
					c0,0.836-0.678,1.514-1.514,1.514H202.348c-0.836,0-1.514-0.678-1.514-1.514v-22.54
					C200.833,252.846,201.511,252.168,202.348,252.168z"/>
				<path id="XMLID_34_" style="fill:#B7C2FB;" d="M207.44,147.323h-4.343c-1.25,0-2.264-1.014-2.264-2.264v-3.168
					c0-1.25,1.014-2.264,2.264-2.264h4.343c1.25,0,2.264,1.013,2.264,2.264v3.168C209.704,146.309,208.691,147.323,207.44,147.323z"
					/>
			</g>
			
				<text transform="matrix(1 0 0 1 240.4337 211.8623)" style="fill:#FFFFFF; font-family:'FredokaOne-Regular'; font-size:28.9402px;">WWW</text>
		</g>
		<g>
			
				<text transform="matrix(1 0 0 1 269.1129 104.3853)" style="fill:#0F1E36;stroke:#0F1E36;stroke-width:0.9921;stroke-linecap:round;stroke-linejoin:round;stroke-miterlimit:10; font-family:'Montserrat-Light'; font-size:15.9661px;">https://</text>
		</g>
	</g>
	<g>
		<path style="fill:#A3B1FB;" d="M75.371,278.559c37.086-37.041,100.097-17.035,120.231,6.911
			c20.135,23.946,41.246,20.036,80.649,56.06s29.82,109.825-22.533,109.825s-162.122,0-162.122,0s-48.675,4.199-54.856-40.605
			S52.625,301.276,75.371,278.559z"/>
		<path style="fill:#8897E6;" d="M92.73,302.393c1.22-4.189,4.841-6.989,6.581-10.949c2.329-5.303,1.077-12.167,4.318-16.852
			c3.331-4.816,9.78-5.058,15.222-4.22c21.013,3.236,39.891,15.73,56.946,29.64c17.055,13.911,33.077,29.59,51.705,40.783
			c6.684,4.016,13.721,7.468,19.7,12.662c5.979,5.194,10.922,12.557,11.46,20.926c0.155,2.409-0.168,4.868-0.866,7.186
			c-9.266,3.459-18.751,6.154-27.923,9.904c-14.87-0.899-31.345,7.867-45.817,2.313c-5.253-2.016-9.815-5.806-15.018-7.975
			c-8.015-3.342-16.912-2.612-25.327-4.393c-9.436-1.997-18.057-7.097-26.51-12.13c-4.129-2.458-8.386-5.035-11.233-9.145
			c-2.723-3.931-3.882-8.871-4.98-13.666c-2.554-11.158-5.108-22.315-7.662-33.473C92.528,309.519,91.734,305.814,92.73,302.393z"/>
		<path style="fill:#8897E6;" d="M49.139,324.768c-0.338,4.902-0.464,9.786-0.373,14.612c0.32,16.899,2.853,33.329,14.012,46.61
			c9.656,11.493,24.64,17.604,38.816,21.239c38.237,9.803,78.314,15.609,117.671,18.05c25.727,1.596,51.405,1.586,76.682-3.024
			c-6.728,16.9-20.943,29.1-42.228,29.1c-52.354,0-162.123,0-162.123,0s-48.675,4.199-54.856-40.605
			C33.153,384.748,39.088,352.068,49.139,324.768z"/>
		<g>
			<path style="fill:none;stroke:#0F1E36;stroke-miterlimit:10;" d="M134.371,345.077c-13.715-15.801-32.124-27.475-52.264-33.145"
				/>
			<path style="fill:none;stroke:#0F1E36;stroke-miterlimit:10;" d="M119.284,315.223c-4.992-4.236-9.984-8.471-14.976-12.707"/>
			<path style="fill:#EE502D;" d="M187.647,291.024c0.865,3.724,5.007,19.255,5.266,20.031c0.259,0.777,12.632,13.401,12.632,13.401
				s-1.595,11.241-6.478,12.377c0,0-12.367-7.875-21.484-22.905c-3.131-5.162-7.668-27.723-7.668-27.723L187.647,291.024z"/>
			<path id="XMLID_54_" style="fill:#0F1E36;" d="M146.068,205.796c-1.882,1.183,5.644,4.746,6.28,7.226
				c0.636,2.479,2.215,7.444,4.293,14.964c2.4,8.685-14.531,12.641-3.891,26.725c0,0,9.499,3.622,14.095,3.37
				c0,0-4.796-6.279-3.842-19.584c0.381-5.309,4.515-21.531-1.742-28.81C156.524,204.177,150.521,202.997,146.068,205.796z"/>
			<path id="XMLID_63_" style="fill:#211717;" d="M161.111,233.788c-1.974,14.628,3.46,25.623,2.959,24.697
				c0,0-11.324-3.847-15.852-7.82c-6.918-6.07-18.985,1.686-18.985,1.686s-3.186-11.542-0.597-24.548
				c2.59-13.007,3.642-16.762,10.38-19.139c6.738-2.377,14.965,2.012,14.965,2.012S163.615,215.237,161.111,233.788z"/>
			<path style="fill:#FEB8A6;" d="M131.816,258.973c0,0,6.007-0.419,6.28-5.876c0.168-3.362-1.824-13.343-1.824-13.343l16.034-2.192
				c0,0-0.743,13.469,1.295,15.688c1.219,1.327,6.483,3.15,6.483,3.15l6.762,8.841l-14.665,18.874l-26.637-14.712L131.816,258.973z"
				/>
			<path style="fill:#EA7D77;" d="M158.668,255.876c-6.947-0.254-13.894-1.696-20.587-3.971c-0.197-4.064-1.81-12.151-1.81-12.151
				l16.034-2.192c0,0-0.743,13.469,1.295,15.688C154.412,254.135,157.018,255.238,158.668,255.876z"/>
			<path id="XMLID_55_" style="fill:#FEB8A6;" d="M156.786,215.388c3.866,4.728,3.405,7.363,3.187,14.113
				c-0.188,5.802-0.01,8.613-0.882,11.165c-0.88,2.576-3.882,7.548-7.973,9.744c-0.819,0.439-2.859,0.704-4.461,0.336
				c-5.413-1.244-13.716-7.142-15.541-10.803c-1.337-2.684-2.192-7.59-2.479-12.14c-0.282-4.471-0.549-10.274-0.53-13.618
				C128.174,202.373,149.712,206.735,156.786,215.388z"/>
			<g>
				<path style="fill:#FFFFFF;" d="M146.698,240.207c2.78,0.573,6.073,0.298,7.868-0.045c0,0-0.098,2.933-2.894,3.601
					C147.982,244.644,146.698,240.207,146.698,240.207z"/>
				<path style="fill:none;stroke:#C9796D;stroke-width:0.5669;stroke-miterlimit:10;" d="M152.134,232.801
					c0,0,1.402,3.606,0.786,4.484c-0.616,0.878-1.636,1.211-1.636,1.211"/>
				<path style="fill:#0F1E36;" d="M145.51,230.058c0.101,0.578,0.652,0.964,1.23,0.863c0.578-0.101,0.964-0.652,0.863-1.23
					c-0.101-0.578-0.652-0.964-1.23-0.863C145.795,228.93,145.408,229.48,145.51,230.058z"/>
				<path style="fill:#0F1E36;" d="M156.62,230.706c0.101,0.578,0.652,0.964,1.23,0.863c0.578-0.101,0.964-0.652,0.863-1.23
					c-0.101-0.578-0.652-0.964-1.23-0.863C156.905,229.577,156.519,230.128,156.62,230.706z"/>
				<path style="fill:#0F1E36;" d="M149.193,226.023c0,0-0.97-1.139-2.939-0.949c-1.359,0.132-2.252,0.78-2.252,0.78
					s0.42-1.999,2.728-2.019C148.278,223.823,149.186,225.1,149.193,226.023z"/>
				<path style="fill:#0F1E36;" d="M160.404,226.807c0,0-0.97-1.14-2.939-0.949c-1.359,0.132-2.251,0.78-2.251,0.78
					s0.42-1.999,2.728-2.019C159.489,224.607,160.397,225.884,160.404,226.807z"/>
			</g>
			<path style="fill:#EE502D;" d="M187.647,291.024c-1.274-3.936-4.869-16.183-6.132-18.704
				c-5.674-11.323-12.436-13.384-12.436-13.384l-1.561,26.902c0,0,2.586,4.89,5.993,10.984
				C177.533,291.842,183.264,295.712,187.647,291.024z"/>
			<g>
				<path style="fill:#FEB8A6;" d="M172.988,342.707l0.556,13.122c0,0,9.042,12.319,19.771,19.084c3.108,1.951,6.346,3.44,9.54,4.04
					c14.294,2.676,38.988,7.027,38.988,7.027c0.341,1.934-4.901,6.935-8.02,25.426c-2.329,13.809-7.129,22.501-9.642,25.217
					c-3.073,3.322-2.166,7.086,3.849,9.759c1.943,0.863,7.869,3.119,13.59,3.787c7.155,0.836,19.051,2.487,13.204-0.968
					c-5.185-3.064-16.002-5.419-15.935-13.749c0.022-3.526,24.1-52.598,25.327-55.872c5.598-14.931-2.513-19.871-13.564-22.742
					c-7.479-1.943-38.129-4.979-46.818-7.823L172.988,342.707z"/>
				<path style="fill:#0F1E36;" d="M242.623,355.162c-5.016-0.682-15.37,4.972-17.402,10.396
					c-2.032,5.423-5.863,16.715-5.863,16.715s-41.243-23.158-46.953-32.796c-5.71-9.638,11.849-6.781,11.849-6.781
					s18.051,4.844,24.27,6.422C222.998,352.792,242.623,355.162,242.623,355.162z"/>
			</g>
			<path style="fill:#FEB8A6;" d="M146.645,344.481c0,0,0,4.622,5.081,16.176c3.258,7.392,8.77,12.516,16.463,16.449
				c4.306,2.211,9.301,4.048,14.956,5.713c15.702,4.622,41.107,3.244,41.107,3.244s11.648,15.052,22.252,24.191
				c7.777,6.703,32.743,21.504,40.608,31.196c3.517,4.334-0.894,8.038,2.335,9.889c3.229,1.837,9.303-1.191,13.925-0.732
				c4.622,0.459,19.06,2.604,21.371-0.166c2.297-2.77-5.555-5.081-10.176-6.473c-4.607-1.378-15.504-6.73-20.378-10.69
				c-8.104-6.585-24.739-28.951-33.429-40.774c-8.285-11.271-24.82-30.258-27.264-30.468c-2.591-0.223-6.028-2.799-10.435-4.392
				c-0.89-0.33-1.823-0.66-2.77-0.99c-7.794-2.684-17.094-5.282-24.357-6.358L146.645,344.481z"/>
			<path style="fill:none;stroke:#EA7D77;stroke-width:1.5432;stroke-miterlimit:10;" d="M260.76,392.503
				c-8.285-11.271-25.132-29.257-27.264-30.468c-3.619-2.057-6.028-2.799-10.435-4.392c-0.89-0.33-1.823-0.66-2.77-0.99
				c-7.794-2.684-17.094-5.282-24.357-6.358l-49.289-5.813"/>
			<path style="fill:#EE502D;" d="M114.91,284.901c1.191,6.617,2.985,13.621,3.875,18.616c2.067,11.511,10.306,30.816,13.32,41.079
				c2.067,7.091,1.062,12.057,0.287,17.425c5.483-4.019,11.411-7.535,17.87-10.435c1.191-0.531,2.397-1.005,3.631-1.421
				c6.158-2.067,12.717-2.741,19.133-3.932c4.277-0.789,10.664-1.593,15.631-3.861c-3.129-3.459-9.559-23.367-8.655-30.615
				c0.933-7.521-0.818-19.219-2.727-22.764c-1.909-3.56-8.196-30.055-8.196-30.055l-9-2.541c0,0,5.336,14.624-6.366,17.75
				c-18.333,4.898-21.895-15.167-21.895-15.167s-12.535-1.812-21.256,6.38C110.562,265.36,113.375,276.275,114.91,284.901z"/>
			<path style="fill:none;stroke:#0F1E36;stroke-miterlimit:10;" d="M188.657,342.371c-3.129-3.459-9.559-23.367-8.655-30.615
				c0.933-7.521-0.818-19.219-2.727-22.764c-1.074-2.003-3.536-11.273-5.482-18.994"/>
			<path style="fill:#0F1E36;" d="M139.277,355.349c8.453-6.205,12.688-7.192,22.973-9.455c6.764-1.488,11.837,0,19.728-0.759
				c7.808,1.644,31.223,6.257,45.109,12.554c0,0-17.794-1.628-25.077,1.103c-15.513,5.817-9.088,18.436-16.408,25.806
				c-2.214,2.229-34.894,1.47-40.186-0.211c-11.747-3.732-13.539-12.921-13.613-16.883c-0.002-0.089,0.592-5.395,0.591-5.483
				C134.705,359.781,136.641,357.283,139.277,355.349z"/>
			<path id="XMLID_53_" style="fill:#0F1E36;" d="M144,219.646c-3.589,0.415-7.03,0.356-6.562,8.337
				c0.746,12.738-0.554,28.226,4.803,41.003c3.261,7.777-11.881,8.149-18.863,3.292c-9.242-6.429-9.096-18.165-2.848-28.412
				c5.011-8.218,3.81-15.045,3.81-18.938c0-8.914,3.15-15.755,9.72-19.597c7.057-4.128,15.808-3.01,20.56,1.642
				c1.18,1.155,3.061,2.427,3.174,4.301C158.003,214.751,157.308,218.108,144,219.646z"/>
			<g>
				<polygon style="fill:#FFFFFF;" points="155.798,342.625 209.794,342.442 234.116,352.505 182.257,351.345 				"/>
				
					<rect x="182.257" y="351.345" transform="matrix(-1 -1.224647e-16 1.224647e-16 -1 429.9849 706.5077)" style="fill:#6252D7;" width="65.471" height="3.817"/>
				<polygon style="fill:#B7C2FB;" points="155.798,342.625 182.257,351.345 182.257,355.162 155.798,346.442 				"/>
			</g>
			<g>
				<path style="fill:#FEB8A6;" d="M138.687,323.95l12.947,0.901c0,0,23.948,8.981,27.97,8.305
					c4.624-0.777,13.784,0.718,16.79,2.268c2.731,1.408,5.695,2.814,4.462,3.791c-1.233,0.976-0.985,2.184-0.985,2.184
					s1.592,2.887-0.746,3.735c-2.337,0.849-3.823,0-3.823,0s2.184,3.083-0.161,3.035c-2.345-0.048-1.202,1.77-4.307,1.522
					c-1.912-0.153-9.853-6.979-15.531-8.26c-3.545-0.8-9.944-2.014-13.601-2.517c-9.665-1.329-15.053-1.655-15.053-1.655
					L138.687,323.95z"/>
				<path style="fill:#EE502D;" d="M110.562,265.36c-1.579,1.869-4.288,3.978-3.343,12.562
					c1.431,13.005,14.863,52.457,16.027,53.605c5.061,4.992,18.031,6.798,29.565,7.688c0,0-2.102-10.202,2.988-14.759
					c0,0-16.677-3.854-19.091-4.838c0,0-7.185-19.978-8.022-29.974c-0.213-2.547-0.659-5.685-1.454-8.804
					c-0.584-2.29-5.329-4.075-6.336-6.104C117.398,267.691,111.538,264.205,110.562,265.36z"/>
				<path style="fill:none;stroke:#0F1E36;stroke-miterlimit:10;" d="M155.798,324.457c0,0-16.677-3.854-19.091-4.838
					c0,0-7.185-19.978-8.022-29.974"/>
				<path style="fill:none;stroke:#0F1E36;stroke-miterlimit:10;" d="M129.232,320.92c2.663,0.513,5.515-0.036,7.798-1.5"/>
			</g>
			<path style="fill:#B7C2FB;" d="M186.455,352.505h14.624l14.623-51.167h-9.081c-1.221,0-2.31,0.769-2.718,1.921L186.455,352.505z"
				/>
			<path style="fill:#6252D7;" d="M190.653,352.505h57.075l13.898-48.628c0.364-1.273-0.592-2.54-1.916-2.54H206.78
				c-0.889,0-1.671,0.59-1.916,1.445L190.653,352.505z"/>
			<path style="fill:#F5FAFF;" d="M224.846,324.921c-1.284,3.044-0.38,6.332,2.018,7.344c2.398,1.012,5.384-0.636,6.668-3.681
				c1.284-3.044,0.38-6.332-2.018-7.344C229.115,320.228,226.13,321.876,224.846,324.921z"/>
			<path style="fill:none;stroke:#EA7D77;stroke-width:1.5432;stroke-miterlimit:10;" d="M204.85,385.981
				c10.513,0.563,19.403,0.081,19.403,0.081s11.648,15.052,22.252,24.191c4.808,4.144,16.184,11.382,26.028,18.595"/>
		</g>
		<path style="fill:#A3B1FB;" d="M103.216,385.896c-10.2-3.479-20.193-7.495-30.077-11.791c5.995-8.021,15.495-13.987,27.123-14.394
			c32.859-1.148,74.846,26.203,96.692,44.53c0,0-11.775,3.598-28.136,7.4C148.082,400.696,125.401,393.463,103.216,385.896z"/>
		<path style="fill:#B7C2FB;" d="M131.044,387.004c12.737,5.754,26.245,10.497,40.158,12.237c7.425,0.929,14.878,1.471,22.308,2.178
			c-22.599-18.179-62.035-42.799-93.248-41.708c-6.367,0.223-12.09,2.12-16.955,5.101
			C99.953,369.742,115.677,380.063,131.044,387.004z"/>
		<path style="fill:none;stroke:#0F1E36;stroke-miterlimit:10;" d="M187.73,396.91c-24.701-18.599-56.954-36.406-87.467-37.198"/>
	</g>
	
		<line style="fill:none;stroke:#0F1E36;stroke-width:1.4173;stroke-miterlimit:10;" x1="36.898" y1="451.524" x2="463.102" y2="451.524"/>
	<g>
		<g>
			<path style="fill:#EE502D;" d="M390.351,433.95c-21.696-2.353-41.543-13.098-55.437-30.212
				c-12.179-15.002-18.488-33.924-18.488-53.247v-53.533c0-5.008,3.616-9.268,8.551-10.118
				c21.178-3.644,41.596-11.227,60.026-22.322c3.309-1.992,7.422-1.992,10.731,0c18.426,11.094,38.846,18.678,60.027,22.322
				c4.936,0.849,8.552,5.109,8.552,10.118v53.533c0,19.32-6.308,38.24-18.483,53.241c-13.894,17.117-33.745,27.864-55.442,30.217
				C390.376,433.952,390.363,433.952,390.351,433.95z"/>
			<path style="fill:#FFFFFF;" d="M390.391,421.392c-0.015,0.002-0.03,0.002-0.045,0c-16.325-2.168-31.375-10.001-42.538-22.176
				c-11.923-13.002-18.489-29.877-18.489-47.517v-52.342c0-0.073,0.051-0.135,0.123-0.149c21.36-4.171,42.048-11.938,60.851-22.858
				c0.047-0.027,0.104-0.027,0.151,0c18.801,10.921,39.487,18.687,60.853,22.858c0.072,0.014,0.123,0.076,0.123,0.149v52.342
				c0,17.641-6.566,34.516-18.489,47.517C421.768,411.391,406.717,419.224,390.391,421.392z"/>
		</g>
		
			<text transform="matrix(1 0 0 1 357.1334 389.1782)" style="fill:#0F1E36; font-family:'FredokaOne-Regular'; font-size:37.7324px;">SSL</text>
		<path style="fill:#0F1E36;" d="M405.479,322.893h-5.158l-0.061-7.329c-0.016-2.606-1.072-5.202-2.898-7.122
			c-1.911-2.01-4.429-3.108-7.088-3.093c-2.659,0.016-5.163,1.145-7.05,3.178c-1.803,1.942-2.828,4.551-2.812,7.157l0.06,7.209
			h-5.209c-0.8,0-1.448,0.648-1.448,1.448v14.75c0,7.027,5.696,12.723,12.723,12.723h7.666c7.027,0,12.723-5.696,12.723-12.723
			v-14.75C406.927,323.542,406.278,322.893,405.479,322.893z M385.175,315.655c-0.008-1.407,0.553-2.824,1.539-3.887
			c0.983-1.059,2.258-1.647,3.587-1.655c1.331-0.008,2.612,0.565,3.607,1.612c0.999,1.051,1.577,2.461,1.586,3.868l0.061,7.3h-10.32
			L385.175,315.655z M392.496,337.831v4.311c0,1.174-0.952,2.126-2.125,2.126c-1.174,0-2.126-0.952-2.126-2.126v-4.311
			c-1.294-0.74-2.168-2.13-2.168-3.727c0-2.371,1.922-4.293,4.294-4.293c2.371,0,4.293,1.922,4.293,4.293
			C394.664,335.701,393.79,337.091,392.496,337.831z"/>
	</g>
	<g>
		
			<ellipse transform="matrix(0.4719 -0.8817 0.8817 0.4719 -181.3714 184.2291)" style="fill:#6CCB71;" cx="63.089" cy="243.504" rx="27.403" ry="27.403"/>
		<g>
			<path style="fill:#FFFFFF;" d="M55.606,255.435l-6.697-7.772c-0.956-1.11-0.741-2.683,0.478-3.496l0,0
				c1.219-0.813,3-0.57,3.956,0.54l3.592,4.169c0.481,0.559,1.331,0.605,1.87,0.102l14.687-13.815
				c1.068-0.996,2.741-0.938,3.737,0.13l0,0c0.996,1.068,0.938,2.741-0.13,3.737l-17.687,16.613
				C58.315,256.667,56.586,256.573,55.606,255.435z"/>
		</g>
	</g>
</g>
</svg>
